{"glyphs":{"0":{"ha":655,"x_min":70,"x_max":616,"o":"m 605 578 l 579 413 q 550 273 569 349 q 496 132 531 198 q 405 24 462 65 q 264 -14 349 -16 q 162 18 201 -12 q 102 95 123 48 q 76 199 82 142 q 73 311 70 256 q 82 413 76 367 l 106 578 q 136 718 116 644 q 191 858 155 793 q 282 964 226 924 q 422 1002 338 1004 q 525 971 486 1000 q 584 894 564 941 q 610 791 604 847 q 614 680 616 736 q 605 578 611 625 m 503 403 l 532 590 q 540 664 536 621 q 542 753 544 707 q 529 839 541 799 q 490 904 517 878 q 416 932 463 930 q 311 900 353 935 q 243 811 269 865 q 204 696 218 756 q 184 589 191 637 l 155 402 q 146 329 150 372 q 144 239 143 286 q 158 152 146 193 q 197 85 170 111 q 271 56 224 59 q 376 89 334 54 q 444 180 418 124 q 483 296 469 235 q 503 403 497 356 z "},"1":{"ha":655,"x_min":176,"x_max":500,"o":"m 500 992 l 331 0 l 256 0 l 410 885 l 176 785 l 191 868 l 486 992 l 500 992 z "},"2":{"ha":655,"x_min":23,"x_max":614,"o":"m 545 71 l 533 0 l 23 0 l 35 67 l 351 431 q 426 522 387 473 q 495 624 465 570 q 530 734 524 677 q 526 826 536 781 q 484 900 515 871 q 400 931 454 930 q 292 899 335 933 q 225 812 250 865 q 191 703 200 759 l 118 703 q 162 849 127 780 q 258 961 197 918 q 404 1002 319 1003 q 526 964 478 1000 q 594 869 573 928 q 608 742 614 811 q 582 640 603 689 q 531 546 562 591 q 467 460 501 501 q 399 381 433 419 l 128 71 l 545 71 z "},"3":{"ha":655,"x_min":42,"x_max":616,"o":"m 255 539 l 321 538 q 426 564 379 538 q 500 633 472 589 q 535 736 529 678 q 529 828 539 783 q 487 901 518 872 q 401 932 456 930 q 301 904 343 933 q 235 828 260 875 q 203 730 211 781 l 130 729 q 174 865 138 802 q 268 966 209 928 q 406 1002 327 1004 q 529 962 482 1000 q 596 863 576 924 q 610 732 616 802 q 582 631 606 677 q 520 552 558 585 q 433 501 481 519 q 330 483 384 483 l 245 484 l 255 539 m 243 468 l 253 524 l 326 522 q 426 504 382 522 q 499 454 470 486 q 542 376 529 422 q 551 273 555 331 q 525 162 547 215 q 467 70 504 110 q 380 7 431 30 q 268 -14 330 -16 q 165 11 208 -12 q 93 74 121 35 q 54 164 65 113 q 46 268 42 214 l 121 268 q 131 169 117 216 q 179 91 144 121 q 272 58 214 60 q 379 85 335 56 q 448 164 422 115 q 477 272 473 214 q 466 372 481 328 q 414 440 450 415 q 317 467 377 465 l 243 468 z "},"4":{"ha":655,"x_min":23,"x_max":608,"o":"m 608 319 l 595 249 l 23 249 l 29 297 l 517 988 l 584 987 l 471 816 l 125 319 l 608 319 m 600 987 l 429 0 l 353 0 l 525 987 l 600 987 z "},"5":{"ha":655,"x_min":81,"x_max":669,"o":"m 208 489 l 148 507 l 261 987 l 669 987 l 656 911 l 315 911 l 232 581 q 303 619 264 605 q 383 633 342 633 q 487 603 446 633 q 549 527 527 574 q 578 426 571 480 q 580 320 585 372 q 556 199 574 259 q 503 90 537 139 q 416 12 468 41 q 294 -14 365 -16 q 196 11 237 -13 q 131 73 156 35 q 93 160 105 112 q 83 261 81 209 l 154 260 q 166 165 153 212 q 210 88 178 119 q 299 56 242 58 q 389 79 352 56 q 451 142 427 103 q 488 228 475 181 q 505 319 500 274 q 505 397 509 356 q 486 474 500 438 q 441 533 471 511 q 366 557 412 556 q 279 540 317 559 q 208 489 241 521 z "},"6":{"ha":655,"x_min":71,"x_max":578,"o":"m 558 996 l 570 996 l 563 923 l 554 923 q 396 885 463 923 q 283 784 329 847 q 210 643 237 720 q 171 486 182 565 l 153 349 q 151 261 148 310 q 167 165 153 212 q 211 89 180 119 q 294 57 242 58 q 382 81 345 56 q 443 149 418 106 q 481 238 467 191 q 499 326 494 285 q 500 405 503 362 q 484 487 497 448 q 443 551 471 526 q 367 578 414 576 q 264 549 310 580 q 189 470 218 518 q 146 370 159 422 l 105 372 q 139 474 117 424 q 195 564 161 524 q 277 628 229 604 q 383 648 324 651 q 485 616 446 647 q 546 537 525 585 q 572 435 566 490 q 574 329 578 380 q 548 211 568 272 q 494 98 529 149 q 409 15 460 46 q 290 -14 357 -16 q 176 23 220 -12 q 107 114 132 58 q 77 232 83 169 q 78 350 71 294 l 89 436 q 135 635 103 536 q 221 816 166 734 q 359 947 275 898 q 558 996 442 996 z "},"7":{"ha":655,"x_min":104,"x_max":677,"o":"m 677 987 l 671 940 l 185 0 l 104 0 l 587 917 l 134 917 l 146 987 l 677 987 z "},"8":{"ha":655,"x_min":41,"x_max":628,"o":"m 559 269 q 515 124 553 189 q 413 22 477 60 q 267 -14 349 -16 q 138 25 189 -12 q 64 123 87 63 q 47 258 41 184 q 76 364 52 315 q 139 452 100 414 q 230 510 178 490 q 339 530 281 531 q 463 491 412 528 q 539 397 514 455 q 559 269 565 339 m 485 269 q 475 364 490 318 q 427 440 461 410 q 336 472 392 471 q 229 443 275 473 q 155 363 183 413 q 122 256 127 313 q 131 160 117 205 q 179 86 144 115 q 271 56 214 58 q 379 84 332 55 q 452 161 425 113 q 485 269 479 210 m 623 739 q 580 610 616 669 q 485 516 544 551 q 352 483 426 481 q 237 519 284 485 q 168 608 191 553 q 151 727 146 663 q 190 865 156 802 q 283 966 224 928 q 420 1002 341 1004 q 541 962 494 1000 q 608 866 587 925 q 623 739 628 807 m 547 740 q 539 827 551 784 q 496 900 527 871 q 415 931 466 930 q 318 903 359 932 q 253 826 277 873 q 225 728 229 779 q 232 641 220 684 q 274 571 244 598 q 355 541 304 543 q 452 568 410 540 q 517 643 493 597 q 547 740 542 689 z "},"9":{"ha":655,"x_min":104,"x_max":608,"o":"m 125 64 l 138 64 q 294 98 229 64 q 402 191 359 132 q 471 323 446 249 q 507 477 496 397 l 526 616 q 531 706 531 654 q 520 810 532 759 q 479 895 509 861 q 393 930 449 928 q 304 905 342 932 q 241 835 266 878 q 201 744 216 792 q 182 654 187 696 q 181 576 179 620 q 197 491 183 532 q 237 424 210 450 q 312 395 264 397 q 397 415 359 394 q 466 472 436 436 q 514 551 495 508 q 541 634 533 593 l 579 635 q 549 525 571 581 q 493 424 528 470 q 409 350 458 378 q 297 323 359 322 q 196 358 235 326 q 135 439 156 390 q 109 545 115 489 q 108 650 104 602 q 134 771 114 709 q 189 886 154 833 q 276 971 224 939 q 397 1002 328 1003 q 518 961 473 1000 q 582 861 562 922 q 605 733 602 800 q 601 607 608 665 l 590 530 q 558 372 579 450 q 502 226 536 294 q 417 105 468 157 q 296 22 366 52 q 134 -8 227 -7 l 117 -8 l 125 64 z "},"\u0000":{"ha":0,"x_min":0,"x_max":0,"o":""},"\u0002":{"ha":0,"x_min":0,"x_max":0,"o":""},"\r":{"ha":310,"x_min":0,"x_max":0,"o":""}," ":{"ha":310,"x_min":0,"x_max":0,"o":""},"!":{"ha":290,"x_min":35,"x_max":283,"o":"m 283 987 l 155 275 l 87 275 l 206 987 l 283 987 m 36 50 q 52 87 38 70 q 87 104 65 104 q 123 89 111 106 q 134 50 136 71 q 119 11 134 28 q 82 -7 104 -6 q 46 10 58 -7 q 36 50 35 28 z "},"\"":{"ha":387,"x_min":144,"x_max":416,"o":"m 261 1042 l 245 943 l 199 734 l 144 734 l 181 956 l 195 1042 l 261 1042 m 416 1042 l 401 943 l 355 734 l 300 734 l 336 954 l 350 1042 l 416 1042 z "},"#":{"ha":692,"x_min":43,"x_max":734,"o":"m 91 0 l 410 988 l 476 988 l 150 0 l 91 0 m 319 0 l 638 988 l 705 988 l 378 0 l 319 0 m 724 640 l 149 640 l 158 705 l 734 705 l 724 640 m 620 278 l 43 278 l 54 344 l 631 344 l 620 278 z "},"$":{"ha":655,"x_min":54,"x_max":624,"o":"m 484 1139 l 460 958 l 394 958 l 425 1139 l 484 1139 m 307 27 l 285 -141 l 219 -141 l 248 27 l 307 27 m 480 249 q 469 340 486 302 q 420 407 453 378 q 342 456 387 435 q 237 524 281 486 q 173 612 194 561 q 157 736 152 664 q 196 871 163 810 q 288 968 230 932 q 422 1002 345 1004 q 526 973 486 1000 q 589 901 567 945 q 617 803 611 857 q 618 696 624 750 l 545 696 q 545 771 548 732 q 529 846 543 811 q 489 905 516 882 q 417 929 462 928 q 323 904 362 930 q 261 834 283 878 q 232 739 238 790 q 243 647 227 685 q 292 581 258 609 q 372 531 326 553 q 476 463 433 501 q 539 374 519 425 q 555 250 560 322 q 513 113 549 174 q 416 18 477 52 q 277 -15 355 -16 q 169 12 212 -13 q 99 79 125 37 q 63 174 73 121 q 58 285 54 227 l 133 285 q 135 204 130 244 q 157 132 140 165 q 204 80 174 100 q 282 60 235 60 q 380 84 336 58 q 449 153 423 110 q 480 249 475 197 z "},"%":{"ha":861,"x_min":130,"x_max":767,"o":"m 133 745 l 138 797 q 165 895 143 846 q 227 974 188 943 q 321 1003 265 1004 q 406 969 375 1001 q 449 890 437 937 q 458 798 460 843 l 452 745 q 426 650 448 698 q 365 571 404 602 q 271 542 327 541 q 186 576 217 544 q 142 654 155 608 q 133 745 130 700 m 199 798 l 194 743 q 197 683 192 715 q 220 626 202 650 q 275 602 238 603 q 338 624 313 601 q 375 681 362 647 q 393 745 389 714 l 397 799 q 395 860 399 827 q 372 918 390 893 q 317 943 354 942 q 255 920 279 943 q 216 863 230 897 q 199 798 202 829 m 439 189 l 444 241 q 471 337 449 290 q 532 417 493 385 q 627 447 571 448 q 711 413 680 445 q 755 335 743 381 q 764 242 767 288 l 759 189 q 732 94 754 142 q 672 15 710 45 q 578 -15 633 -16 q 492 19 524 -13 q 449 97 461 50 q 439 189 437 144 m 505 242 l 500 187 q 504 126 498 159 q 527 69 509 93 q 581 44 545 45 q 644 67 619 43 q 682 124 669 90 q 699 189 696 157 l 704 243 q 701 305 706 272 q 679 362 696 338 q 623 387 661 386 q 560 365 585 388 q 522 309 535 342 q 505 242 509 275 m 726 852 l 203 83 l 159 120 l 684 887 l 726 852 z "},"&":{"ha":724,"x_min":43,"x_max":660,"o":"m 247 533 l 393 653 q 461 723 432 684 q 496 813 491 762 q 478 895 500 857 q 407 932 456 932 q 336 908 365 932 q 292 847 308 884 q 273 774 277 810 q 277 700 269 736 q 299 628 285 663 q 331 560 313 593 l 632 0 l 549 0 l 293 475 q 245 568 269 521 q 208 666 222 616 q 199 770 194 717 q 229 884 203 830 q 301 971 255 937 q 412 1002 347 1004 q 500 974 465 1001 q 554 905 536 947 q 568 812 571 862 q 546 729 565 768 q 498 659 527 691 q 435 600 469 627 l 261 460 q 202 399 231 433 q 151 328 172 366 q 125 248 130 290 q 134 155 119 197 q 182 85 148 112 q 271 57 217 58 q 400 92 344 55 q 496 188 457 128 q 561 316 536 248 q 594 443 585 384 l 660 443 q 636 329 652 384 q 592 225 619 275 q 527 129 565 176 q 519 118 523 123 q 511 109 515 113 q 402 20 467 55 q 267 -14 338 -15 q 141 24 193 -12 q 66 118 90 59 q 48 248 43 176 q 84 361 54 310 q 157 454 114 412 q 247 533 201 496 z "},"'":{"ha":230,"x_min":130,"x_max":250,"o":"m 250 1042 l 235 944 l 191 739 l 130 739 l 167 947 l 182 1042 l 250 1042 z "},"(":{"ha":393,"x_min":69,"x_max":463,"o":"m 87 387 l 88 398 q 130 591 102 490 q 200 791 157 693 q 305 972 243 890 q 451 1108 367 1055 l 463 1051 q 342 918 393 995 q 257 754 292 842 q 200 576 222 667 q 165 401 177 485 l 162 388 q 145 230 152 319 q 145 49 139 141 q 176 -125 151 -43 q 256 -265 202 -208 l 234 -318 q 132 -171 168 -258 q 82 15 96 -83 q 73 210 69 113 q 87 387 76 307 z "},")":{"ha":400,"x_min":-73,"x_max":319,"o":"m 303 402 l 300 393 q 260 197 287 299 q 191 -2 233 96 q 86 -182 148 -100 q -61 -319 24 -264 l -73 -265 q 47 -132 -3 -208 q 133 34 98 -55 q 190 213 168 122 q 226 389 212 304 l 227 403 q 243 561 237 472 q 243 741 250 649 q 212 916 237 833 q 132 1055 186 998 l 155 1107 q 257 960 222 1047 q 306 774 293 873 q 317 578 319 675 q 303 402 315 481 z "},"*":{"ha":572,"x_min":77,"x_max":614,"o":"m 106 480 l 283 680 l 77 753 l 110 821 l 315 736 l 356 987 l 427 987 l 378 739 l 605 823 l 614 749 l 380 672 l 494 472 l 433 430 l 328 637 l 159 433 l 106 480 z "},"+":{"ha":666,"x_min":58,"x_max":625,"o":"m 625 503 l 610 425 l 58 425 l 72 503 l 625 503 m 438 818 l 313 99 l 237 99 l 363 818 l 438 818 z "},",":{"ha":258,"x_min":-56,"x_max":133,"o":"m 133 130 l 118 35 q 74 -87 106 -32 q -11 -186 41 -143 l -56 -148 q -14 -93 -33 -122 q 17 -34 4 -64 q 36 32 29 -3 l 54 130 l 133 130 z "},"-":{"ha":348,"x_min":37,"x_max":317,"o":"m 317 471 l 304 400 l 37 400 l 50 471 l 317 471 z "},".":{"ha":321,"x_min":32,"x_max":149,"o":"m 35 50 q 53 91 35 74 q 93 109 70 108 q 133 92 117 109 q 147 50 149 75 q 128 10 146 26 q 87 -7 111 -6 q 47 9 63 -7 q 35 50 32 26 z "},"/":{"ha":479,"x_min":-60,"x_max":530,"o":"m 530 987 l 13 -84 l -60 -85 l 464 987 l 530 987 z "},":":{"ha":279,"x_min":22,"x_max":249,"o":"m 25 50 q 43 91 26 74 q 83 109 60 108 q 124 92 108 109 q 138 50 140 75 q 119 10 136 26 q 77 -7 101 -6 q 38 9 54 -7 q 25 50 22 26 m 134 675 q 152 716 135 699 q 193 734 170 733 q 233 718 217 734 q 247 675 249 701 q 228 635 245 652 q 186 618 210 619 q 147 634 163 618 q 134 675 132 651 z "},";":{"ha":258,"x_min":-54,"x_max":241,"o":"m 127 675 q 145 716 127 699 q 185 734 162 733 q 225 718 210 734 q 239 675 241 701 q 220 635 238 652 q 179 618 203 619 q 140 634 155 618 q 127 675 124 651 m 135 130 l 120 35 q 76 -87 109 -32 q -9 -186 43 -143 l -54 -148 q -12 -93 -31 -122 q 19 -34 6 -64 q 38 32 31 -3 l 56 130 l 135 130 z "},"<":{"ha":604,"x_min":56,"x_max":571,"o":"m 112 458 l 485 239 l 469 157 l 56 414 l 65 466 l 112 458 m 557 648 l 115 429 l 57 424 l 68 481 l 571 739 l 557 648 z "},"=":{"ha":651,"x_min":73,"x_max":598,"o":"m 598 635 l 585 562 l 122 562 l 136 635 l 598 635 m 550 357 l 536 283 l 73 283 l 87 357 l 550 357 z "},">":{"ha":614,"x_min":37,"x_max":564,"o":"m 505 435 l 125 654 l 140 735 l 564 477 l 555 427 l 505 435 m 52 243 l 501 461 l 563 469 l 552 411 l 37 153 l 52 243 z "},"?":{"ha":544,"x_min":120,"x_max":549,"o":"m 271 275 l 203 274 q 224 368 209 326 q 265 447 239 410 q 328 522 291 484 q 391 591 362 556 q 440 664 420 625 q 466 753 460 703 q 464 832 471 792 q 433 900 457 872 q 361 929 409 928 q 277 906 311 930 q 223 841 243 881 q 193 758 202 801 l 120 758 q 161 880 130 823 q 244 970 192 937 q 368 1002 296 1004 q 477 963 436 1000 q 533 871 517 927 q 543 753 549 814 q 511 641 538 692 q 446 546 485 590 q 365 461 408 501 q 302 376 323 422 q 271 275 281 330 m 149 50 q 164 87 151 69 q 200 104 178 104 q 236 89 223 106 q 247 49 248 71 q 231 11 245 28 q 195 -7 217 -6 q 159 10 172 -7 q 149 50 147 28 z "},"@":{"ha":1057,"x_min":47,"x_max":989,"o":"m 973 351 q 946 236 964 300 q 896 115 927 173 q 817 20 864 57 q 703 -14 769 -16 q 635 10 659 -13 q 600 66 610 33 q 589 139 589 100 q 595 210 589 178 l 686 598 l 749 597 l 659 210 q 653 164 656 192 q 653 110 650 137 q 670 65 656 83 q 713 45 684 46 q 801 75 765 43 q 860 158 837 108 q 896 262 883 209 q 916 351 909 315 q 931 498 927 422 q 924 644 935 573 q 882 771 913 714 q 792 863 850 829 q 642 899 734 898 q 477 867 551 901 q 344 772 402 832 q 242 636 286 711 q 170 478 199 560 q 127 320 142 397 q 112 179 116 255 q 119 29 108 103 q 161 -107 130 -45 q 250 -206 193 -168 q 396 -244 307 -244 q 495 -231 446 -245 q 589 -193 545 -217 l 602 -248 q 502 -294 557 -279 q 392 -307 446 -308 q 224 -266 292 -306 q 118 -159 157 -225 q 63 -11 79 -93 q 50 157 47 71 q 64 321 52 243 q 112 499 80 408 q 193 674 144 591 q 309 824 242 758 q 460 928 376 890 q 646 964 544 966 q 813 924 747 963 q 919 822 880 886 q 974 679 958 759 q 988 515 989 600 q 973 351 987 431 m 372 285 q 363 225 368 262 q 359 149 358 188 q 376 83 361 111 q 428 53 392 56 q 496 72 467 50 q 547 126 526 93 q 585 196 569 160 q 611 260 601 232 l 635 219 q 602 141 621 182 q 555 64 583 100 q 491 6 528 28 q 409 -14 455 -16 q 330 21 355 -12 q 297 103 304 54 q 294 201 290 151 q 304 285 298 250 q 327 380 311 328 q 366 484 342 432 q 424 579 390 536 q 501 648 457 623 q 600 673 545 674 q 680 652 646 671 q 745 600 713 632 l 701 553 q 659 593 684 579 q 603 608 635 608 q 505 577 546 610 q 438 491 465 543 q 395 383 411 439 q 372 285 380 328 z "},"A":{"ha":739,"x_min":-43,"x_max":638,"o":"m 475 924 l 40 0 l -43 0 l 433 988 l 490 988 l 475 924 m 564 0 l 446 928 l 452 987 l 505 987 l 638 0 l 564 0 m 580 349 l 567 276 l 133 276 l 146 349 l 580 349 z "},"B":{"ha":722,"x_min":42,"x_max":681,"o":"m 410 475 l 182 475 l 193 547 l 383 545 q 489 569 442 546 q 564 635 535 592 q 598 738 593 678 q 589 831 604 792 q 539 891 574 870 q 449 914 505 912 l 279 915 l 119 0 l 42 0 l 214 987 l 451 987 q 554 968 509 985 q 627 918 598 950 q 668 839 656 885 q 676 734 681 792 q 642 622 671 671 q 565 541 612 572 q 456 500 517 509 l 410 475 m 322 0 l 71 0 l 124 73 l 326 73 q 436 100 389 73 q 512 175 484 127 q 548 284 541 222 q 541 376 553 333 q 496 445 528 418 q 410 474 464 471 l 260 475 l 274 547 l 471 545 l 481 519 q 569 472 536 508 q 615 386 602 436 q 624 285 628 336 q 578 136 617 200 q 474 35 539 71 q 322 0 409 -1 z "},"C":{"ha":762,"x_min":79,"x_max":739,"o":"m 595 308 l 668 309 q 609 141 651 215 q 497 25 567 68 q 326 -14 427 -17 q 193 26 244 -12 q 117 124 142 64 q 85 255 92 184 q 88 391 79 325 l 122 603 q 160 749 134 677 q 232 878 187 821 q 341 970 277 936 q 490 1002 405 1004 q 640 955 585 999 q 717 837 695 910 q 734 678 739 764 l 658 678 q 648 799 660 743 q 597 891 635 856 q 485 929 559 927 q 367 903 417 931 q 283 827 317 875 q 229 721 250 779 q 199 604 208 663 l 167 391 q 160 285 159 342 q 177 178 161 229 q 229 94 193 127 q 331 58 265 60 q 465 87 414 55 q 547 178 516 120 q 595 308 577 235 z "},"D":{"ha":768,"x_min":42,"x_max":720,"o":"m 269 0 l 82 0 l 97 73 l 272 73 q 438 114 370 72 q 548 231 507 157 q 604 395 589 304 l 634 595 q 637 709 642 653 q 609 811 631 765 q 543 884 586 857 q 432 914 500 912 l 237 915 l 251 987 l 434 987 q 575 951 518 985 q 665 863 632 918 q 709 738 699 807 q 710 593 720 668 l 680 395 q 635 239 667 311 q 551 113 603 167 q 429 29 499 59 q 269 0 358 -1 m 291 987 l 119 0 l 42 0 l 214 987 l 291 987 z "},"E":{"ha":670,"x_min":42,"x_max":714,"o":"m 560 73 l 546 0 l 97 0 l 110 73 l 560 73 m 291 987 l 119 0 l 42 0 l 214 987 l 291 987 m 585 546 l 572 473 l 180 473 l 193 546 l 585 546 m 714 987 l 701 915 l 256 915 l 269 987 l 714 987 z "},"F":{"ha":661,"x_min":42,"x_max":713,"o":"m 291 987 l 119 0 l 42 0 l 214 987 l 291 987 m 581 534 l 567 460 l 176 460 l 189 534 l 581 534 m 713 987 l 701 915 l 254 915 l 267 987 l 713 987 z "},"G":{"ha":800,"x_min":85,"x_max":752,"o":"m 708 471 l 652 116 q 568 41 617 71 q 464 -1 519 12 q 351 -14 408 -14 q 215 22 269 -13 q 131 115 160 58 q 93 243 102 173 q 94 384 85 314 l 130 611 q 168 758 141 687 q 240 884 195 829 q 349 972 284 940 q 500 1001 413 1004 q 644 961 588 999 q 726 857 699 922 q 749 709 752 792 l 672 709 q 657 819 673 770 q 602 897 640 868 q 495 928 563 926 q 376 905 426 931 q 291 832 326 878 q 237 730 257 787 q 208 612 218 673 l 172 383 q 168 274 164 330 q 190 169 171 218 q 249 90 210 121 q 355 60 288 60 q 435 67 396 58 q 508 96 473 77 q 574 142 543 115 l 620 398 l 409 398 l 422 471 l 708 471 z "},"H":{"ha":828,"x_min":42,"x_max":816,"o":"m 677 546 l 664 473 l 184 473 l 197 546 l 677 546 m 291 987 l 119 0 l 42 0 l 214 987 l 291 987 m 816 987 l 644 0 l 566 0 l 739 987 l 816 987 z "},"I":{"ha":329,"x_min":56,"x_max":304,"o":"m 304 987 l 133 0 l 56 0 l 228 987 l 304 987 z "},"J":{"ha":650,"x_min":22,"x_max":643,"o":"m 448 294 l 566 987 l 643 987 l 524 294 q 478 144 513 216 q 383 28 444 73 q 233 -15 322 -17 q 104 28 151 -12 q 39 134 56 69 q 28 273 22 199 l 106 273 q 109 174 100 222 q 149 93 118 125 q 240 58 180 60 q 348 93 305 57 q 415 183 391 128 q 448 294 439 239 z "},"K":{"ha":739,"x_min":42,"x_max":789,"o":"m 291 987 l 119 0 l 42 0 l 214 987 l 291 987 m 789 988 l 366 534 l 147 318 l 157 422 l 322 595 l 688 987 l 789 988 m 552 0 l 305 510 l 361 576 l 638 0 l 552 0 z "},"L":{"ha":625,"x_min":42,"x_max":527,"o":"m 527 73 l 514 0 l 98 0 l 111 73 l 527 73 m 292 987 l 120 0 l 42 0 l 214 987 l 292 987 z "},"M":{"ha":1007,"x_min":42,"x_max":996,"o":"m 239 987 l 313 987 l 453 122 l 892 988 l 972 988 l 465 0 l 405 0 l 239 987 m 214 987 l 281 987 l 193 427 l 119 0 l 42 0 l 214 987 m 927 987 l 996 987 l 824 0 l 747 0 l 822 433 l 927 987 z "},"N":{"ha":831,"x_min":42,"x_max":819,"o":"m 819 987 l 647 0 l 572 0 l 267 843 l 120 0 l 42 0 l 214 987 l 289 987 l 595 144 l 741 987 l 819 987 z "},"O":{"ha":795,"x_min":77,"x_max":749,"o":"m 740 600 l 707 387 q 668 238 695 311 q 596 108 641 166 q 486 17 551 50 q 333 -14 420 -16 q 198 24 250 -12 q 118 119 145 60 q 83 248 90 178 q 85 387 77 317 l 119 601 q 158 748 130 675 q 230 879 185 821 q 340 970 275 937 q 492 1001 405 1004 q 628 963 575 999 q 708 869 681 927 q 743 741 736 810 q 740 600 749 671 m 629 387 l 663 604 q 668 712 670 656 q 649 816 666 768 q 592 895 631 864 q 487 927 553 925 q 366 902 416 929 q 280 827 315 874 q 225 721 245 779 q 196 602 205 662 l 163 386 q 158 277 155 334 q 178 173 161 221 q 234 93 195 124 q 338 60 273 62 q 461 85 410 58 q 546 160 511 113 q 601 267 581 208 q 629 387 621 326 z "},"P":{"ha":726,"x_min":42,"x_max":722,"o":"m 397 401 l 163 401 l 177 475 l 399 473 q 518 502 468 473 q 600 580 569 530 q 637 696 630 630 q 631 801 644 753 q 583 881 618 850 q 485 914 547 911 l 279 915 l 119 0 l 42 0 l 214 987 l 488 987 q 624 945 571 984 q 700 841 677 905 q 715 697 722 776 q 666 541 707 608 q 556 437 625 474 q 397 401 488 401 z "},"Q":{"ha":795,"x_min":73,"x_max":747,"o":"m 454 79 l 612 -123 l 554 -173 l 398 26 l 454 79 m 737 600 l 704 388 q 665 239 692 311 q 593 108 638 166 q 483 17 548 50 q 331 -14 418 -17 q 195 25 248 -12 q 114 119 142 61 q 80 247 86 177 q 83 387 73 317 l 115 600 q 154 748 127 675 q 227 879 182 821 q 337 970 272 937 q 489 1001 402 1004 q 625 963 572 999 q 706 869 678 927 q 740 741 733 810 q 737 600 747 671 m 627 387 l 661 604 q 666 712 667 656 q 646 816 664 768 q 590 895 629 864 q 484 927 551 925 q 363 902 414 929 q 278 826 312 874 q 223 720 243 779 q 193 602 203 662 l 161 387 q 156 278 154 334 q 175 173 158 222 q 231 93 192 124 q 336 60 269 62 q 458 85 407 58 q 544 161 509 113 q 598 268 578 209 q 627 387 618 326 z "},"R":{"ha":741,"x_min":41,"x_max":708,"o":"m 212 987 l 470 987 q 607 947 553 984 q 685 846 661 909 q 701 702 708 782 q 665 576 694 631 q 586 482 635 521 q 471 422 537 444 l 444 410 l 163 411 l 175 484 l 397 483 q 508 513 460 484 q 587 592 557 543 q 623 703 616 642 q 615 807 629 760 q 565 883 602 854 q 468 914 529 912 l 277 915 l 118 0 l 41 0 l 212 987 m 534 0 l 406 441 l 483 442 l 617 9 l 616 0 l 534 0 z "},"S":{"ha":696,"x_min":35,"x_max":694,"o":"m 535 249 q 529 328 541 295 q 493 386 518 361 q 435 429 469 411 q 363 463 402 448 q 275 507 317 483 q 202 564 233 532 q 157 640 172 597 q 146 740 141 683 q 177 848 151 800 q 245 932 203 897 q 340 985 287 967 q 452 1001 393 1002 q 590 958 534 999 q 670 850 645 917 q 687 706 694 783 l 610 706 q 601 813 616 763 q 549 895 587 863 q 447 928 511 927 q 341 907 389 930 q 262 842 293 884 q 224 742 231 800 q 231 668 218 699 q 268 612 243 636 q 324 571 292 589 q 391 539 356 553 q 485 494 442 519 q 557 434 527 469 q 603 355 588 399 q 612 250 618 310 q 581 139 608 189 q 511 55 553 89 q 414 2 468 20 q 298 -14 359 -16 q 184 11 235 -12 q 100 73 134 33 q 50 167 66 113 q 41 283 35 221 l 119 283 q 123 195 113 236 q 156 125 133 155 q 216 78 179 95 q 303 58 253 60 q 412 80 362 57 q 495 145 463 102 q 535 249 528 189 z "},"T":{"ha":702,"x_min":128,"x_max":763,"o":"m 491 987 l 319 0 l 242 0 l 414 987 l 491 987 m 763 987 l 750 915 l 128 915 l 142 987 l 763 987 z "},"U":{"ha":768,"x_min":73,"x_max":772,"o":"m 694 987 l 772 987 l 653 293 q 598 132 640 202 q 487 22 556 61 q 321 -14 418 -17 q 174 28 229 -13 q 96 137 118 68 q 83 292 73 205 l 201 987 l 277 987 l 160 291 q 166 175 153 227 q 218 92 179 123 q 327 58 256 61 q 452 85 400 56 q 535 168 505 115 q 576 291 566 222 l 694 987 z "},"V":{"ha":729,"x_min":122,"x_max":793,"o":"m 322 127 l 706 988 l 793 988 l 338 0 l 274 0 l 322 127 m 203 987 l 318 119 l 326 0 l 267 0 l 122 987 l 203 987 z "},"W":{"ha":1039,"x_min":138,"x_max":1090,"o":"m 294 262 l 579 987 l 644 988 l 563 766 l 260 0 l 199 0 l 294 262 m 214 987 l 245 267 l 246 0 l 188 0 l 138 987 l 214 987 m 758 273 l 1010 988 l 1090 988 l 732 0 l 669 0 l 758 273 m 648 987 l 705 256 l 716 0 l 660 0 l 601 758 l 589 987 l 648 987 z "},"X":{"ha":722,"x_min":-22,"x_max":765,"o":"m 231 987 l 385 573 l 669 988 l 765 988 l 422 497 l 614 0 l 528 0 l 368 428 l 73 0 l -22 0 l 332 505 l 144 987 l 231 987 z "},"Y":{"ha":705,"x_min":128,"x_max":781,"o":"m 214 987 l 357 453 l 688 988 l 781 987 l 383 367 l 319 0 l 241 0 l 308 377 l 128 987 l 214 987 z "},"Z":{"ha":704,"x_min":-6,"x_max":725,"o":"m 587 73 l 573 0 l 19 0 l 33 73 l 587 73 m 717 926 l 43 0 l -6 0 l 5 68 l 675 987 l 725 987 l 717 926 m 694 987 l 682 915 l 163 915 l 176 987 l 694 987 z "},"[":{"ha":303,"x_min":5,"x_max":403,"o":"m 403 1128 l 391 1058 l 278 1058 l 90 -140 l 205 -140 l 193 -212 l 5 -212 l 214 1128 l 403 1128 z "},"\\":{"ha":475,"x_min":142,"x_max":360,"o":"m 291 -84 l 142 987 l 210 987 l 360 -84 l 291 -84 z "},"]":{"ha":303,"x_min":-83,"x_max":316,"o":"m 115 1058 l 127 1128 l 316 1128 l 106 -212 l -83 -212 l -72 -140 l 43 -140 l 230 1058 l 115 1058 z "},"^":{"ha":498,"x_min":67,"x_max":452,"o":"m 340 897 l 142 494 l 67 494 l 318 987 l 368 987 l 340 897 m 385 495 l 325 905 l 324 988 l 372 988 l 452 495 l 385 495 z "},"_":{"ha":519,"x_min":-69,"x_max":436,"o":"m 436 0 l 423 -71 l -69 -71 l -56 0 l 436 0 z "},"`":{"ha":385,"x_min":169,"x_max":357,"o":"m 260 1042 l 357 852 l 290 852 l 169 1042 l 260 1042 z "},"a":{"ha":635,"x_min":29,"x_max":558,"o":"m 412 132 l 477 533 q 470 609 481 577 q 430 659 458 642 q 355 677 401 677 q 273 661 310 679 q 212 609 236 642 q 180 532 189 576 l 105 532 q 135 621 112 581 q 192 690 157 661 q 271 734 227 719 q 363 749 315 749 q 475 720 431 747 q 538 644 519 692 q 552 530 558 595 l 490 155 q 484 81 484 117 q 485 9 484 46 l 484 0 l 408 0 q 406 66 404 33 q 412 132 408 99 m 481 429 l 471 364 l 347 365 q 266 355 306 365 q 192 326 225 346 q 136 273 158 306 q 109 194 114 240 q 115 125 106 155 q 150 77 125 94 q 216 59 174 60 q 311 79 268 58 q 386 136 353 100 q 437 219 419 173 l 452 173 q 413 99 437 134 q 357 39 389 64 q 285 -1 324 13 q 203 -16 246 -16 q 104 12 142 -15 q 47 85 65 39 q 33 189 29 132 q 64 295 37 250 q 133 370 90 340 q 229 414 176 399 q 338 429 281 429 l 481 429 z "},"b":{"ha":655,"x_min":26,"x_max":588,"o":"m 208 1042 l 282 1042 l 125 138 l 96 0 l 26 0 l 208 1042 m 582 401 l 573 334 q 547 211 565 273 q 498 97 530 149 q 416 14 466 45 q 294 -14 366 -17 q 202 12 240 -12 q 141 73 165 35 q 108 157 118 111 q 100 252 98 203 l 134 471 q 165 571 144 522 q 220 662 186 621 q 299 726 254 702 q 402 749 345 749 q 513 713 473 747 q 569 628 553 680 q 587 516 586 576 q 582 401 588 456 m 499 332 l 507 401 q 513 489 511 441 q 504 578 514 536 q 466 648 494 621 q 382 677 437 675 q 307 662 342 677 q 244 619 271 646 q 197 557 216 592 q 168 485 178 522 l 127 233 q 145 148 125 186 q 200 84 165 109 q 283 59 236 60 q 380 80 341 56 q 442 146 418 104 q 479 236 466 187 q 499 332 493 285 z "},"c":{"ha":611,"x_min":46,"x_max":571,"o":"m 264 56 q 357 76 319 54 q 418 138 395 98 q 453 227 442 178 l 523 227 q 477 103 511 159 q 387 15 442 47 q 260 -15 332 -17 q 143 17 187 -13 q 77 97 99 47 q 51 206 56 146 q 52 326 46 265 l 64 408 q 93 535 72 473 q 151 646 115 597 q 242 723 188 694 q 371 747 296 751 q 491 709 446 745 q 553 613 535 672 q 567 486 571 553 l 495 486 q 488 576 498 533 q 449 647 478 619 q 366 677 420 675 q 267 657 308 680 q 200 594 227 634 q 159 506 174 555 q 138 408 144 458 l 127 325 q 123 236 123 282 q 135 149 123 189 q 178 83 147 109 q 264 56 208 58 z "},"d":{"ha":657,"x_min":54,"x_max":669,"o":"m 439 147 l 594 1042 l 669 1042 l 488 0 l 418 0 l 439 147 m 60 332 l 69 399 q 95 523 77 460 q 145 637 113 586 q 228 720 178 689 q 352 748 279 750 q 444 720 406 745 q 503 655 481 695 q 535 566 526 614 q 541 471 544 518 l 509 252 q 477 152 499 201 q 422 66 455 104 q 343 5 389 28 q 241 -14 297 -17 q 133 21 172 -13 q 76 107 94 55 q 56 220 58 160 q 60 332 54 279 m 144 401 l 136 331 q 131 245 132 292 q 140 156 130 198 q 178 86 150 114 q 260 58 206 59 q 355 79 311 56 q 430 144 399 103 q 474 233 462 184 l 515 485 q 507 554 517 521 q 478 614 498 587 q 429 657 458 641 q 363 675 400 674 q 266 654 305 678 q 201 588 226 629 q 163 497 177 547 q 144 401 150 448 z "},"e":{"ha":617,"x_min":43,"x_max":567,"o":"m 269 -14 q 152 16 198 -13 q 82 93 106 45 q 51 200 58 141 q 50 319 43 258 l 60 403 q 91 528 68 466 q 150 641 113 590 q 242 721 187 691 q 370 747 297 751 q 478 716 437 745 q 539 640 519 687 q 563 537 559 593 q 560 424 567 480 l 551 361 l 99 361 l 111 432 l 486 431 l 490 451 q 489 552 496 500 q 454 639 483 604 q 364 677 425 675 q 266 656 307 680 q 198 591 225 632 q 156 500 172 550 q 135 403 141 451 l 125 318 q 123 229 119 275 q 141 145 126 184 q 189 83 157 107 q 275 58 221 58 q 374 77 329 55 q 457 135 418 98 l 491 84 q 429 28 464 50 q 353 -4 393 6 q 269 -14 312 -14 z "},"f":{"ha":405,"x_min":75,"x_max":507,"o":"m 149 0 l 75 0 l 215 825 q 248 939 223 885 q 317 1026 273 994 q 431 1059 362 1059 q 469 1054 450 1057 q 507 1045 488 1050 l 494 976 q 464 983 479 980 q 432 986 448 985 q 358 962 387 986 q 313 901 329 939 q 290 825 296 864 l 149 0 m 417 734 l 405 666 l 92 666 l 104 734 l 417 734 z "},"g":{"ha":656,"x_min":8,"x_max":616,"o":"m 546 734 l 616 734 l 488 -17 q 444 -159 477 -96 q 352 -259 410 -223 q 208 -293 294 -295 q 132 -278 169 -292 q 62 -242 94 -265 q 8 -189 31 -220 l 48 -136 q 117 -197 78 -174 q 205 -223 156 -220 q 313 -199 270 -225 q 380 -126 356 -173 q 412 -22 404 -80 l 513 574 l 546 734 m 60 332 l 69 399 q 95 523 77 461 q 145 637 113 585 q 228 720 177 689 q 352 748 279 751 q 444 720 406 745 q 504 655 481 695 q 535 566 526 614 q 541 471 544 518 l 509 252 q 477 152 498 201 q 422 66 456 104 q 343 5 389 28 q 241 -14 298 -17 q 132 21 172 -13 q 76 107 93 54 q 56 220 58 161 q 60 332 54 279 m 144 401 l 136 332 q 130 245 131 292 q 139 156 129 198 q 178 86 150 114 q 260 58 206 59 q 355 80 312 56 q 430 144 399 104 q 473 233 460 185 l 514 485 q 506 554 515 521 q 477 614 496 587 q 429 657 458 641 q 363 675 400 674 q 266 654 305 678 q 202 588 227 629 q 164 497 177 547 q 144 401 151 448 z "},"h":{"ha":648,"x_min":26,"x_max":568,"o":"m 282 1042 l 102 0 l 26 0 l 208 1042 l 282 1042 m 157 412 l 130 429 q 161 539 140 482 q 215 644 182 595 q 297 721 249 692 q 409 748 345 749 q 498 722 465 747 q 547 657 532 696 q 565 571 562 617 q 563 479 568 524 l 483 0 l 408 0 l 488 480 q 489 567 492 522 q 463 644 486 612 q 386 677 440 675 q 297 653 336 678 q 230 587 258 628 q 184 500 201 547 q 157 412 166 454 z "},"i":{"ha":285,"x_min":35,"x_max":288,"o":"m 237 734 l 109 0 l 35 0 l 163 734 l 237 734 m 187 945 q 203 983 189 970 q 239 1002 217 996 q 275 984 262 998 q 286 945 288 971 q 270 908 283 921 q 233 890 256 895 q 198 907 211 895 q 187 945 186 920 z "},"j":{"ha":287,"x_min":-159,"x_max":284,"o":"m 159 734 l 235 734 l 95 -87 q 67 -190 88 -140 q 7 -270 46 -239 q -95 -298 -33 -300 q -127 -294 -112 -298 q -159 -284 -142 -290 l -149 -215 q -124 -222 -137 -219 q -98 -227 -112 -226 q -35 -205 -60 -227 q 2 -153 -11 -184 q 20 -87 14 -121 l 159 734 m 184 945 q 200 984 186 966 q 236 1002 214 1001 q 272 985 259 1002 q 282 945 284 967 q 267 908 281 924 q 230 890 252 891 q 195 907 208 890 q 184 945 182 924 z "},"k":{"ha":585,"x_min":27,"x_max":605,"o":"m 282 1042 l 102 0 l 27 0 l 208 1042 l 282 1042 m 605 734 l 269 392 l 116 247 l 123 336 l 240 462 l 506 734 l 605 734 m 412 0 l 233 385 l 283 453 l 495 0 l 412 0 z "},"l":{"ha":285,"x_min":35,"x_max":290,"o":"m 290 1042 l 109 0 l 35 0 l 216 1042 l 290 1042 z "},"m":{"ha":1027,"x_min":23,"x_max":949,"o":"m 200 579 l 99 0 l 23 0 l 151 734 l 223 734 l 200 579 m 157 412 l 127 429 q 157 540 137 484 q 211 645 178 597 q 292 721 244 693 q 406 748 340 749 q 493 723 459 747 q 543 662 526 699 q 564 578 559 624 q 563 488 568 533 l 481 0 l 406 0 l 487 486 q 487 574 492 530 q 456 647 481 618 q 377 677 431 676 q 287 653 325 678 q 223 588 249 629 q 181 502 198 548 q 157 412 165 455 m 564 476 l 514 473 q 545 574 524 524 q 601 663 567 623 q 680 726 634 703 q 784 749 726 749 q 875 722 841 747 q 926 659 909 698 q 946 573 943 620 q 945 479 949 526 l 865 0 l 789 0 l 869 481 q 869 569 873 524 q 841 645 865 614 q 762 677 817 676 q 687 660 720 677 q 628 614 653 643 q 588 549 604 585 q 564 476 572 513 z "},"n":{"ha":649,"x_min":26,"x_max":568,"o":"m 202 578 l 102 0 l 26 0 l 154 734 l 226 734 l 202 578 m 157 412 l 130 429 q 161 539 140 482 q 215 644 182 595 q 297 721 249 692 q 409 748 345 749 q 498 722 465 747 q 547 657 532 696 q 565 571 562 617 q 563 479 568 524 l 483 0 l 408 0 l 488 480 q 489 567 492 522 q 463 644 486 612 q 386 677 440 675 q 297 653 336 678 q 230 587 258 628 q 184 500 201 547 q 157 412 166 454 z "},"o":{"ha":661,"x_min":52,"x_max":597,"o":"m 58 329 l 68 404 q 99 530 77 468 q 159 642 121 591 q 252 721 197 692 q 380 748 307 751 q 494 714 450 746 q 561 632 538 683 q 590 523 584 582 q 590 405 597 463 l 581 330 q 549 204 572 267 q 488 92 526 142 q 395 13 450 42 q 269 -15 340 -17 q 154 19 198 -13 q 87 102 110 52 q 58 212 64 153 q 58 329 52 271 m 144 405 l 133 328 q 131 240 129 287 q 146 153 132 194 q 190 85 159 112 q 274 56 221 58 q 372 78 330 54 q 440 143 413 102 q 483 233 467 184 q 505 330 499 281 l 515 406 q 518 492 520 446 q 502 580 515 538 q 458 648 488 621 q 374 677 427 675 q 278 655 319 680 q 210 590 238 631 q 165 500 182 549 q 144 405 149 452 z "},"p":{"ha":655,"x_min":-22,"x_max":587,"o":"m 203 589 l 52 -282 l -22 -282 l 154 734 l 223 734 l 203 589 m 581 401 l 572 334 q 547 211 564 273 q 497 98 529 149 q 415 15 465 46 q 293 -14 365 -17 q 202 10 240 -12 q 140 69 164 33 q 104 152 115 106 q 96 245 94 197 l 130 471 q 162 572 140 522 q 218 662 184 622 q 298 726 252 703 q 401 748 344 750 q 512 713 472 747 q 568 627 551 680 q 586 515 585 575 q 581 401 587 456 m 499 332 l 507 402 q 512 489 511 442 q 503 578 513 536 q 463 648 492 621 q 380 677 434 675 q 303 662 338 677 q 240 619 268 646 q 193 557 213 592 q 165 485 174 522 l 122 227 q 142 143 121 181 q 198 81 162 104 q 279 56 234 58 q 376 79 336 54 q 440 145 416 104 q 479 236 465 186 q 499 332 492 286 z "},"q":{"ha":660,"x_min":54,"x_max":615,"o":"m 364 -282 l 517 597 l 545 734 l 615 734 l 439 -282 l 364 -282 m 60 332 l 68 400 q 95 524 77 462 q 145 638 113 586 q 228 720 177 690 q 353 748 279 751 q 445 720 408 745 q 506 655 483 695 q 538 567 529 614 q 545 471 548 519 l 513 252 q 480 152 502 200 q 424 66 458 104 q 344 5 390 27 q 241 -14 298 -16 q 133 21 173 -12 q 76 107 93 54 q 56 219 58 159 q 60 332 54 279 m 144 401 l 136 332 q 130 245 131 292 q 139 156 129 199 q 178 85 149 113 q 260 56 206 58 q 357 78 313 54 q 433 143 401 102 q 477 233 465 184 l 519 485 q 510 554 520 520 q 480 615 500 587 q 431 659 460 642 q 365 677 401 675 q 268 655 307 680 q 203 589 228 631 q 165 498 178 547 q 144 401 151 448 z "},"r":{"ha":408,"x_min":26,"x_max":435,"o":"m 208 614 l 102 0 l 26 0 l 154 734 l 227 734 l 208 614 m 435 740 l 424 665 q 401 668 412 667 q 378 670 390 670 q 290 648 327 671 q 228 588 254 625 q 186 506 203 550 q 161 420 170 462 l 133 408 q 158 519 142 460 q 202 633 174 579 q 276 719 231 686 q 387 749 321 752 q 411 746 399 749 q 435 740 423 743 z "},"s":{"ha":602,"x_min":29,"x_max":549,"o":"m 414 186 q 399 254 420 226 q 347 302 379 282 q 286 338 315 323 q 221 375 253 356 q 164 418 190 394 q 125 473 139 441 q 114 547 111 504 q 137 630 117 593 q 189 694 157 668 q 263 735 222 721 q 350 747 304 749 q 458 719 413 746 q 527 644 504 692 q 545 533 549 595 l 471 533 q 459 606 473 574 q 416 657 446 638 q 346 676 387 675 q 272 662 306 677 q 215 618 237 647 q 188 549 192 590 q 195 499 184 521 q 224 461 205 477 q 267 432 244 445 q 311 408 290 419 q 399 356 357 384 q 467 290 441 329 q 489 191 492 250 q 465 103 486 142 q 410 38 444 64 q 333 -1 376 12 q 242 -14 290 -14 q 130 14 179 -12 q 55 89 81 41 q 33 201 29 136 l 109 201 q 122 123 106 155 q 169 75 138 92 q 247 57 201 58 q 323 71 286 57 q 385 115 360 85 q 414 186 410 144 z "},"t":{"ha":391,"x_min":69,"x_max":387,"o":"m 387 734 l 375 666 l 69 666 l 82 734 l 387 734 m 223 922 l 298 922 l 173 178 q 171 130 171 157 q 182 83 172 103 q 223 62 193 62 q 250 63 237 61 q 275 67 262 65 l 271 -3 q 237 -10 254 -7 q 203 -12 220 -12 q 128 19 151 -12 q 99 94 104 50 q 99 179 94 138 l 223 922 z "},"u":{"ha":648,"x_min":68,"x_max":609,"o":"m 437 172 l 534 734 l 609 734 l 481 0 l 410 0 l 437 172 m 475 307 l 508 308 q 481 190 499 248 q 431 85 463 132 q 350 11 399 38 q 231 -15 300 -17 q 140 13 174 -14 q 90 81 106 39 q 71 170 73 122 q 73 264 68 218 l 152 734 l 227 734 l 148 262 q 146 198 146 232 q 155 133 146 164 q 185 81 163 101 q 246 58 207 60 q 366 92 319 56 q 437 186 412 128 q 475 307 463 243 z "},"v":{"ha":572,"x_min":86,"x_max":591,"o":"m 224 83 l 511 734 l 591 734 l 254 0 l 197 0 l 224 83 m 160 734 l 248 73 l 246 0 l 193 0 l 86 734 l 160 734 z "},"w":{"ha":880,"x_min":103,"x_max":889,"o":"m 218 170 l 460 734 l 517 734 l 465 581 l 212 0 l 159 0 l 218 170 m 176 734 l 207 170 l 201 0 l 149 0 l 103 734 l 176 734 m 589 174 l 810 734 l 889 734 l 587 0 l 532 0 l 589 174 m 525 734 l 572 171 l 574 0 l 524 0 l 470 589 l 473 734 l 525 734 z "},"x":{"ha":579,"x_min":-28,"x_max":585,"o":"m 182 734 l 291 441 l 492 734 l 585 734 l 323 370 l 474 0 l 392 0 l 276 307 l 65 0 l -28 0 l 243 378 l 100 734 l 182 734 z "},"y":{"ha":564,"x_min":-56,"x_max":594,"o":"m 220 85 l 511 734 l 594 734 l 197 -117 q 166 -182 184 -150 q 126 -240 149 -214 q 72 -283 102 -267 q 2 -298 41 -299 q -28 -295 -14 -298 q -56 -288 -42 -292 l -48 -219 q -32 -222 -40 -220 q -14 -225 -23 -224 q 56 -207 26 -227 q 105 -156 85 -188 q 140 -90 125 -124 l 220 85 m 166 734 l 242 101 l 246 18 l 188 -16 l 88 734 l 166 734 z "},"z":{"ha":579,"x_min":-7,"x_max":566,"o":"m 477 71 l 463 0 l 17 0 l 30 71 l 477 71 m 557 673 l 39 0 l -7 0 l 3 66 l 517 734 l 566 734 l 557 673 m 536 734 l 523 663 l 115 663 l 128 734 l 536 734 z "},"{":{"ha":402,"x_min":45,"x_max":476,"o":"m 460 1086 l 476 1028 q 356 923 393 995 q 306 768 318 851 l 285 614 q 248 494 277 545 q 170 414 220 443 q 48 382 120 385 l 55 439 q 165 493 131 442 q 210 614 200 545 l 231 768 q 267 904 241 842 q 340 1012 293 966 q 460 1086 387 1059 m 288 -218 l 268 -272 q 168 -197 203 -245 q 123 -87 134 -149 q 120 41 113 -25 l 141 195 q 140 274 144 236 q 114 338 136 312 q 45 368 92 363 l 50 423 q 154 389 115 421 q 207 306 192 357 q 215 194 221 254 l 195 41 q 192 -60 189 -9 q 217 -152 195 -110 q 288 -218 239 -195 z "},"|":{"ha":298,"x_min":24,"x_max":276,"o":"m 276 987 l 93 -183 l 24 -183 l 208 987 l 276 987 z "},"}":{"ha":402,"x_min":-75,"x_max":357,"o":"m 117 1028 l 136 1082 q 235 1006 201 1055 q 279 895 269 956 q 281 768 289 833 l 260 614 q 261 534 256 572 q 287 471 265 496 q 357 441 309 445 l 351 389 q 249 422 288 391 q 195 504 210 454 q 186 614 180 555 l 207 769 q 210 867 212 816 q 187 961 208 918 q 117 1028 166 1004 m -59 -275 l -75 -217 q 14 -156 -21 -195 q 68 -65 49 -116 q 96 41 87 -14 l 116 194 q 153 314 125 263 q 232 393 182 364 q 352 422 281 421 l 347 370 q 236 315 271 366 q 191 194 201 264 l 170 41 q 134 -95 161 -33 q 60 -202 108 -157 q -59 -275 13 -248 z "},"~":{"ha":800,"x_min":76,"x_max":722,"o":"m 663 519 l 722 520 q 705 439 718 480 q 669 363 692 398 q 613 306 646 328 q 532 286 579 285 q 443 317 481 286 q 374 385 406 347 q 328 435 353 411 q 265 461 302 460 q 198 437 222 462 q 160 376 173 412 q 142 306 148 340 l 76 304 q 94 386 81 345 q 130 461 107 427 q 188 517 153 496 q 269 536 222 538 q 358 505 320 535 q 426 437 395 475 q 473 386 448 410 q 536 359 498 361 q 604 385 578 359 q 643 448 629 410 q 663 519 656 485 z "},"¡":{"ha":282,"x_min":-9,"x_max":240,"o":"m -9 -244 l 119 468 l 189 468 l 69 -244 l -9 -244 m 238 693 q 223 655 237 672 q 187 637 209 637 q 151 654 163 636 q 140 693 138 671 q 156 731 142 714 q 192 748 170 747 q 228 732 215 749 q 238 693 240 715 z "},"¢":{"ha":644,"x_min":63,"x_max":583,"o":"m 454 894 l 422 711 l 347 711 l 380 894 l 454 894 m 302 16 l 270 -166 l 195 -166 l 227 16 l 302 16 m 277 56 q 366 79 328 55 q 429 142 404 103 q 465 227 454 181 l 536 227 q 489 107 524 163 q 398 17 453 51 q 273 -14 342 -16 q 158 23 201 -12 q 93 114 114 58 q 67 232 72 169 q 69 351 63 294 l 73 380 q 102 508 80 443 q 161 629 123 574 q 254 717 199 684 q 382 747 309 751 q 500 707 455 745 q 564 610 545 669 q 580 486 583 551 l 509 486 q 499 573 511 530 q 458 646 488 616 q 378 677 429 675 q 278 651 319 680 q 210 577 237 623 q 168 479 183 532 q 147 380 153 427 l 144 351 q 139 262 138 312 q 151 166 139 212 q 192 90 162 120 q 277 56 222 59 z "},"£":{"ha":675,"x_min":-5,"x_max":669,"o":"m 552 0 l -5 0 l 9 73 l 565 73 l 552 0 m 433 437 l 68 437 l 81 510 l 446 510 l 433 437 m 285 704 l 222 252 q 196 140 215 195 q 134 45 178 85 l 62 73 q 109 118 92 86 q 133 185 125 149 q 145 251 141 222 l 208 705 q 250 846 218 777 q 339 960 282 916 q 479 1002 395 1004 q 595 960 553 999 q 653 862 637 922 q 663 738 669 802 l 586 738 q 583 825 591 782 q 548 898 574 869 q 468 929 521 928 q 370 895 408 931 q 312 806 332 859 q 285 704 291 753 z "},"¤":{"ha":975,"x_min":9,"x_max":974,"o":"m 172 407 q 177 284 164 345 q 223 175 191 224 q 307 95 256 125 q 426 64 358 65 q 563 91 498 62 q 678 170 627 119 q 761 285 728 221 q 802 418 793 349 q 798 540 811 480 q 752 649 785 600 q 668 728 720 699 q 549 760 617 758 q 413 733 477 762 q 298 654 349 704 q 214 539 247 604 q 172 407 182 475 m 96 407 q 145 571 106 492 q 246 710 184 649 q 386 805 307 770 q 554 838 465 840 q 704 800 639 836 q 811 705 768 764 q 871 571 853 645 q 880 418 889 497 q 831 254 870 332 q 730 115 792 176 q 589 19 668 54 q 422 -14 511 -16 q 273 24 337 -12 q 165 120 208 60 q 104 254 122 180 q 96 407 87 328 m 974 793 l 819 658 l 768 723 l 923 858 l 974 793 m 212 118 l 58 -18 l 9 46 l 164 182 l 212 118 m 779 -19 l 665 125 l 730 183 l 844 38 l 779 -19 m 252 658 l 140 802 l 203 858 l 315 713 l 252 658 z "},"¥":{"ha":612,"x_min":41,"x_max":690,"o":"m 551 480 l 539 418 l 76 418 l 87 480 l 551 480 m 515 281 l 505 220 l 41 220 l 54 281 l 515 281 m 305 479 l 600 988 l 690 988 l 345 418 l 290 418 l 305 479 m 208 988 l 332 473 l 325 418 l 273 418 l 129 987 l 208 988 m 359 497 l 273 0 l 195 0 l 281 497 l 359 497 z "},"¦":{"ha":293,"x_min":3,"x_max":286,"o":"m 83 -183 l 3 -183 l 93 341 l 175 341 l 83 -183 m 286 987 l 197 473 l 116 473 l 206 987 l 286 987 z "},"§":{"ha":713,"x_min":-14,"x_max":682,"o":"m 342 88 l 349 142 q 437 162 395 144 q 506 213 478 179 q 541 296 534 246 q 533 371 546 340 q 493 424 519 401 q 432 464 467 447 q 363 494 398 480 q 276 534 316 512 q 209 587 237 557 q 166 657 180 616 q 157 754 153 699 q 187 859 162 812 q 253 938 212 905 q 345 986 294 970 q 452 1001 395 1002 q 589 959 538 999 q 662 853 641 919 q 675 709 682 787 l 601 709 q 593 813 606 762 q 545 896 581 863 q 448 931 510 929 q 346 912 393 932 q 270 852 300 892 q 233 756 240 812 q 239 682 228 713 q 273 631 250 652 q 329 594 296 610 q 397 564 361 578 q 487 522 445 544 q 559 470 529 500 q 606 398 590 440 q 617 298 621 356 q 588 203 612 242 q 525 139 564 163 q 439 102 487 114 q 342 88 392 90 m 329 581 l 323 526 q 237 506 275 524 q 173 454 198 488 q 142 370 148 420 q 149 293 136 324 q 186 240 161 262 q 245 202 212 218 q 317 172 279 186 q 404 131 364 153 q 472 79 444 109 q 514 8 500 49 q 524 -88 528 -33 q 495 -195 519 -148 q 429 -273 470 -241 q 338 -321 389 -304 q 229 -336 288 -338 q 117 -312 164 -334 q 41 -250 71 -290 q -2 -157 11 -210 q -7 -43 -14 -104 l 67 -42 q 71 -126 63 -86 q 98 -196 78 -165 q 151 -246 117 -227 q 233 -264 185 -264 q 334 -245 288 -267 q 411 -185 380 -224 q 450 -90 442 -145 q 442 -19 454 -49 q 406 33 430 11 q 352 70 382 54 q 286 99 321 86 q 195 140 237 117 q 122 194 153 163 q 76 268 91 225 q 64 368 60 311 q 92 462 69 422 q 151 528 115 502 q 234 566 188 553 q 329 581 279 578 z "},"¨":{"ha":580,"x_min":173,"x_max":574,"o":"m 174 947 q 192 985 176 969 q 232 1003 209 1002 q 271 986 255 1002 q 285 947 286 970 q 266 908 283 924 q 227 891 250 892 q 188 907 203 891 q 174 947 173 923 m 462 946 q 480 985 463 968 q 519 1002 496 1002 q 558 986 543 1002 q 572 946 574 970 q 554 907 570 923 q 515 890 537 891 q 476 906 491 890 q 462 946 460 922 z "},"©":{"ha":1078,"x_min":73,"x_max":1029,"o":"m 675 411 l 739 412 q 669 255 728 315 q 509 198 610 195 q 393 239 437 200 q 333 338 350 278 q 321 461 316 397 l 328 528 q 367 656 336 595 q 452 754 398 717 q 581 790 505 792 q 724 729 677 788 q 764 577 771 671 l 697 578 q 676 685 703 644 q 578 728 648 727 q 484 700 522 730 q 425 624 446 670 q 397 528 404 578 l 389 460 q 394 371 385 416 q 430 294 402 326 q 511 261 458 262 q 624 301 586 258 q 675 411 662 343 m 143 490 q 150 330 132 408 q 212 188 168 252 q 322 86 255 124 q 478 46 389 47 q 654 80 572 43 q 801 182 736 117 q 907 328 866 246 q 960 500 949 410 q 953 659 970 581 q 891 800 935 737 q 780 902 848 863 q 624 941 713 940 q 448 907 530 943 q 301 806 366 870 q 195 660 236 742 q 143 490 153 578 m 83 490 q 141 684 96 591 q 260 849 187 777 q 426 962 333 921 q 625 1001 519 1004 q 804 957 726 1000 q 934 843 882 914 q 1007 683 985 772 q 1019 498 1029 594 q 961 305 1008 398 q 843 140 915 212 q 677 25 770 67 q 477 -14 584 -16 q 298 30 376 -13 q 169 145 220 73 q 95 306 117 217 q 83 490 73 395 z "},"ª":{"ha":528,"x_min":134,"x_max":494,"o":"m 387 584 l 422 816 q 421 869 425 842 q 404 915 418 896 q 357 935 390 934 q 282 910 310 937 q 245 840 254 883 l 178 844 q 210 927 185 891 q 273 984 235 964 q 361 1002 311 1004 q 443 973 413 1001 q 483 902 473 945 q 490 814 494 859 l 457 601 q 450 539 452 570 q 451 478 448 509 l 386 478 q 387 584 380 530 m 437 774 l 429 717 l 340 718 q 277 706 307 717 q 228 673 248 695 q 205 614 209 650 q 219 555 201 578 q 275 533 237 533 q 332 548 304 533 q 379 586 359 563 q 408 635 399 609 l 412 580 q 376 524 398 549 q 325 483 355 498 q 261 467 296 467 q 166 509 198 467 q 136 612 134 551 q 169 705 139 669 q 243 758 198 741 q 341 774 288 775 l 437 774 z "},"«":{"ha":551,"x_min":69,"x_max":520,"o":"m 346 629 l 146 362 l 72 362 l 72 371 l 277 629 l 346 629 m 142 368 l 253 100 l 191 101 l 69 358 l 70 368 l 142 368 m 520 629 l 320 362 l 246 362 l 246 371 l 451 629 l 520 629 m 317 368 l 427 100 l 365 101 l 243 358 l 244 368 l 317 368 z "},"¬":{"ha":646,"x_min":90,"x_max":555,"o":"m 555 528 l 542 454 l 90 454 l 102 528 l 555 528 m 548 486 l 509 262 l 433 262 l 473 486 l 548 486 z "},"®":{"ha":1080,"x_min":70,"x_max":1027,"o":"m 570 452 l 410 452 l 418 515 l 559 514 q 624 527 593 515 q 676 563 655 539 q 702 622 698 586 q 693 684 707 662 q 650 715 678 706 q 588 724 623 724 l 479 725 l 399 218 l 333 218 l 423 788 l 587 787 q 681 769 638 786 q 747 716 723 751 q 767 624 771 681 q 743 550 764 579 q 688 503 721 522 q 617 470 654 485 q 613 468 615 469 q 608 465 610 467 q 595 458 601 461 q 584 453 590 455 q 570 452 578 452 m 556 452 l 570 496 q 682 458 642 495 q 715 346 721 420 l 711 314 q 710 271 709 292 q 711 229 711 250 l 709 218 l 644 218 q 641 267 640 242 q 645 316 642 291 l 648 347 q 631 424 653 401 q 556 452 610 448 m 139 490 q 146 329 129 408 q 208 187 163 251 q 319 85 252 123 q 475 45 387 47 q 652 80 570 43 q 799 182 734 117 q 905 328 864 246 q 958 500 947 410 q 950 659 968 581 q 889 801 932 737 q 778 902 845 864 q 621 941 710 940 q 445 907 528 943 q 298 806 363 870 q 191 660 233 742 q 139 490 150 578 m 81 490 q 138 684 92 591 q 257 849 184 777 q 423 962 330 921 q 622 1001 516 1004 q 801 957 723 1000 q 931 843 880 914 q 1005 683 983 772 q 1016 498 1027 594 q 959 305 1004 398 q 840 140 913 212 q 674 25 767 67 q 475 -15 581 -16 q 295 30 374 -13 q 165 145 217 73 q 92 306 114 216 q 81 490 70 395 z "},"¯":{"ha":516,"x_min":167,"x_max":528,"o":"m 528 978 l 517 910 l 167 910 l 178 978 l 528 978 z "},"°":{"ha":510,"x_min":167,"x_max":490,"o":"m 168 825 q 194 912 170 872 q 258 978 218 953 q 346 1002 298 1002 q 422 977 390 1001 q 473 917 455 954 q 488 838 490 880 q 463 751 486 791 q 401 687 440 711 q 315 663 362 663 q 236 687 270 664 q 185 746 203 709 q 168 825 167 783 m 229 827 q 250 756 224 786 q 315 727 275 726 q 393 760 361 727 q 429 836 425 793 q 409 908 432 876 q 344 939 387 939 q 265 905 298 939 q 229 827 232 871 z "},"±":{"ha":627,"x_min":20,"x_max":593,"o":"m 593 564 l 582 493 l 75 493 l 85 564 l 593 564 m 426 859 l 322 196 l 254 196 l 357 859 l 426 859 m 496 71 l 484 0 l 20 0 l 33 71 l 496 71 z "},"²":{"ha":443,"x_min":72,"x_max":438,"o":"m 403 511 l 392 452 l 72 452 l 82 507 l 271 696 q 311 740 290 716 q 347 790 332 764 q 366 846 363 817 q 355 908 370 882 q 300 935 340 935 q 224 902 250 936 q 189 825 199 869 l 124 825 q 154 911 131 871 q 213 973 176 950 q 301 996 250 996 q 376 976 345 995 q 422 923 407 956 q 435 846 438 890 q 412 769 433 805 q 362 703 391 734 q 305 644 333 672 l 168 511 l 403 511 z "},"³":{"ha":443,"x_min":86,"x_max":444,"o":"m 219 751 l 262 751 q 316 764 292 752 q 356 796 340 775 q 375 848 372 817 q 360 910 379 885 q 302 935 340 935 q 235 909 260 935 q 199 846 209 884 l 133 846 q 163 924 140 890 q 221 977 185 958 q 301 996 256 996 q 377 976 345 994 q 427 926 410 958 q 442 850 444 894 q 415 773 440 804 q 351 727 389 743 q 273 711 313 711 l 214 711 l 219 751 m 212 695 l 216 734 l 267 735 q 341 719 309 733 q 392 676 374 705 q 408 603 410 648 q 382 518 406 554 q 319 462 358 481 q 233 444 281 443 q 153 465 186 444 q 103 520 120 485 q 87 602 86 555 l 152 602 q 172 533 151 559 q 236 505 193 506 q 311 532 281 505 q 346 605 341 560 q 338 654 349 635 q 308 684 328 674 q 258 694 288 693 l 212 695 z "},"´":{"ha":380,"x_min":148,"x_max":406,"o":"m 148 852 l 304 1042 l 406 1041 l 224 852 l 148 852 z "},"µ":{"ha":659,"x_min":-18,"x_max":615,"o":"m 541 734 l 615 734 l 488 0 l 419 0 l 443 174 l 541 734 m 485 341 l 517 342 q 493 227 509 289 q 450 108 478 164 q 375 18 422 52 q 259 -14 329 -16 q 170 16 204 -13 q 119 89 136 44 q 101 183 102 134 l 111 305 l 160 305 q 155 232 157 274 q 161 151 154 190 q 190 84 168 111 q 259 56 213 57 q 361 79 321 54 q 426 148 401 104 q 464 241 450 191 q 485 341 477 292 m 159 734 l 233 734 l 56 -282 l -18 -282 l 159 734 z "},"¶":{"ha":568,"x_min":96,"x_max":561,"o":"m 389 0 l 315 0 l 376 353 l 327 354 q 187 401 239 356 q 115 516 135 446 q 102 665 96 586 q 153 828 112 754 q 262 945 193 901 q 425 989 331 989 l 561 987 l 389 0 z "},"·":{"ha":309,"x_min":114,"x_max":218,"o":"m 115 488 q 131 526 117 509 q 170 545 146 544 q 206 527 194 545 q 218 488 218 509 q 201 448 215 466 q 163 430 186 431 q 127 447 140 429 q 115 488 114 465 z "},"¸":{"ha":303,"x_min":-44,"x_max":142,"o":"m 24 0 l 82 0 l 68 -45 q 125 -84 109 -54 q 141 -155 142 -114 q 123 -220 139 -193 q 80 -263 106 -246 q 22 -288 54 -279 q -44 -297 -10 -296 l -43 -241 q 10 -232 -16 -240 q 56 -205 37 -224 q 79 -156 75 -186 q 71 -115 82 -128 q 39 -96 60 -101 q -3 -87 19 -90 l 24 0 z "},"¹":{"ha":443,"x_min":159,"x_max":372,"o":"m 372 987 l 283 452 l 216 452 l 293 896 l 159 850 l 170 916 l 361 986 l 372 987 z "},"º":{"ha":537,"x_min":135,"x_max":514,"o":"m 139 702 l 146 767 q 178 880 153 825 q 248 969 203 934 q 357 1002 292 1004 q 454 963 420 1000 q 502 874 489 927 q 509 768 514 821 l 503 702 q 471 590 496 644 q 402 500 446 535 q 292 468 357 465 q 195 505 230 469 q 148 595 161 541 q 139 702 135 648 m 215 768 l 208 701 q 210 628 205 667 q 234 562 214 589 q 298 533 254 535 q 372 558 342 532 q 415 624 401 585 q 435 702 430 663 l 442 768 q 440 840 445 802 q 415 907 435 879 q 352 936 395 935 q 278 911 307 937 q 235 845 250 884 q 215 768 220 806 z "},"»":{"ha":549,"x_min":20,"x_max":477,"o":"m 21 110 l 220 376 l 295 376 l 294 367 l 91 110 l 21 110 m 118 641 l 178 641 l 298 381 l 297 370 l 222 371 l 118 641 m 200 110 l 399 376 l 474 376 l 473 367 l 270 110 l 200 110 m 297 641 l 357 641 l 477 381 l 476 370 l 401 371 l 297 641 z "},"¼":{"ha":854,"x_min":149,"x_max":753,"o":"m 363 986 l 275 450 l 206 450 l 284 895 l 150 850 l 161 916 l 353 985 l 363 986 m 718 858 l 194 88 l 151 125 l 675 892 l 718 858 m 753 188 l 741 127 l 393 127 l 396 172 l 673 535 l 731 535 l 644 409 l 471 188 l 753 188 m 742 535 l 653 0 l 585 0 l 680 535 l 742 535 z "},"½":{"ha":893,"x_min":127,"x_max":788,"o":"m 694 858 l 170 88 l 127 125 l 652 892 l 694 858 m 355 986 l 267 450 l 198 450 l 276 895 l 142 850 l 153 916 l 345 985 l 355 986 m 753 60 l 742 0 l 422 0 l 432 56 l 621 245 q 661 289 640 265 q 697 339 682 313 q 716 395 713 366 q 705 457 720 431 q 650 484 690 484 q 575 451 600 485 q 540 374 549 418 l 475 374 q 504 460 481 420 q 564 522 526 499 q 651 544 601 545 q 726 525 695 544 q 772 472 757 505 q 785 395 788 439 q 762 318 783 354 q 712 252 741 283 q 656 193 684 221 l 519 60 l 753 60 z "},"¾":{"ha":912,"x_min":112,"x_max":814,"o":"m 796 858 l 273 88 l 229 125 l 754 892 l 796 858 m 814 188 l 803 127 l 454 127 l 458 172 l 735 535 l 793 535 l 706 409 l 532 188 l 814 188 m 804 535 l 715 0 l 647 0 l 741 535 l 804 535 m 245 751 l 288 751 q 342 764 318 752 q 383 796 367 775 q 401 848 399 817 q 387 910 406 885 q 328 935 368 935 q 261 909 287 935 q 225 846 236 884 l 159 846 q 189 924 166 890 q 247 977 211 958 q 328 995 282 996 q 404 977 371 995 q 454 926 436 959 q 469 849 471 893 q 441 773 467 804 q 378 727 416 743 q 298 711 340 711 l 241 711 l 245 751 m 238 695 l 243 735 l 294 734 q 368 719 335 734 q 418 676 400 705 q 435 602 437 648 q 409 518 433 554 q 346 462 385 481 q 259 444 307 442 q 179 465 212 445 q 129 520 146 485 q 114 601 112 555 l 179 601 q 198 533 176 559 q 263 505 219 506 q 338 532 308 505 q 372 604 368 560 q 365 655 375 635 q 334 684 355 674 q 285 694 313 693 l 238 695 z "},"¿":{"ha":549,"x_min":-16,"x_max":415,"o":"m 258 466 l 327 467 q 307 379 321 417 q 270 306 294 340 q 212 237 247 272 q 145 163 176 200 q 93 83 114 126 q 66 -12 72 41 q 70 -93 62 -53 q 102 -160 77 -134 q 176 -188 127 -186 q 260 -164 226 -189 q 314 -98 294 -138 q 342 -15 334 -58 l 415 -14 q 375 -137 406 -80 q 294 -228 345 -194 q 170 -260 243 -262 q 58 -223 100 -258 q 0 -131 16 -187 q -11 -12 -16 -75 q 22 106 -5 52 q 89 207 50 160 q 174 297 129 254 q 216 347 200 321 q 242 402 232 373 q 258 466 252 432 m 380 692 q 365 654 378 672 q 328 636 351 637 q 293 653 306 635 q 281 692 280 671 q 298 730 283 713 q 334 748 312 747 q 369 731 357 748 q 380 692 381 714 z "},"Æ":{"ha":1062,"x_min":-54,"x_max":1095,"o":"m 637 916 l 42 0 l -54 0 l 604 988 l 659 988 l 637 916 m 594 342 l 580 263 l 189 263 l 203 342 l 594 342 m 970 71 l 958 0 l 550 0 l 563 71 l 970 71 m 709 987 l 572 0 l 497 0 l 634 987 l 709 987 m 974 550 l 962 479 l 612 479 l 624 550 l 974 550 m 1095 987 l 1082 917 l 675 917 l 689 987 l 1095 987 z "},"×":{"ha":621,"x_min":16,"x_max":578,"o":"m 58 71 l 16 130 l 536 667 l 578 606 l 58 71 m 448 71 l 106 614 l 162 667 l 502 122 l 448 71 z "},"Ø":{"ha":795,"x_min":22,"x_max":828,"o":"m 828 1021 l 92 -56 l 22 -56 l 764 1021 l 828 1021 m 736 546 l 720 442 q 681 285 709 366 q 607 136 653 205 q 494 25 562 66 q 334 -14 426 -16 q 216 18 263 -12 q 139 96 168 47 q 97 204 110 145 q 82 325 83 263 q 89 442 81 387 l 104 546 q 144 703 116 622 q 218 852 172 783 q 333 962 265 920 q 492 1001 400 1004 q 610 969 562 999 q 687 891 658 940 q 729 784 715 843 q 743 664 742 725 q 736 546 744 602 m 644 442 l 661 549 q 668 640 667 590 q 662 740 669 690 q 635 831 655 789 q 579 899 616 873 q 487 928 543 926 q 359 895 412 930 q 269 800 305 859 q 212 674 233 741 q 182 547 191 607 l 166 441 q 159 350 160 400 q 165 250 158 300 q 192 158 172 200 q 247 90 211 116 q 338 61 282 64 q 468 94 414 58 q 558 188 522 130 q 615 314 594 247 q 644 442 635 380 z "},"Þ":{"ha":696,"x_min":41,"x_max":644,"o":"m 213 987 l 288 987 l 116 0 l 41 0 l 213 987 m 214 783 l 419 781 q 549 742 498 779 q 622 642 600 704 q 637 505 644 580 q 590 357 630 422 q 484 256 550 292 q 333 219 418 219 l 130 220 l 142 290 l 336 289 q 447 318 399 290 q 526 396 496 347 q 563 505 555 445 q 556 604 569 557 q 509 679 543 650 q 418 711 475 709 l 235 712 l 214 783 z "},"ß":{"ha":691,"x_min":24,"x_max":592,"o":"m 229 765 l 99 0 l 24 0 l 155 764 q 178 867 162 816 q 223 959 195 918 q 295 1026 252 1001 q 398 1048 338 1050 q 495 1019 456 1047 q 551 945 534 991 q 564 844 569 899 q 545 767 560 803 q 511 697 530 731 q 476 628 492 663 q 454 553 460 593 q 461 481 448 514 q 496 418 475 448 q 541 357 518 387 q 577 291 563 326 q 589 215 592 256 q 553 98 585 151 q 469 14 521 45 q 350 -15 416 -16 q 291 -7 321 -14 q 233 11 260 -1 q 182 42 205 23 l 211 111 q 273 71 237 86 q 345 56 309 56 q 427 76 391 55 q 487 134 464 98 q 515 214 511 170 q 506 288 520 254 q 470 351 492 321 q 426 412 448 381 q 389 477 404 442 q 379 553 375 511 q 398 629 382 593 q 434 697 414 664 q 469 765 453 730 q 489 840 485 800 q 485 903 492 871 q 455 956 477 935 q 397 979 434 977 q 304 948 338 982 q 253 863 269 913 q 229 765 236 812 z "},"æ":{"ha":983,"x_min":20,"x_max":940,"o":"m 391 123 l 452 490 q 451 573 456 530 q 422 646 446 616 q 349 677 399 675 q 263 658 300 679 q 201 601 225 637 q 169 519 177 565 l 96 528 q 124 619 102 578 q 181 690 146 660 q 259 734 215 720 q 355 749 303 749 q 467 707 427 746 q 519 608 507 667 q 525 487 532 549 l 469 146 l 391 123 m 466 430 l 454 363 l 301 364 q 205 342 249 363 q 133 283 162 321 q 99 192 104 245 q 106 122 96 153 q 143 73 117 92 q 210 55 170 55 q 272 65 239 55 q 334 95 304 76 q 385 139 363 113 q 418 193 408 165 l 455 140 q 389 56 429 91 q 298 4 349 22 q 193 -14 248 -14 q 94 16 134 -13 q 38 91 55 44 q 24 195 20 138 q 51 297 28 253 q 112 371 74 341 q 198 416 149 401 q 302 430 246 431 l 466 430 m 648 -12 q 531 22 576 -12 q 463 109 486 56 q 434 224 440 162 q 435 344 429 286 l 439 381 q 469 505 447 440 q 528 626 491 570 q 619 716 566 682 q 743 747 672 750 q 847 717 807 746 q 909 641 888 688 q 935 540 930 595 q 934 432 940 486 l 924 364 l 477 364 l 489 432 l 859 432 l 862 454 q 861 552 868 501 q 826 640 854 604 q 737 677 797 675 q 642 650 682 680 q 575 575 602 621 q 532 476 548 528 q 511 380 517 425 l 507 345 q 503 253 501 302 q 518 160 504 204 q 564 87 532 116 q 652 57 595 59 q 753 79 707 56 q 842 136 800 102 l 864 75 q 801 25 836 45 q 727 -4 766 5 q 648 -12 688 -14 z "},"ð":{"ha":686,"x_min":74,"x_max":657,"o":"m 275 1000 l 304 1071 q 471 961 406 1029 q 569 807 536 893 q 608 622 602 720 q 602 424 615 524 l 593 363 q 563 238 584 304 q 505 113 541 172 q 415 19 469 55 q 289 -14 362 -16 q 183 18 226 -12 q 115 96 140 48 q 82 200 91 144 q 79 310 74 256 q 105 432 85 370 q 160 545 125 494 q 247 627 195 596 q 369 655 299 659 q 481 617 435 653 q 549 524 527 581 q 564 407 570 468 l 533 404 q 528 472 538 440 q 497 529 518 504 q 447 568 477 553 q 379 583 416 582 q 283 561 323 585 q 216 495 243 536 q 174 406 190 454 q 154 311 159 357 q 154 230 150 273 q 173 148 157 187 q 219 84 189 109 q 298 57 250 60 q 392 86 353 55 q 457 165 431 117 q 497 267 482 214 q 518 363 511 320 l 526 425 q 534 601 538 515 q 503 763 530 687 q 420 900 476 840 q 275 1000 365 961 m 657 958 l 340 745 l 315 800 l 633 1011 l 657 958 z "},"÷":{"ha":670,"x_min":56,"x_max":626,"o":"m 626 517 l 610 435 l 56 435 l 71 517 l 626 517 m 341 739 q 357 779 342 761 q 395 798 372 796 q 431 780 418 798 q 442 739 444 762 q 426 700 441 717 q 389 682 412 682 q 352 699 365 681 q 341 739 340 716 m 248 197 q 262 237 248 219 q 300 256 277 255 q 337 238 325 256 q 348 197 350 220 q 332 158 347 176 q 294 140 317 141 q 258 157 271 140 q 248 197 245 175 z "},"ø":{"ha":659,"x_min":33,"x_max":616,"o":"m 616 823 l 96 -94 l 33 -94 l 561 823 l 616 823 m 54 352 l 56 373 q 88 504 64 437 q 152 627 111 570 q 249 716 192 683 q 380 749 305 750 q 497 710 452 745 q 565 619 542 675 q 594 501 588 564 q 593 380 600 438 l 591 358 q 560 228 584 294 q 496 106 536 161 q 400 17 457 50 q 268 -14 342 -16 q 152 23 197 -12 q 84 114 107 58 q 54 231 61 169 q 54 352 47 294 m 132 373 l 129 351 q 127 261 125 311 q 142 165 128 212 q 188 89 157 119 q 273 56 218 58 q 375 83 332 55 q 447 158 418 111 q 493 257 475 204 q 517 358 511 311 l 519 379 q 522 470 524 419 q 506 567 520 520 q 461 644 492 613 q 375 677 429 675 q 274 651 317 680 q 201 575 231 622 q 155 474 172 528 q 132 373 138 420 z "},"þ":{"ha":665,"x_min":-20,"x_max":587,"o":"m 285 1042 l 55 -282 l -20 -282 l 210 1042 l 285 1042 m 581 378 l 579 363 q 553 240 572 307 q 502 115 535 174 q 418 20 469 56 q 296 -14 368 -16 q 200 13 240 -12 q 136 78 161 37 q 100 168 111 119 q 94 266 90 216 l 121 450 q 154 557 131 503 q 212 654 176 610 q 296 724 248 699 q 405 749 344 750 q 514 708 475 746 q 569 612 553 669 q 586 491 585 554 q 581 378 587 429 m 504 364 l 506 379 q 511 466 510 416 q 501 563 511 515 q 463 643 491 610 q 382 677 435 675 q 302 660 338 678 q 238 610 267 642 q 192 541 210 578 q 163 465 173 503 l 130 248 q 138 179 128 213 q 168 118 148 145 q 216 75 188 92 q 282 56 245 58 q 380 85 340 55 q 445 163 420 115 q 485 266 471 212 q 504 364 498 319 z "},"đ":{"ha":680,"x_min":57,"x_max":746,"o":"m 439 147 l 594 1042 l 669 1042 l 488 0 l 418 0 l 439 147 m 62 354 l 64 368 q 91 493 72 427 q 143 618 110 559 q 229 714 177 677 q 353 748 280 751 q 449 718 410 747 q 510 646 488 690 q 541 551 532 602 q 547 450 549 499 l 520 272 q 488 169 510 220 q 430 75 465 117 q 348 8 395 33 q 241 -15 301 -17 q 135 26 174 -12 q 79 122 96 64 q 59 242 62 180 q 62 354 57 304 m 142 370 l 140 355 q 135 269 136 319 q 143 172 134 220 q 180 92 153 124 q 260 58 207 60 q 360 84 315 56 q 435 158 404 112 q 478 254 466 204 l 512 465 q 505 537 513 500 q 478 604 497 573 q 431 655 460 635 q 361 675 401 674 q 264 648 304 677 q 199 570 224 618 q 161 469 174 522 q 142 370 147 416 m 746 923 l 733 852 l 391 852 l 404 923 l 746 923 z "},"Ħ":{"ha":809,"x_min":31,"x_max":845,"o":"m 845 764 l 833 696 l 77 696 l 89 764 l 845 764 m 665 546 l 652 473 l 173 473 l 185 546 l 665 546 m 279 987 l 109 0 l 31 0 l 203 987 l 279 987 m 804 987 l 633 0 l 556 0 l 728 987 l 804 987 z "},"ı":{"ha":283,"x_min":34,"x_max":237,"o":"m 237 734 l 109 0 l 34 0 l 161 734 l 237 734 z "},"ĸ":{"ha":644,"x_min":31,"x_max":636,"o":"m 235 734 l 106 0 l 31 0 l 159 734 l 235 734 m 636 734 l 271 336 l 138 336 l 142 410 l 242 410 l 538 734 l 636 734 m 440 0 l 229 351 l 283 411 l 528 0 l 440 0 z "},"Ł":{"ha":626,"x_min":29,"x_max":526,"o":"m 391 623 l 379 557 l 29 429 l 41 496 l 391 623 m 526 73 l 512 0 l 96 0 l 109 73 l 526 73 m 290 987 l 118 0 l 40 0 l 212 987 l 290 987 z "},"ł":{"ha":321,"x_min":33,"x_max":335,"o":"m 335 634 l 323 567 l 33 439 l 45 506 l 335 634 m 308 1042 l 127 0 l 52 0 l 233 1042 l 308 1042 z "},"Ŋ":{"ha":818,"x_min":40,"x_max":811,"o":"m 211 987 l 289 987 l 117 0 l 40 0 l 211 987 m 225 941 l 286 989 l 625 47 l 566 0 l 225 941 m 734 987 l 811 987 l 632 -58 q 602 -173 625 -117 q 536 -264 579 -229 q 424 -298 492 -300 q 389 -294 406 -298 q 357 -283 373 -290 l 372 -213 q 399 -222 385 -218 q 428 -227 414 -226 q 498 -199 473 -227 q 536 -133 524 -172 q 555 -58 549 -94 l 734 987 z "},"ŋ":{"ha":659,"x_min":28,"x_max":569,"o":"m 202 574 l 103 0 l 28 0 l 155 734 l 222 734 l 202 574 m 147 383 l 126 382 q 153 505 134 441 q 203 625 171 568 q 284 716 235 681 q 407 749 334 751 q 502 718 467 747 q 551 644 536 689 q 568 547 566 598 q 564 448 569 496 l 481 -60 q 451 -174 473 -119 q 386 -264 428 -229 q 276 -298 343 -299 q 238 -294 256 -298 q 202 -283 220 -290 l 218 -213 q 249 -221 234 -218 q 281 -225 264 -224 q 350 -200 324 -227 q 389 -134 376 -173 q 407 -60 402 -95 l 488 448 q 493 520 493 481 q 485 594 494 559 q 453 652 477 629 q 385 677 430 675 q 283 651 325 679 q 215 579 242 624 q 172 483 188 534 q 147 383 157 431 z "},"Œ":{"ha":1087,"x_min":62,"x_max":1107,"o":"m 467 1003 q 554 998 511 1002 q 642 987 598 993 l 633 915 q 549 928 591 924 q 465 934 507 933 q 347 904 396 935 q 263 824 297 874 q 209 715 229 774 q 179 598 189 656 l 147 390 q 142 286 141 342 q 159 179 143 230 q 210 94 174 128 q 309 58 246 60 q 397 62 353 58 q 484 73 441 66 l 477 0 q 391 -9 434 -5 q 306 -13 349 -14 q 177 28 227 -11 q 101 127 127 66 q 68 257 75 188 q 71 391 62 327 l 103 597 q 141 741 114 669 q 213 872 168 812 q 321 967 257 931 q 467 1003 385 1003 m 953 73 l 939 0 l 490 0 l 503 73 l 953 73 m 684 987 l 512 0 l 434 0 l 606 987 l 684 987 m 977 546 l 964 473 l 572 473 l 585 546 l 977 546 m 1107 987 l 1094 915 l 648 915 l 661 987 l 1107 987 z "},"œ":{"ha":1068,"x_min":52,"x_max":1028,"o":"m 727 -12 q 614 23 658 -12 q 548 112 570 58 q 518 228 525 166 q 518 344 511 289 l 522 381 q 552 504 530 439 q 613 625 575 569 q 705 715 651 681 q 829 749 759 750 q 933 718 892 746 q 995 642 974 689 q 1022 541 1017 595 q 1021 433 1028 487 l 1011 364 l 563 364 l 575 435 l 947 434 l 949 456 q 948 552 956 502 q 910 639 939 603 q 823 677 881 675 q 729 650 769 680 q 662 575 689 621 q 618 477 634 528 q 596 382 602 426 l 591 346 q 589 259 587 307 q 604 165 590 210 q 647 90 617 120 q 729 58 677 59 q 833 77 786 56 q 920 138 880 99 l 945 79 q 846 8 903 31 q 727 -12 789 -15 m 57 351 l 60 373 q 90 503 67 437 q 153 626 113 570 q 249 717 192 683 q 380 748 305 751 q 496 710 452 745 q 563 619 541 674 q 591 500 585 564 q 590 380 596 437 l 587 358 q 557 228 580 294 q 495 106 534 161 q 399 17 455 50 q 268 -14 342 -16 q 153 23 197 -12 q 85 114 108 59 q 57 232 62 169 q 57 351 52 294 m 135 374 l 132 351 q 129 261 127 311 q 144 166 131 212 q 188 89 157 120 q 273 56 218 58 q 373 83 331 54 q 445 158 416 111 q 490 258 474 204 q 513 357 507 311 l 515 379 q 519 469 520 419 q 504 566 517 519 q 460 644 491 613 q 374 677 429 675 q 274 650 317 680 q 203 574 232 621 q 158 474 174 527 q 135 374 142 420 z "},"ſ":{"ha":288,"x_min":33,"x_max":462,"o":"m 108 0 l 33 0 l 174 825 q 204 938 181 884 q 271 1026 228 992 q 382 1059 315 1060 q 422 1054 403 1058 q 462 1045 442 1050 l 446 977 q 418 985 432 982 q 389 988 404 988 q 314 963 343 988 q 270 901 286 939 q 250 825 255 864 l 108 0 z "},"Ə":{"ha":817,"x_min":71,"x_max":771,"o":"m 347 -14 q 201 27 258 -12 q 115 130 144 66 q 79 268 86 193 q 81 418 71 344 l 95 503 l 708 503 l 695 432 l 162 432 l 155 395 q 152 281 148 340 q 177 173 156 222 q 240 93 198 124 q 352 60 283 61 q 483 96 427 58 q 577 195 539 134 q 638 326 615 256 q 670 456 661 395 l 684 546 q 690 671 692 606 q 667 795 688 737 q 602 889 647 852 q 480 927 557 926 q 356 906 414 928 q 243 848 298 884 l 227 913 q 303 964 261 945 q 391 992 346 983 q 483 1000 437 1001 q 635 957 576 999 q 725 848 694 916 q 764 702 756 781 q 761 545 771 622 l 747 457 q 705 297 735 380 q 626 143 675 214 q 507 27 577 71 q 347 -14 437 -16 z "},"ƒ":{"ha":400,"x_min":-123,"x_max":491,"o":"m 398 734 l 387 666 l 257 666 l 146 -60 q 117 -174 139 -119 q 53 -264 96 -229 q -57 -298 11 -300 q -91 -294 -75 -298 q -123 -283 -107 -290 l -109 -216 q -81 -224 -95 -221 q -52 -227 -67 -227 q 16 -200 -9 -228 q 54 -134 42 -173 q 71 -60 66 -95 l 182 666 l 83 666 l 95 734 l 193 734 l 204 825 q 234 938 211 884 q 301 1025 258 991 q 411 1057 344 1059 q 451 1053 431 1057 q 491 1043 471 1049 l 475 976 q 445 983 460 981 q 414 985 430 985 q 342 961 370 985 q 300 900 314 937 q 279 825 286 863 l 267 734 l 398 734 z "},"Ơ":{"ha":814,"x_min":83,"x_max":922,"o":"m 859 1063 l 922 1063 q 889 932 913 991 q 816 839 865 873 q 687 802 768 804 l 695 866 q 786 897 753 869 q 834 968 819 924 q 859 1063 850 1013 m 738 546 l 722 442 q 683 285 710 366 q 609 135 655 204 q 495 25 563 66 q 335 -14 427 -16 q 217 18 265 -12 q 140 96 169 47 q 98 204 112 145 q 84 325 85 263 q 90 442 83 387 l 106 546 q 145 702 117 621 q 220 851 174 783 q 334 962 267 920 q 493 1001 401 1004 q 612 969 564 999 q 688 891 660 940 q 730 784 717 843 q 744 663 743 724 q 738 546 745 602 m 646 442 l 662 549 q 669 640 668 590 q 664 740 671 690 q 637 831 656 789 q 581 899 617 873 q 488 927 545 925 q 360 894 414 930 q 271 800 307 858 q 214 674 235 741 q 183 547 193 607 l 168 441 q 160 350 161 400 q 166 250 159 300 q 193 158 174 200 q 248 89 212 116 q 340 60 283 62 q 469 94 415 58 q 559 188 524 130 q 616 313 595 246 q 646 442 637 380 z "},"ơ":{"ha":663,"x_min":47,"x_max":740,"o":"m 680 813 l 740 813 q 711 699 732 748 q 649 621 690 649 q 537 590 608 592 l 544 648 q 621 674 594 651 q 660 733 647 697 q 680 813 672 770 m 54 351 l 56 373 q 88 504 64 437 q 152 627 111 570 q 249 717 192 684 q 380 748 305 751 q 497 710 452 745 q 565 619 542 675 q 594 501 588 564 q 593 380 600 438 l 591 358 q 559 228 583 294 q 496 106 536 161 q 399 17 456 50 q 268 -14 342 -16 q 152 23 197 -12 q 84 113 107 58 q 54 231 60 168 q 54 351 47 294 m 132 373 l 129 351 q 127 261 125 311 q 142 165 128 212 q 188 89 157 119 q 273 56 218 58 q 375 83 332 55 q 447 158 418 112 q 493 257 475 204 q 516 358 511 311 l 519 379 q 522 470 524 419 q 506 567 520 520 q 461 644 492 613 q 375 677 429 675 q 274 651 317 680 q 201 575 231 622 q 155 474 172 528 q 132 373 138 420 z "},"Ư":{"ha":800,"x_min":77,"x_max":966,"o":"m 903 1047 l 966 1047 q 930 908 956 968 q 852 814 903 848 q 714 778 800 780 l 722 842 q 822 872 786 844 q 876 945 858 899 q 903 1047 894 991 m 694 987 l 772 987 l 657 320 q 603 153 645 229 q 490 30 561 76 q 321 -14 420 -16 q 172 37 227 -12 q 97 160 117 85 q 87 319 77 235 l 201 987 l 277 987 l 165 319 q 168 199 157 258 q 218 101 180 140 q 327 59 256 61 q 457 93 404 56 q 540 190 510 130 q 581 318 570 251 l 694 987 z "},"ư":{"ha":696,"x_min":68,"x_max":772,"o":"m 715 800 l 772 800 q 743 686 764 734 q 680 613 722 639 q 568 585 638 587 l 574 643 q 654 665 627 644 q 694 719 682 685 q 715 800 707 753 m 437 172 l 534 734 l 609 734 l 481 0 l 410 0 l 437 172 m 475 306 l 508 308 q 482 190 500 248 q 431 85 464 133 q 350 11 399 38 q 231 -14 300 -16 q 140 14 174 -12 q 90 80 106 39 q 71 170 73 121 q 73 264 68 218 l 152 734 l 227 734 l 148 262 q 146 198 145 232 q 155 133 146 164 q 185 81 163 101 q 245 58 206 60 q 366 92 319 56 q 438 186 412 128 q 475 306 464 244 z "},"ȷ":{"ha":290,"x_min":-165,"x_max":243,"o":"m 168 734 l 243 734 l 108 -60 q 78 -174 100 -118 q 12 -264 55 -229 q -98 -298 -31 -300 q -132 -294 -116 -298 q -165 -283 -149 -290 l -151 -216 q -123 -224 -137 -220 q -94 -228 -109 -227 q -24 -201 -50 -229 q 15 -135 1 -174 q 32 -60 28 -96 l 168 734 z "},"ə":{"ha":612,"x_min":41,"x_max":557,"o":"m 344 748 q 456 711 412 746 q 523 622 500 676 q 551 507 545 568 q 552 390 557 445 l 547 353 q 517 230 539 295 q 456 109 494 165 q 364 18 418 52 q 241 -14 310 -16 q 136 17 176 -12 q 75 93 96 47 q 47 193 54 138 q 48 301 41 248 l 58 370 l 507 370 l 494 300 l 123 300 l 119 279 q 122 182 114 233 q 159 95 130 131 q 246 56 189 58 q 340 84 300 54 q 408 160 380 114 q 451 259 435 207 q 472 353 467 311 l 477 389 q 480 476 481 427 q 465 569 478 524 q 422 645 452 614 q 340 677 392 675 q 237 657 283 679 q 149 597 190 635 l 125 655 q 224 726 167 703 q 344 748 281 749 z "},"ˆ":{"ha":522,"x_min":181,"x_max":495,"o":"m 386 1036 l 495 861 l 495 852 l 428 853 l 360 976 l 248 854 l 181 853 l 182 863 l 340 1036 l 386 1036 z "},"ˇ":{"ha":497,"x_min":198,"x_max":515,"o":"m 264 1031 l 332 903 l 449 1031 l 515 1031 l 515 1023 l 355 846 l 302 846 l 198 1025 l 199 1033 l 264 1031 z "},"ˉ":{"ha":524,"x_min":167,"x_max":528,"o":"m 528 978 l 517 910 l 167 910 l 178 978 l 528 978 z "},"˘":{"ha":570,"x_min":182,"x_max":564,"o":"m 498 1010 l 564 1012 q 530 917 558 956 q 459 856 503 877 q 359 836 415 835 q 231 885 279 838 q 186 1012 182 932 l 255 1012 q 279 927 252 958 q 361 895 305 897 q 453 926 418 895 q 498 1010 488 958 z "},"˙":{"ha":302,"x_min":188,"x_max":301,"o":"m 189 937 q 208 977 191 960 q 247 994 224 994 q 286 978 271 995 q 299 937 301 962 q 281 899 298 915 q 241 882 264 883 q 203 898 218 882 q 189 937 188 913 z "},"˚":{"ha":418,"x_min":170,"x_max":427,"o":"m 171 942 q 191 1009 172 978 q 239 1059 209 1040 q 307 1077 270 1078 q 393 1040 359 1077 q 426 952 427 1004 q 406 885 425 915 q 358 837 388 854 q 290 819 328 819 q 204 854 238 819 q 171 942 170 890 m 223 943 q 238 890 219 913 q 288 868 256 867 q 346 893 321 869 q 374 951 371 918 q 359 1005 377 981 q 310 1028 342 1029 q 251 1002 275 1027 q 223 943 226 977 z "},"˛":{"ha":315,"x_min":-43,"x_max":146,"o":"m 109 27 l 146 -2 q 95 -47 122 -23 q 48 -99 68 -71 q 26 -163 29 -128 q 31 -199 24 -183 q 60 -214 38 -214 q 92 -209 77 -216 q 120 -193 106 -202 l 123 -253 q 86 -274 106 -267 q 44 -282 66 -281 q -23 -248 -3 -282 q -41 -172 -43 -214 q -17 -90 -39 -126 q 40 -23 6 -53 q 109 27 74 6 z "},"˜":{"ha":527,"x_min":143,"x_max":544,"o":"m 491 1012 l 544 1008 q 526 940 540 975 q 486 883 512 906 q 420 861 460 861 q 378 873 397 861 q 344 900 359 885 q 311 926 328 915 q 271 937 294 938 q 222 910 238 937 q 201 857 207 884 l 143 859 q 162 927 148 893 q 202 984 176 961 q 268 1006 228 1007 q 310 995 292 1006 q 343 967 328 983 q 377 941 359 952 q 418 929 395 930 q 468 957 451 930 q 491 1012 485 985 z "},"˝":{"ha":453,"x_min":148,"x_max":560,"o":"m 292 836 l 467 1042 l 560 1042 l 372 836 l 292 836 m 148 836 l 293 1042 l 382 1042 l 219 836 l 148 836 z "},"˳":{"ha":368,"x_min":-1,"x_max":174,"o":"m 0 -160 q 26 -91 1 -123 q 91 -58 51 -59 q 151 -87 129 -58 q 173 -153 174 -117 q 148 -221 172 -191 q 83 -252 123 -252 q 22 -225 45 -253 q 0 -160 -1 -197 m 43 -159 q 51 -190 41 -176 q 78 -205 60 -205 q 113 -189 98 -205 q 132 -155 128 -173 q 124 -122 134 -138 q 96 -106 115 -106 q 60 -123 76 -106 q 43 -159 45 -140 z "},"̀":{"ha":0,"x_min":-322,"x_max":-162,"o":"m -241 1042 l -162 851 l -228 852 l -322 1042 l -241 1042 z "},"́":{"ha":0,"x_min":-258,"x_max":-22,"o":"m -258 852 l -118 1042 l -22 1042 l -188 852 l -258 852 z "},"̃":{"ha":0,"x_min":-393,"x_max":7,"o":"m -45 1012 l 7 1008 q -11 940 3 975 q -50 883 -24 906 q -117 861 -76 861 q -158 873 -140 861 q -193 900 -177 885 q -225 926 -208 915 q -265 937 -243 938 q -314 910 -298 937 q -336 857 -330 884 l -393 859 q -374 927 -389 893 q -334 984 -360 961 q -269 1006 -309 1007 q -227 995 -245 1006 q -193 967 -209 983 q -159 941 -177 952 q -119 929 -142 930 q -68 957 -85 930 q -45 1012 -52 985 z "},"̉":{"ha":0,"x_min":-262,"x_max":-85,"o":"m -202 837 l -262 838 l -249 923 q -204 932 -227 926 q -165 951 -181 938 q -146 991 -149 964 q -154 1023 -144 1011 q -178 1040 -163 1034 q -211 1047 -194 1045 q -241 1050 -227 1048 l -232 1103 q -180 1096 -206 1102 q -132 1077 -154 1089 q -98 1044 -111 1065 q -85 991 -85 1023 q -119 915 -89 942 q -196 880 -150 887 l -202 837 z "},"̏":{"ha":0,"x_min":-422,"x_max":-74,"o":"m -210 849 l -286 849 l -422 1029 l -325 1029 l -210 849 m -74 849 l -142 849 l -249 1029 l -160 1029 l -74 849 z "},"̣":{"ha":0,"x_min":-541,"x_max":-429,"o":"m -541 -157 q -522 -118 -538 -135 q -483 -100 -506 -102 q -444 -117 -459 -100 q -431 -157 -429 -134 q -449 -196 -432 -180 q -488 -212 -466 -212 q -527 -197 -512 -213 q -541 -157 -541 -181 z "},"΄":{"ha":342,"x_min":210,"x_max":377,"o":"m 210 870 l 295 1078 l 377 1078 l 269 870 l 210 870 z "},"΅":{"ha":575,"x_min":185,"x_max":573,"o":"m 348 958 l 401 1130 l 484 1130 l 410 958 l 348 958 m 187 947 q 202 984 189 967 q 239 1003 216 1002 q 274 986 262 1003 q 286 947 287 968 q 269 909 283 926 q 233 891 255 892 q 197 908 210 890 q 187 947 185 925 m 473 946 q 488 984 474 967 q 525 1002 503 1002 q 561 985 548 1003 q 571 946 573 968 q 555 908 570 925 q 519 890 541 891 q 483 907 496 890 q 473 946 471 924 z "},"·":{"ha":315,"x_min":114,"x_max":218,"o":"m 115 488 q 131 526 117 509 q 170 545 146 544 q 206 527 194 545 q 218 488 218 509 q 201 448 215 466 q 163 430 186 431 q 127 447 140 429 q 115 488 114 465 z "},"Γ":{"ha":652,"x_min":43,"x_max":704,"o":"m 704 987 l 691 915 l 280 915 l 121 0 l 43 0 l 215 987 l 704 987 z "},"Δ":{"ha":817,"x_min":-37,"x_max":705,"o":"m 503 893 l 48 0 l -37 0 l 475 988 l 530 988 l 503 893 m 627 0 l 490 904 l 496 987 l 547 987 l 705 0 l 627 0 m 657 73 l 644 0 l 22 0 l 36 73 l 657 73 z "},"∆":{"ha":817,"x_min":-37,"x_max":705,"o":"m 503 893 l 48 0 l -37 0 l 475 988 l 530 988 l 503 893 m 627 0 l 490 904 l 496 987 l 547 987 l 705 0 l 627 0 m 657 73 l 644 0 l 22 0 l 36 73 l 657 73 z "},"Θ":{"ha":790,"x_min":76,"x_max":739,"o":"m 569 528 l 556 458 l 252 458 l 264 528 l 569 528 m 732 546 l 715 442 q 676 285 704 366 q 602 135 648 203 q 488 25 556 66 q 329 -14 420 -16 q 210 18 258 -12 q 134 96 163 47 q 92 204 104 145 q 77 325 79 263 q 83 442 76 387 l 99 546 q 139 703 111 622 q 214 852 167 783 q 328 962 260 920 q 487 1001 395 1004 q 605 970 557 1000 q 682 891 653 940 q 724 784 711 843 q 738 663 737 725 q 732 546 739 601 m 640 442 l 655 549 q 663 640 661 590 q 657 740 664 690 q 630 831 650 789 q 575 899 610 873 q 482 927 539 925 q 354 894 408 930 q 264 800 300 859 q 207 674 229 741 q 177 547 186 608 l 161 441 q 154 350 155 400 q 159 250 152 300 q 186 158 167 200 q 241 89 206 116 q 333 61 277 62 q 463 94 410 58 q 552 188 517 130 q 609 313 588 246 q 640 442 631 380 z "},"Λ":{"ha":762,"x_min":-24,"x_max":637,"o":"m 486 913 l 62 0 l -24 0 l 441 988 l 498 988 l 486 913 m 559 0 l 449 920 l 461 987 l 515 987 l 637 0 l 559 0 z "},"Ξ":{"ha":662,"x_min":6,"x_max":676,"o":"m 6 0 l 20 73 l 532 73 l 519 0 l 6 0 m 138 461 l 152 534 l 554 534 l 541 461 l 138 461 m 170 915 l 184 987 l 676 987 l 663 915 l 170 915 z "},"Π":{"ha":829,"x_min":45,"x_max":814,"o":"m 814 987 l 642 0 l 564 0 l 724 915 l 282 915 l 123 0 l 45 0 l 216 987 l 814 987 z "},"Σ":{"ha":662,"x_min":-20,"x_max":680,"o":"m 551 73 l 538 0 l 5 0 l 18 73 l 551 73 m 680 987 l 667 915 l 160 915 l 173 987 l 680 987 m 431 528 l 427 504 l 28 0 l -20 0 l -9 69 l 349 518 l 137 928 l 146 987 l 193 988 l 431 528 z "},"Φ":{"ha":836,"x_min":68,"x_max":800,"o":"m 406 130 l 347 131 q 217 163 272 133 q 129 243 163 193 q 82 356 95 293 q 77 489 68 420 q 138 676 87 591 q 272 811 189 761 q 461 861 355 861 l 524 860 q 653 827 599 858 q 741 746 707 797 q 787 632 774 696 q 793 501 800 569 q 730 314 781 398 q 596 179 680 229 q 406 130 513 129 m 349 205 l 411 203 q 564 243 499 203 q 668 351 629 283 q 716 501 707 418 q 716 605 723 555 q 686 695 709 655 q 623 760 663 735 q 522 787 583 785 l 458 788 q 307 748 371 789 q 203 640 242 708 q 154 490 163 572 q 154 385 146 435 q 184 295 161 335 q 248 231 207 256 q 349 205 289 207 m 559 987 l 388 0 l 309 0 l 481 987 l 559 987 z "},"Ψ":{"ha":812,"x_min":110,"x_max":832,"o":"m 755 987 l 832 987 l 772 637 q 709 449 757 534 q 581 312 661 363 q 390 262 501 261 l 376 262 q 245 298 298 266 q 161 383 192 330 q 120 501 130 436 q 119 636 110 566 l 178 987 l 255 987 l 197 635 q 195 533 189 585 q 221 438 201 481 q 280 367 242 395 q 380 337 319 339 l 393 336 q 544 376 481 334 q 644 488 606 418 q 695 636 682 557 l 755 987 m 541 987 l 369 0 l 292 0 l 464 987 l 541 987 z "},"Ω":{"ha":770,"x_min":8,"x_max":716,"o":"m 618 494 l 630 575 q 636 682 636 623 q 621 797 635 741 q 570 889 606 852 q 469 929 534 926 q 351 898 401 932 q 268 809 301 864 q 215 691 234 754 q 187 574 195 629 l 176 494 q 166 387 170 447 q 170 267 163 328 q 203 158 177 207 q 282 83 229 109 l 273 14 q 167 95 206 41 q 110 220 127 150 q 91 361 92 290 q 97 494 89 433 l 109 572 q 146 720 119 644 q 217 861 172 795 q 325 965 261 926 q 474 1001 389 1004 q 606 957 556 999 q 681 849 656 914 q 711 710 706 783 q 708 572 716 637 l 696 494 q 661 346 686 421 q 595 202 635 270 q 496 85 554 135 q 361 13 437 35 l 368 81 q 474 151 431 106 q 547 252 518 195 q 592 371 575 309 q 618 494 610 433 m 355 0 l 368 73 l 626 73 l 612 0 l 355 0 m 8 0 l 21 73 l 282 73 l 269 0 l 8 0 z "},"Ω":{"ha":770,"x_min":8,"x_max":716,"o":"m 618 494 l 630 575 q 636 682 636 623 q 621 797 635 741 q 570 889 606 852 q 469 929 534 926 q 351 898 401 932 q 268 809 301 864 q 215 691 234 754 q 187 574 195 629 l 176 494 q 166 387 170 447 q 170 267 163 328 q 203 158 177 207 q 282 83 229 109 l 273 14 q 167 95 206 41 q 110 220 127 150 q 91 361 92 290 q 97 494 89 433 l 109 572 q 146 720 119 644 q 217 861 172 795 q 325 965 261 926 q 474 1001 389 1004 q 606 957 556 999 q 681 849 656 914 q 711 710 706 783 q 708 572 716 637 l 696 494 q 661 346 686 421 q 595 202 635 270 q 496 85 554 135 q 361 13 437 35 l 368 81 q 474 151 431 106 q 547 252 518 195 q 592 371 575 309 q 618 494 610 433 m 355 0 l 368 73 l 626 73 l 612 0 l 355 0 m 8 0 l 21 73 l 282 73 l 269 0 l 8 0 z "},"α":{"ha":665,"x_min":58,"x_max":614,"o":"m 64 342 l 65 356 q 91 483 73 414 q 142 613 109 551 q 227 712 175 674 q 353 749 278 750 q 433 725 399 746 q 487 670 466 704 q 520 594 509 635 q 535 510 532 553 q 536 429 539 467 l 518 294 q 486 187 507 241 q 432 85 465 132 q 351 11 398 39 q 241 -16 303 -17 q 135 23 174 -14 q 79 115 96 60 q 60 231 62 170 q 64 342 58 291 m 142 357 l 140 342 q 135 258 136 306 q 143 164 134 210 q 180 87 153 118 q 260 56 208 57 q 346 77 308 54 q 411 137 383 99 q 458 218 439 174 q 488 301 477 261 l 503 411 q 501 491 506 446 q 480 577 496 536 q 436 647 465 619 q 362 677 407 675 q 264 647 304 680 q 199 564 224 615 q 161 457 174 513 q 142 357 148 401 m 551 734 l 614 734 l 523 186 q 519 157 522 176 q 517 116 517 137 q 525 80 518 95 q 551 62 532 64 q 564 64 557 63 q 577 66 570 65 l 581 3 q 555 -9 567 -5 q 528 -14 543 -13 q 474 9 492 -13 q 450 63 456 31 q 445 130 444 96 q 448 187 447 163 l 513 581 l 551 734 z "},"β":{"ha":696,"x_min":-7,"x_max":635,"o":"m 314 546 l 389 545 q 511 506 464 543 q 579 410 559 469 q 594 281 600 351 q 551 133 587 201 q 453 24 515 66 q 304 -14 390 -17 q 214 7 254 -12 q 146 61 174 27 q 107 138 119 94 q 100 231 95 181 l 136 251 q 150 153 131 197 q 209 84 170 110 q 304 56 249 58 q 414 85 368 54 q 487 168 460 117 q 520 278 513 219 q 514 373 524 326 q 474 453 505 420 q 388 488 444 485 l 303 488 l 314 546 m 435 1002 q 550 963 505 1000 q 615 870 595 927 q 630 747 635 812 q 588 620 624 675 q 494 532 552 564 q 364 499 436 500 l 305 500 l 317 559 l 363 559 q 462 584 422 559 q 526 651 503 608 q 554 750 549 694 q 547 834 558 793 q 508 903 536 876 q 429 932 479 930 q 333 901 373 934 q 269 819 292 869 q 237 722 245 770 l 66 -269 l -7 -269 l 162 722 q 207 855 172 789 q 300 962 242 921 q 435 1002 358 1004 z "},"γ":{"ha":583,"x_min":96,"x_max":608,"o":"m 274 69 l 212 -282 l 137 -282 l 199 69 l 274 69 m 261 167 l 528 734 l 608 734 l 255 0 l 198 0 l 261 167 m 170 734 l 243 158 l 246 0 l 195 0 l 96 734 l 170 734 z "},"δ":{"ha":659,"x_min":47,"x_max":601,"o":"m 214 869 q 251 973 219 930 q 334 1040 283 1017 q 442 1062 385 1063 q 525 1049 486 1062 q 601 1016 564 1037 l 587 943 q 516 977 553 965 q 438 989 479 989 q 369 976 401 989 q 316 935 337 962 q 289 870 294 908 q 295 819 286 841 q 321 780 304 796 q 360 751 338 763 q 406 728 382 739 q 523 640 481 696 q 580 512 566 584 q 587 366 595 441 l 584 345 q 553 217 576 281 q 491 100 530 153 q 396 15 452 47 q 267 -14 340 -16 q 153 22 197 -12 q 85 108 109 56 q 54 222 61 161 q 54 340 47 284 l 56 362 q 94 502 64 433 q 176 621 124 570 q 304 686 229 671 l 306 693 q 253 739 274 712 q 222 799 231 766 q 214 869 212 831 m 132 359 l 129 338 q 127 249 125 297 q 143 158 130 201 q 189 86 157 115 q 273 56 220 57 q 371 81 329 54 q 442 151 413 107 q 487 247 471 195 q 509 345 504 298 l 513 365 q 512 450 517 406 q 492 533 507 493 q 447 602 476 572 q 374 646 418 632 q 275 619 317 645 q 203 551 232 593 q 156 459 174 509 q 132 359 139 408 z "},"ε":{"ha":641,"x_min":33,"x_max":582,"o":"m 301 394 l 416 394 l 408 340 l 307 341 q 216 327 258 341 q 146 281 174 313 q 112 196 118 249 q 119 136 109 161 q 151 92 130 110 q 199 65 171 74 q 258 56 227 56 q 350 73 308 54 q 420 127 391 92 q 459 210 449 162 l 533 210 q 501 115 526 157 q 440 43 477 73 q 355 0 403 14 q 255 -14 307 -15 q 167 2 208 -12 q 95 42 126 16 q 49 108 64 69 q 36 197 33 146 q 63 289 39 251 q 123 350 86 326 q 207 384 161 373 q 301 394 253 395 m 411 355 l 307 356 q 231 369 267 357 q 165 402 194 380 q 120 457 136 425 q 106 533 104 489 q 131 627 109 586 q 190 695 153 667 q 271 736 226 723 q 367 747 317 749 q 453 731 414 746 q 522 688 493 716 q 567 622 551 661 q 578 535 582 583 l 505 536 q 489 610 507 578 q 438 659 471 642 q 363 677 406 677 q 278 662 318 678 q 212 614 239 646 q 180 535 185 583 q 185 479 177 502 q 212 441 193 456 q 255 419 230 427 q 311 411 280 412 l 422 410 l 411 355 z "},"ζ":{"ha":589,"x_min":83,"x_max":628,"o":"m 589 987 l 628 988 l 619 930 l 351 594 q 270 487 310 542 q 202 371 231 431 q 164 243 173 311 q 164 188 161 212 q 180 144 168 163 q 212 111 192 125 q 260 83 231 96 l 315 62 q 374 35 348 50 q 414 -5 400 19 q 425 -70 428 -30 q 406 -145 422 -109 q 363 -212 389 -181 q 307 -264 338 -242 l 268 -222 q 305 -180 288 -203 q 336 -132 323 -158 q 352 -79 349 -106 q 345 -43 354 -56 q 321 -21 336 -30 q 287 -5 305 -12 l 241 11 q 169 47 199 26 q 118 96 138 68 q 90 160 98 124 q 88 241 83 196 q 128 384 96 314 q 204 516 160 453 q 294 634 249 579 l 589 987 m 157 987 l 604 987 l 591 918 l 144 918 l 157 987 z "},"η":{"ha":659,"x_min":28,"x_max":572,"o":"m 203 573 l 103 0 l 28 0 l 156 734 l 224 734 l 203 573 m 155 383 l 121 382 q 148 505 130 441 q 199 626 166 570 q 283 716 233 682 q 407 749 334 751 q 501 721 466 747 q 551 653 536 695 q 569 563 567 612 q 567 466 572 513 l 440 -282 l 366 -282 l 492 466 q 495 536 495 499 q 486 604 495 572 q 452 656 476 636 q 384 678 428 677 q 286 652 326 680 q 219 578 245 624 q 178 481 193 533 q 155 383 163 429 z "},"θ":{"ha":674,"x_min":81,"x_max":625,"o":"m 431 1002 q 533 969 494 1000 q 592 890 572 939 q 618 785 612 842 q 622 672 625 728 q 613 572 619 616 l 589 420 q 568 309 582 369 q 531 192 554 250 q 474 87 508 134 q 390 12 439 40 q 274 -14 341 -16 q 172 20 211 -11 q 113 99 133 50 q 87 205 94 148 q 83 318 81 262 q 92 419 85 374 l 115 572 q 136 682 122 623 q 174 799 151 741 q 232 903 197 856 q 316 977 267 950 q 431 1002 365 1004 m 426 932 q 321 899 363 935 q 253 806 279 863 q 213 689 227 750 q 192 583 199 629 l 183 527 l 532 527 l 541 583 q 548 656 545 613 q 550 747 552 700 q 537 835 549 793 q 499 903 526 876 q 426 932 472 930 m 280 56 q 367 79 330 55 q 430 142 404 102 q 472 230 456 182 q 498 326 488 278 q 514 410 508 373 l 521 456 l 172 456 l 164 409 q 157 336 161 380 q 155 245 153 292 q 169 155 157 197 q 207 86 181 113 q 280 56 233 59 z "},"ι":{"ha":372,"x_min":77,"x_max":259,"o":"m 172 734 l 247 734 l 155 184 q 154 135 153 161 q 165 89 154 109 q 206 68 176 69 q 232 70 219 68 q 259 73 245 71 l 253 4 q 219 -4 237 -1 q 184 -5 202 -6 q 110 26 133 -5 q 82 102 86 58 q 80 186 77 146 l 172 734 z "},"λ":{"ha":650,"x_min":-34,"x_max":549,"o":"m 345 609 l 53 0 l -34 0 l 336 747 l 390 732 l 345 609 m 254 1028 q 306 1016 285 1028 q 339 981 326 1003 q 360 934 353 960 q 373 884 368 909 l 475 160 q 482 123 478 144 q 496 86 486 102 q 526 68 505 70 q 538 69 532 68 q 549 70 544 70 l 546 0 q 528 -5 537 -3 q 511 -7 519 -7 q 451 16 473 -7 q 418 72 429 39 q 401 135 408 105 l 327 671 l 298 854 q 289 897 294 873 q 272 938 284 920 q 235 957 260 956 q 222 956 229 957 q 210 955 216 956 l 214 1021 q 234 1026 224 1024 q 254 1028 244 1028 z "},"ξ":{"ha":581,"x_min":54,"x_max":617,"o":"m 617 971 l 600 903 q 556 919 578 912 q 512 929 534 925 q 467 932 490 932 q 369 915 415 933 q 292 861 323 897 q 256 770 262 825 q 262 699 252 728 q 295 652 272 670 q 349 625 317 634 q 418 614 381 615 l 498 614 l 488 556 l 417 557 q 327 571 371 558 q 249 611 283 585 q 197 675 215 637 q 182 766 178 714 q 210 869 185 825 q 274 944 235 914 q 364 988 313 973 q 469 1002 414 1003 q 520 998 495 1002 q 570 987 545 994 q 617 971 594 981 m 414 598 l 493 597 l 485 543 l 416 543 q 278 514 338 544 q 181 430 218 485 q 135 296 143 374 q 143 195 130 240 q 190 117 157 150 q 277 64 224 84 l 326 47 q 385 22 359 37 q 425 -17 411 7 q 437 -78 439 -40 q 417 -148 434 -115 q 376 -210 401 -181 q 322 -260 351 -238 l 281 -218 q 318 -179 300 -199 q 350 -137 336 -159 q 366 -85 363 -114 q 359 -52 369 -65 q 332 -31 349 -39 q 300 -17 316 -23 l 265 -5 q 170 41 211 14 q 103 106 129 69 q 65 191 77 143 q 60 299 54 239 q 96 427 66 371 q 174 521 125 482 q 283 579 222 559 q 414 598 345 598 z "},"π":{"ha":701,"x_min":68,"x_max":698,"o":"m 698 734 l 686 663 l 84 663 l 97 734 l 698 734 m 271 734 l 144 0 l 68 0 l 196 734 l 271 734 m 523 734 l 599 734 l 507 184 q 505 136 505 162 q 516 89 505 109 q 557 68 527 69 q 584 69 571 67 q 611 74 597 71 l 605 4 q 571 -4 589 -1 q 537 -5 554 -6 q 462 26 486 -5 q 434 101 439 57 q 433 186 429 146 l 523 734 z "},"ρ":{"ha":659,"x_min":-20,"x_max":583,"o":"m -20 -282 l 98 410 q 127 529 106 469 q 183 639 148 589 q 269 720 218 690 q 389 748 320 751 q 504 706 463 745 q 563 607 545 667 q 582 482 581 547 q 577 362 583 417 l 575 347 q 550 227 568 291 q 498 108 532 163 q 416 18 465 52 q 294 -14 366 -16 q 197 13 237 -12 q 135 77 158 37 q 102 167 112 117 q 92 266 92 216 q 104 261 99 264 q 116 255 110 258 q 127 248 121 252 q 146 159 130 202 q 194 87 162 115 q 281 57 227 60 q 377 83 338 55 q 441 156 416 111 q 480 252 466 201 q 499 348 494 303 l 501 362 q 507 451 505 399 q 501 554 509 503 q 465 641 492 606 q 383 678 438 676 q 295 653 332 680 q 233 584 258 627 q 194 493 208 541 q 173 404 180 445 l 54 -282 l -20 -282 z "},"ς":{"ha":632,"x_min":57,"x_max":574,"o":"m 379 748 q 496 707 452 745 q 557 609 540 669 q 569 485 574 550 l 497 485 q 493 573 502 530 q 455 646 484 617 q 374 677 427 675 q 276 651 317 680 q 208 576 235 623 q 165 477 180 530 q 143 380 149 425 l 140 351 q 146 230 133 286 q 197 132 160 174 q 299 64 235 90 q 362 35 334 52 q 404 -7 390 18 q 415 -76 418 -33 q 396 -145 412 -111 q 356 -207 380 -178 q 306 -257 332 -235 l 266 -213 q 300 -176 283 -195 q 327 -134 316 -157 q 342 -84 338 -111 q 337 -44 345 -60 q 312 -21 328 -29 q 275 -5 296 -13 q 142 74 191 23 q 75 196 94 125 q 66 351 57 266 l 69 380 q 99 507 77 441 q 159 627 121 572 q 252 717 197 683 q 379 748 307 751 z "},"σ":{"ha":658,"x_min":50,"x_max":699,"o":"m 56 351 l 58 373 q 89 498 66 433 q 153 621 113 564 q 249 709 193 677 q 378 735 306 742 q 409 725 394 733 q 439 708 425 718 q 467 691 453 699 q 551 606 524 661 q 586 489 579 552 q 587 368 593 425 l 584 345 q 553 218 576 282 q 491 101 530 155 q 395 16 451 47 q 267 -14 340 -16 q 152 23 196 -12 q 84 114 107 58 q 55 232 61 170 q 56 351 50 294 m 133 373 l 131 351 q 128 261 126 311 q 143 165 130 211 q 187 89 157 119 q 273 56 218 58 q 373 83 330 54 q 444 158 415 111 q 489 258 473 204 q 512 358 506 311 l 514 379 q 517 467 519 419 q 500 559 515 515 q 455 632 486 604 q 371 663 424 661 q 272 638 314 665 q 201 567 230 611 q 156 471 173 522 q 133 373 139 420 m 699 734 l 686 663 l 372 663 l 385 734 l 699 734 z "},"τ":{"ha":607,"x_min":100,"x_max":608,"o":"m 608 734 l 596 664 l 100 664 l 113 734 l 608 734 m 315 734 l 389 734 l 298 184 q 295 135 295 163 q 306 83 295 106 q 347 61 317 61 q 375 64 362 61 q 402 72 389 67 l 412 9 q 372 -8 393 -3 q 330 -13 352 -14 q 251 20 275 -12 q 223 100 227 53 q 224 189 219 146 l 315 734 z "},"υ":{"ha":634,"x_min":73,"x_max":564,"o":"m 155 734 l 229 734 l 153 274 q 149 210 149 247 q 155 139 149 174 q 183 81 162 104 q 245 56 204 58 q 342 86 301 54 q 411 168 384 117 q 453 273 437 218 q 475 372 468 328 q 488 554 488 462 q 471 735 488 646 l 548 734 q 561 613 558 674 q 561 492 564 553 q 550 372 557 431 q 520 242 541 310 q 463 115 499 174 q 371 20 426 56 q 241 -14 317 -17 q 147 14 182 -13 q 95 85 112 41 q 76 178 79 128 q 77 277 73 229 l 155 734 z "},"φ":{"ha":806,"x_min":59,"x_max":735,"o":"m 235 -325 l 390 593 q 412 664 395 631 q 458 716 429 696 q 529 735 488 736 q 637 698 595 734 q 702 606 680 662 q 729 488 724 550 q 730 375 735 427 q 690 224 721 296 q 609 99 659 153 q 490 14 558 44 q 336 -15 421 -17 q 197 20 253 -13 q 110 106 142 52 q 69 230 79 161 q 68 372 59 298 q 101 512 77 445 q 167 636 125 578 q 269 736 209 693 l 302 673 q 224 587 256 636 q 172 483 193 538 q 143 372 151 428 q 140 260 134 315 q 168 159 146 205 q 233 86 191 114 q 342 57 276 58 q 498 99 431 54 q 605 218 565 144 q 655 374 645 292 q 657 456 659 407 q 644 553 656 505 q 603 634 631 602 q 526 664 575 667 q 485 641 498 663 q 468 595 471 618 l 310 -325 l 235 -325 z "},"ψ":{"ha":804,"x_min":68,"x_max":741,"o":"m 134 734 l 209 734 l 153 401 q 148 285 145 345 q 168 174 150 226 q 227 90 186 122 q 338 55 268 57 q 466 82 411 54 q 561 159 522 110 q 624 270 600 209 q 656 395 648 331 q 664 566 669 480 q 638 735 660 652 l 715 734 q 735 623 729 680 q 740 510 741 566 q 731 396 739 453 q 691 240 720 315 q 614 107 663 165 q 496 16 566 49 q 336 -14 427 -16 q 193 24 248 -13 q 110 121 138 61 q 75 254 81 181 q 78 403 68 328 l 134 734 m 417 734 l 492 734 l 312 -302 l 237 -302 l 417 734 z "},"ω":{"ha":959,"x_min":71,"x_max":876,"o":"m 772 735 l 847 734 q 869 612 863 673 q 874 490 876 551 q 864 365 872 428 q 841 245 857 311 q 795 119 825 179 q 717 21 765 59 q 599 -14 669 -17 q 501 23 535 -13 q 455 112 467 58 q 443 223 442 166 q 448 326 443 280 l 480 522 l 538 522 l 506 323 q 500 250 503 294 q 505 162 498 206 q 533 87 511 118 q 601 55 555 57 q 688 87 653 54 q 743 171 722 120 q 774 274 764 221 q 791 365 785 327 q 799 551 802 457 q 772 735 795 644 m 216 734 l 298 733 q 210 551 250 645 q 155 357 170 458 q 149 296 151 333 q 147 218 146 258 q 158 142 149 178 q 189 82 167 106 q 248 56 211 58 q 331 80 298 53 q 385 150 364 107 q 415 240 405 193 q 431 323 425 287 l 463 522 l 519 522 l 487 326 q 465 214 479 274 q 422 102 450 155 q 349 16 394 49 q 239 -14 304 -17 q 152 15 184 -12 q 101 83 119 41 q 77 174 83 125 q 73 272 71 224 q 79 358 75 321 q 106 490 87 426 q 153 615 125 554 q 216 734 180 676 z "},"ϑ":{"ha":677,"x_min":62,"x_max":661,"o":"m 659 526 l 661 456 q 604 439 633 446 q 545 433 575 433 q 382 479 447 434 q 289 601 318 525 q 268 768 260 677 l 269 783 q 298 889 275 836 q 363 977 321 943 q 467 1010 405 1012 q 551 982 519 1008 q 596 915 582 956 q 613 827 611 873 q 612 741 616 781 l 538 292 q 497 142 528 213 q 408 27 466 71 q 261 -14 351 -17 q 158 16 199 -12 q 96 87 117 43 q 68 185 74 132 q 67 292 62 238 l 104 514 l 180 515 l 144 290 q 144 189 138 242 q 178 99 150 136 q 269 59 206 62 q 375 91 335 56 q 436 180 416 126 q 464 290 457 234 l 536 741 q 540 798 538 766 q 536 862 541 831 q 513 915 530 894 q 460 937 495 936 q 395 913 419 938 q 358 851 370 888 q 342 782 346 814 l 341 768 q 355 638 336 696 q 421 544 374 580 q 547 507 469 509 q 604 513 576 507 q 659 526 633 518 z "},"ϒ":{"ha":632,"x_min":84,"x_max":749,"o":"m 368 458 l 288 0 l 211 0 l 290 458 l 368 458 m 349 532 l 521 857 q 558 923 537 890 q 608 978 578 956 q 680 998 637 1000 q 716 992 699 998 q 749 976 732 986 l 724 911 q 706 920 715 917 q 687 924 697 923 q 641 909 660 925 q 609 869 623 892 q 587 826 596 846 l 353 393 l 294 401 l 349 532 m 262 855 l 332 519 l 338 399 l 286 391 l 195 826 q 185 864 191 842 q 166 902 179 886 q 132 919 154 919 q 112 916 121 919 q 94 910 103 913 l 84 977 q 113 989 98 985 q 144 994 127 994 q 205 972 182 994 q 241 918 229 951 q 262 855 254 886 z "},"ϖ":{"ha":916,"x_min":63,"x_max":940,"o":"m 940 734 l 927 663 l 90 663 l 103 734 l 940 734 m 739 735 l 815 734 q 837 612 831 673 q 842 490 844 551 q 832 365 840 428 q 817 273 827 324 q 788 171 806 222 q 741 77 769 119 q 673 8 713 34 q 578 -15 632 -17 q 480 23 514 -13 q 434 112 447 58 q 422 223 421 166 q 428 326 422 280 l 457 507 l 515 507 l 486 323 q 480 249 482 294 q 484 161 477 205 q 513 87 490 117 q 582 56 536 56 q 650 77 622 55 q 697 136 677 99 q 729 215 716 172 q 748 297 741 258 q 758 364 755 336 q 767 551 771 457 q 739 735 764 644 m 208 734 l 290 733 q 202 551 243 645 q 146 357 161 458 q 141 299 144 335 q 137 222 137 263 q 146 143 138 180 q 173 82 154 106 q 228 55 193 58 q 312 79 279 52 q 365 150 345 106 q 395 241 384 193 q 410 323 406 288 l 439 507 l 496 507 l 467 326 q 444 214 459 274 q 402 101 429 155 q 330 15 374 48 q 219 -15 286 -18 q 136 15 167 -13 q 89 85 104 42 q 68 178 73 128 q 65 275 63 228 q 71 358 66 322 q 99 490 80 426 q 145 615 117 554 q 208 734 172 675 z "},"Ђ":{"ha":869,"x_min":129,"x_max":800,"o":"m 336 467 l 344 543 q 411 573 376 560 q 484 594 447 587 q 559 601 522 601 q 704 557 650 600 q 779 445 758 514 q 791 292 800 375 q 759 171 785 225 q 693 77 734 116 q 596 15 652 38 q 474 -9 541 -7 l 482 60 q 573 80 532 62 q 643 130 614 99 q 690 203 673 161 q 713 294 708 245 q 708 405 720 353 q 659 490 696 457 q 555 525 623 523 q 480 518 517 526 q 407 496 443 510 q 336 467 371 483 m 456 987 l 285 0 l 208 0 l 379 987 l 456 987 m 765 987 l 752 915 l 129 915 l 142 987 l 765 987 z "},"Є":{"ha":777,"x_min":82,"x_max":739,"o":"m 516 536 l 503 464 l 158 464 l 170 536 l 516 536 m 595 308 l 669 309 q 607 145 650 220 q 495 27 564 71 q 326 -14 425 -16 q 190 33 241 -11 q 115 146 138 77 q 86 290 91 214 q 91 432 82 366 l 110 555 q 149 709 121 629 q 222 855 176 788 q 335 963 268 922 q 491 1001 401 1004 q 638 952 583 999 q 715 833 692 906 q 736 678 739 760 l 660 678 q 647 796 660 739 q 596 889 633 852 q 487 929 558 926 q 361 896 414 931 q 273 804 309 861 q 218 681 238 747 q 189 556 198 615 l 169 432 q 162 345 163 393 q 166 247 161 296 q 191 156 172 197 q 243 87 209 114 q 332 58 277 61 q 463 90 411 56 q 546 182 515 124 q 595 308 578 239 z "},"Љ":{"ha":1224,"x_min":-27,"x_max":1140,"o":"m 334 987 l 413 987 l 312 531 q 289 408 300 477 q 258 267 277 338 q 208 135 239 195 q 126 37 176 74 q 1 0 76 -1 l -27 0 l -19 73 l 2 73 q 99 111 60 75 q 162 202 138 146 q 200 320 186 257 q 223 443 214 384 q 239 541 232 501 l 334 987 m 727 987 l 714 915 l 349 915 l 362 987 l 727 987 m 692 577 l 908 577 q 1042 536 989 574 q 1117 434 1094 497 q 1133 294 1140 370 q 1102 175 1126 229 q 1037 81 1078 120 q 940 20 996 41 q 819 0 885 -1 l 540 0 l 711 987 l 788 987 l 629 73 l 822 73 q 938 102 888 73 q 1018 181 987 131 q 1055 295 1048 232 q 1048 396 1061 350 q 1001 472 1036 442 q 906 504 966 501 l 678 505 l 692 577 z "},"Њ":{"ha":1248,"x_min":43,"x_max":1162,"o":"m 673 534 l 659 462 l 183 462 l 196 534 l 673 534 m 293 987 l 121 0 l 43 0 l 215 987 l 293 987 m 713 562 l 930 562 q 1062 523 1009 559 q 1139 426 1115 486 q 1155 288 1162 365 q 1124 171 1149 224 q 1058 79 1099 118 q 963 20 1017 40 q 844 0 909 -1 l 564 0 l 735 987 l 812 987 l 654 75 l 848 75 q 961 103 912 75 q 1041 179 1010 131 q 1078 291 1072 227 q 1070 388 1084 344 q 1020 459 1056 432 q 928 489 985 486 l 699 490 l 713 562 z "},"Ћ":{"ha":939,"x_min":131,"x_max":817,"o":"m 761 0 l 683 0 l 729 283 q 728 395 736 343 q 686 478 720 447 q 582 511 652 510 q 518 509 549 512 q 455 499 487 506 q 393 484 424 493 q 331 466 362 475 l 338 538 q 398 558 368 550 q 460 573 429 567 q 522 582 491 578 q 584 585 553 585 q 728 543 676 583 q 799 434 781 503 q 807 281 817 366 l 761 0 m 460 987 l 289 0 l 212 0 l 383 987 l 460 987 m 766 987 l 753 915 l 131 915 l 144 987 l 766 987 z "},"Џ":{"ha":826,"x_min":43,"x_max":812,"o":"m 43 0 l 215 987 l 292 987 l 134 73 l 576 73 l 734 987 l 812 987 l 640 0 l 43 0 m 395 66 l 342 -240 l 264 -240 l 318 66 l 395 66 z "},"Б":{"ha":744,"x_min":39,"x_max":699,"o":"m 699 987 l 686 915 l 275 915 l 115 0 l 39 0 l 209 987 l 699 987 m 188 561 l 404 559 q 537 522 484 557 q 613 425 590 486 q 630 287 637 363 q 599 169 624 222 q 534 78 574 117 q 438 20 493 40 q 319 0 384 -1 l 39 0 l 211 987 l 288 987 l 130 73 l 321 73 q 436 100 387 73 q 516 177 486 128 q 553 289 546 225 q 545 387 559 343 q 496 457 532 431 q 402 487 461 484 l 174 488 l 188 561 z "},"Д":{"ha":852,"x_min":-62,"x_max":816,"o":"m 682 73 l 669 0 l 39 0 l 53 73 l 682 73 m 70 73 l 14 -240 l -62 -240 l -7 73 l 70 73 m 746 73 l 692 -239 l 614 -239 l 669 73 l 746 73 m 754 987 l 741 915 l 376 915 l 389 987 l 754 987 m 816 987 l 644 0 l 566 0 l 738 987 l 816 987 m 362 987 l 439 987 l 363 630 q 344 539 357 597 q 313 412 331 481 q 270 272 295 342 q 212 141 244 201 q 138 43 179 81 q 49 0 98 5 l 3 0 l 13 72 l 47 71 q 141 191 102 124 q 207 332 180 258 q 253 482 234 406 q 286 630 271 558 l 362 987 z "},"Ж":{"ha":1028,"x_min":-47,"x_max":1088,"o":"m 359 469 l 149 987 l 237 987 l 405 543 l 544 543 l 521 469 l 359 469 m 403 471 l 55 0 l -47 0 l 366 550 l 403 471 m 656 987 l 484 0 l 408 0 l 579 987 l 656 987 m 1088 987 l 699 469 l 535 469 l 539 543 l 668 543 l 991 988 l 1088 987 m 841 0 l 652 480 l 711 551 l 932 0 l 841 0 z "},"З":{"ha":699,"x_min":35,"x_max":686,"o":"m 368 480 l 266 481 l 275 541 l 366 540 q 480 562 430 541 q 563 627 530 583 q 602 735 595 671 q 590 836 608 793 q 532 904 572 880 q 433 930 492 928 q 326 904 373 931 q 247 831 278 878 q 206 729 216 785 l 130 728 q 164 839 138 789 q 231 926 191 888 q 324 983 272 963 q 437 1002 376 1003 q 545 981 498 1000 q 624 926 592 962 q 671 842 656 891 q 680 733 686 793 q 648 625 675 672 q 576 546 621 578 q 479 497 532 513 q 368 480 425 480 m 271 526 l 365 524 q 472 507 425 524 q 552 459 519 491 q 601 382 585 428 q 611 275 616 336 q 578 154 606 208 q 505 62 550 100 q 402 4 460 24 q 279 -14 345 -16 q 171 10 218 -13 q 92 73 123 33 q 48 163 61 112 q 39 275 35 215 l 117 274 q 128 170 111 218 q 185 91 146 121 q 285 58 224 61 q 405 82 351 56 q 494 157 459 109 q 535 272 528 206 q 531 354 540 318 q 500 415 522 390 q 444 452 478 439 q 362 467 409 465 l 260 467 l 271 526 z "},"И":{"ha":831,"x_min":45,"x_max":815,"o":"m 149 156 l 736 988 l 815 987 l 644 0 l 566 0 l 711 833 l 124 0 l 45 0 l 217 987 l 294 987 l 149 156 z "},"Л":{"ha":823,"x_min":-33,"x_max":809,"o":"m 747 987 l 734 915 l 344 915 l 357 987 l 747 987 m 809 987 l 637 0 l 560 0 l 732 987 l 809 987 m 330 987 l 408 987 l 308 530 q 285 409 298 478 q 254 267 273 339 q 202 133 235 195 q 120 35 170 72 q -5 0 69 -2 l -33 0 l -24 72 l -3 73 q 94 111 56 75 q 157 202 133 146 q 196 320 182 257 q 218 442 210 383 q 235 541 227 500 l 330 987 z "},"У":{"ha":736,"x_min":70,"x_max":795,"o":"m 361 340 l 702 988 l 795 988 l 352 169 q 313 101 334 134 q 266 41 292 67 q 206 -1 240 14 q 128 -16 172 -17 q 99 -14 113 -16 q 70 -7 85 -12 l 84 62 q 108 58 96 60 q 132 57 120 57 q 198 77 171 56 q 244 128 224 98 q 279 189 263 159 l 361 340 m 231 987 l 382 334 l 389 260 l 324 246 l 148 987 l 231 987 z "},"Ф":{"ha":873,"x_min":64,"x_max":844,"o":"m 465 888 l 568 886 q 700 850 645 884 q 787 761 754 816 q 832 638 820 705 q 836 502 844 570 q 796 352 827 424 q 714 224 765 281 q 594 136 663 168 q 442 103 526 103 l 339 104 q 207 141 261 106 q 120 231 153 175 q 76 354 88 286 q 72 490 64 421 q 112 639 81 568 q 194 766 143 710 q 313 856 245 823 q 465 888 381 888 m 462 819 q 302 772 369 819 q 196 650 236 726 q 146 490 157 575 q 146 381 140 436 q 173 281 151 327 q 236 206 195 235 q 341 174 277 177 l 446 172 q 606 219 539 172 q 712 341 673 266 q 762 502 751 417 q 763 610 768 556 q 735 711 757 665 q 672 785 713 757 q 568 817 631 814 l 462 819 m 584 1029 l 398 -41 l 323 -41 l 509 1029 l 584 1029 z "},"Ц":{"ha":838,"x_min":41,"x_max":809,"o":"m 731 75 l 670 -238 l 600 -238 l 641 0 l 562 0 l 575 75 l 731 75 m 41 0 l 212 987 l 290 987 l 132 73 l 572 73 l 732 987 l 809 987 l 637 0 l 41 0 z "},"Ч":{"ha":784,"x_min":152,"x_max":770,"o":"m 207 987 l 283 987 l 239 712 q 241 600 232 651 q 284 516 250 548 q 387 484 318 485 q 451 486 419 482 q 513 495 482 489 q 575 510 545 502 q 636 528 606 519 l 629 455 q 569 436 599 445 q 508 421 538 427 q 446 412 477 415 q 383 410 414 409 q 239 452 291 411 q 170 561 187 492 q 161 713 152 629 l 207 987 m 693 987 l 770 987 l 599 0 l 522 0 l 693 987 z "},"Ш":{"ha":1078,"x_min":42,"x_max":1066,"o":"m 213 987 l 292 987 l 133 73 l 444 73 l 602 987 l 680 987 l 521 73 l 831 73 l 989 987 l 1066 987 l 895 0 l 42 0 l 213 987 z "},"Щ":{"ha":1099,"x_min":42,"x_max":1066,"o":"m 985 71 l 925 -238 l 857 -238 l 899 0 l 826 0 l 839 71 l 985 71 m 213 987 l 292 987 l 133 73 l 444 73 l 602 987 l 680 987 l 521 73 l 831 73 l 989 987 l 1066 987 l 895 0 l 42 0 l 213 987 z "},"Ъ":{"ha":899,"x_min":98,"x_max":799,"o":"m 98 917 l 111 987 l 398 987 l 385 917 l 98 917 m 349 561 l 566 559 q 699 521 646 557 q 775 424 751 485 q 792 287 799 363 q 761 169 786 222 q 695 78 736 117 q 600 19 654 39 q 480 0 546 -1 l 200 0 l 372 987 l 450 987 l 290 73 l 483 73 q 597 101 548 73 q 677 177 647 128 q 714 289 707 225 q 706 387 720 343 q 657 457 692 431 q 564 487 623 484 l 336 488 l 349 561 z "},"Ы":{"ha":984,"x_min":44,"x_max":960,"o":"m 193 561 l 410 559 q 543 522 490 557 q 619 425 595 486 q 635 287 642 363 q 605 169 629 222 q 539 78 580 117 q 444 20 498 40 q 323 0 389 -1 l 44 0 l 215 987 l 293 987 l 134 73 l 327 73 q 441 100 393 73 q 521 177 490 128 q 559 289 551 225 q 550 387 564 343 q 500 457 536 431 q 408 487 465 484 l 180 488 l 193 561 m 960 987 l 788 0 l 711 0 l 882 987 l 960 987 z "},"Ь":{"ha":722,"x_min":39,"x_max":637,"o":"m 188 561 l 404 559 q 537 522 484 557 q 613 425 590 486 q 630 287 637 363 q 599 169 624 222 q 534 78 574 117 q 438 20 493 40 q 319 0 384 -1 l 39 0 l 211 987 l 288 987 l 130 73 l 321 73 q 436 100 387 73 q 516 177 486 128 q 553 289 546 225 q 545 387 559 343 q 496 457 532 431 q 402 487 461 484 l 174 488 l 188 561 z "},"Э":{"ha":777,"x_min":73,"x_max":729,"o":"m 652 533 l 638 460 l 295 460 l 308 533 l 652 533 m 76 308 l 152 308 q 165 189 151 245 q 219 97 180 132 q 331 59 258 61 q 454 92 403 57 q 540 185 505 127 q 595 309 574 243 q 624 432 615 375 l 643 557 q 650 646 648 597 q 644 744 651 694 q 618 834 637 793 q 565 901 600 876 q 474 929 530 927 q 347 897 398 932 q 265 803 296 861 q 216 679 233 745 l 140 678 q 201 840 159 766 q 312 960 243 915 q 479 1001 381 1004 q 617 955 565 999 q 695 843 669 911 q 725 699 720 775 q 720 555 729 623 l 701 432 q 663 280 690 359 q 591 133 636 201 q 480 25 545 66 q 326 -14 414 -16 q 177 35 233 -11 q 97 152 121 80 q 76 308 73 224 z "},"Ю":{"ha":1059,"x_min":54,"x_max":1010,"o":"m 303 987 l 132 0 l 54 0 l 226 987 l 303 987 m 414 534 l 404 464 l 203 464 l 212 534 l 414 534 m 1001 600 l 968 387 q 928 238 956 311 q 857 108 901 166 q 747 17 812 50 q 595 -14 682 -16 q 459 24 511 -12 q 379 119 407 60 q 345 248 351 178 q 347 387 338 317 l 380 601 q 419 748 391 675 q 491 879 446 821 q 601 970 536 937 q 753 1001 666 1004 q 889 963 836 999 q 969 869 942 927 q 1004 741 997 810 q 1001 600 1010 671 m 890 387 l 924 604 q 929 712 931 656 q 910 816 927 768 q 853 895 892 864 q 748 927 814 925 q 627 902 677 929 q 542 827 576 874 q 487 721 507 779 q 457 602 466 662 l 423 386 q 419 277 416 334 q 439 173 422 221 q 495 93 457 124 q 600 60 534 62 q 722 85 671 58 q 808 160 773 113 q 862 267 842 208 q 890 387 882 326 z "},"Я":{"ha":724,"x_min":-9,"x_max":720,"o":"m 568 402 l 307 403 l 274 422 q 166 531 197 463 q 144 684 136 598 q 194 843 152 774 q 304 950 235 912 q 465 989 372 989 l 720 987 l 548 0 l 471 0 l 629 915 l 462 916 q 294 852 357 916 q 222 686 232 788 q 228 588 216 636 q 271 510 239 541 q 361 476 302 479 l 581 475 l 568 402 m 354 453 l 78 0 l -9 0 l 271 453 l 354 453 z "},"б":{"ha":650,"x_min":51,"x_max":648,"o":"m 586 1053 l 648 1053 q 624 971 642 1004 q 576 916 605 937 q 510 881 548 894 q 426 861 471 868 q 293 800 347 846 q 207 689 239 754 q 156 550 174 623 q 130 408 138 476 l 119 344 l 56 344 l 65 408 q 99 570 77 486 q 161 731 121 655 q 262 861 201 807 q 414 934 323 916 q 488 953 452 941 q 550 988 524 964 q 586 1053 576 1011 m 378 687 q 487 654 444 685 q 554 575 530 624 q 586 470 578 527 q 589 359 594 413 l 587 337 q 558 211 580 274 q 496 96 536 148 q 402 15 457 45 q 275 -14 347 -16 q 162 20 207 -12 q 92 104 117 53 q 59 216 67 155 q 56 333 51 276 l 59 356 q 67 395 61 376 q 80 432 73 414 q 95 469 87 451 q 161 576 121 526 q 257 657 202 627 q 378 687 311 688 m 362 616 q 243 578 292 618 q 167 477 195 538 q 133 356 140 416 l 131 334 q 130 245 127 293 q 149 156 134 198 q 196 85 163 113 q 281 56 228 58 q 377 80 335 54 q 447 149 418 106 q 491 241 475 191 q 512 337 507 290 l 515 359 q 514 443 518 399 q 493 526 509 488 q 445 590 476 565 q 362 616 413 615 z "},"в":{"ha":662,"x_min":35,"x_max":592,"o":"m 359 338 l 146 338 l 157 408 l 328 406 q 414 420 374 406 q 481 463 454 433 q 513 541 508 492 q 508 598 517 575 q 479 635 498 621 q 434 656 460 650 q 377 663 408 663 l 224 664 l 109 0 l 35 0 l 161 734 l 379 733 q 463 721 424 732 q 532 688 503 710 q 577 629 562 665 q 589 544 592 593 q 571 474 586 505 q 530 420 555 443 q 473 384 505 397 q 404 366 441 370 l 359 338 m 300 0 l 61 0 l 104 71 l 303 69 q 387 85 349 69 q 450 132 425 101 q 479 211 475 163 q 470 279 484 251 q 426 321 455 307 q 359 337 397 336 l 199 338 l 213 408 l 406 406 l 431 381 q 501 348 473 373 q 543 287 529 323 q 554 210 556 252 q 530 117 551 157 q 474 51 509 77 q 395 12 439 25 q 300 0 351 -1 z "},"г":{"ha":503,"x_min":32,"x_max":531,"o":"m 531 734 l 518 663 l 221 663 l 106 0 l 32 0 l 159 734 l 531 734 z "},"д":{"ha":682,"x_min":-67,"x_max":622,"o":"m 260 734 l 337 734 l 279 469 q 249 338 267 404 q 205 209 232 271 q 138 93 178 147 q 41 0 98 39 l -3 0 l 9 69 l 26 70 q 94 160 66 114 q 144 255 123 206 q 180 358 165 304 q 205 469 195 411 l 260 734 m 283 734 l 622 734 l 494 0 l 419 0 l 533 656 l 269 656 l 283 734 m -16 71 l 572 71 l 522 -216 l 446 -216 l 484 0 l 44 0 l 5 -216 l -67 -216 l -16 71 z "},"ж":{"ha":894,"x_min":-48,"x_max":897,"o":"m 283 338 l 111 734 l 196 734 l 328 414 l 445 414 l 423 338 l 283 338 m 326 342 l 52 0 l -48 0 l 288 411 l 326 342 m 538 734 l 410 0 l 336 0 l 463 734 l 538 734 m 897 734 l 588 338 l 444 338 l 448 414 l 557 414 l 802 734 l 897 734 m 701 0 l 543 351 l 597 411 l 790 0 l 701 0 z "},"з":{"ha":600,"x_min":30,"x_max":545,"o":"m 304 355 l 203 355 l 211 412 l 298 410 q 379 425 343 411 q 438 469 416 439 q 465 545 460 498 q 455 616 469 586 q 413 662 441 646 q 343 679 384 678 q 265 661 300 680 q 206 610 230 643 q 172 536 182 578 l 98 536 q 142 648 107 600 q 230 723 177 696 q 348 748 283 749 q 431 733 394 747 q 494 693 469 719 q 533 629 520 667 q 542 544 545 591 q 518 461 538 497 q 463 402 497 426 q 388 367 429 378 q 304 355 347 355 m 207 394 l 299 393 q 380 380 344 391 q 443 346 417 368 q 483 290 469 324 q 492 208 496 256 q 468 115 489 156 q 412 44 448 73 q 332 0 377 15 q 237 -13 288 -14 q 125 18 172 -12 q 54 98 78 47 q 35 212 30 148 l 107 212 q 120 134 105 168 q 166 79 136 100 q 242 57 197 58 q 327 73 289 56 q 389 125 365 91 q 419 206 414 159 q 410 279 423 251 q 368 322 397 308 q 295 338 338 336 l 196 338 l 207 394 z "},"и":{"ha":666,"x_min":32,"x_max":621,"o":"m 131 142 l 543 734 l 621 734 l 494 0 l 418 0 l 522 592 l 109 0 l 32 0 l 160 734 l 234 734 l 131 142 z "},"к":{"ha":618,"x_min":31,"x_max":631,"o":"m 235 734 l 106 0 l 31 0 l 159 734 l 235 734 m 631 734 l 285 336 l 138 336 l 142 410 l 260 410 l 532 734 l 631 734 m 432 0 l 246 351 l 300 410 l 523 0 l 432 0 z "},"л":{"ha":667,"x_min":-32,"x_max":622,"o":"m 561 734 l 548 663 l 246 663 l 259 734 l 561 734 m 622 734 l 494 0 l 418 0 l 546 734 l 622 734 m 239 734 l 315 734 l 243 389 q 225 295 235 347 q 201 191 216 243 q 160 94 185 138 q 96 24 135 50 q -1 0 57 -2 l -32 0 l -22 73 l -1 74 q 72 102 43 77 q 118 166 100 127 q 147 250 136 205 q 164 337 157 294 q 174 410 170 379 l 239 734 z "},"м":{"ha":856,"x_min":35,"x_max":811,"o":"m 379 116 l 717 734 l 795 734 l 389 0 l 336 0 l 186 734 l 256 734 l 379 116 m 236 734 l 109 0 l 35 0 l 162 734 l 236 734 m 608 0 l 736 734 l 811 734 l 684 0 l 608 0 z "},"н":{"ha":666,"x_min":33,"x_max":621,"o":"m 507 407 l 494 336 l 145 336 l 159 407 l 507 407 m 235 734 l 106 0 l 33 0 l 160 734 l 235 734 m 621 734 l 493 0 l 418 0 l 545 734 l 621 734 z "},"п":{"ha":666,"x_min":33,"x_max":621,"o":"m 560 734 l 547 663 l 205 663 l 218 734 l 560 734 m 235 734 l 106 0 l 33 0 l 160 734 l 235 734 m 621 734 l 494 0 l 418 0 l 545 734 l 621 734 z "},"т":{"ha":565,"x_min":79,"x_max":588,"o":"m 374 734 l 246 0 l 171 0 l 299 734 l 374 734 m 588 734 l 576 664 l 79 664 l 92 734 l 588 734 z "},"ф":{"ha":846,"x_min":59,"x_max":774,"o":"m 766 365 l 764 351 q 741 232 758 296 q 693 111 724 168 q 615 19 663 54 q 498 -15 567 -17 q 439 -3 467 -14 q 390 26 412 7 q 357 71 369 45 q 345 130 345 98 l 418 593 q 442 656 425 627 q 483 706 458 685 q 539 739 508 727 q 604 749 570 750 q 693 720 659 747 q 745 648 727 692 q 768 553 762 604 q 772 453 774 502 q 766 365 770 404 m 690 351 l 692 365 q 698 431 695 392 q 699 512 701 469 q 685 592 696 555 q 650 653 674 629 q 585 677 626 677 q 535 670 557 677 q 494 646 512 662 q 463 608 476 631 l 378 111 q 405 79 389 91 q 441 62 422 68 q 483 55 461 56 q 576 83 538 54 q 636 159 613 113 q 672 257 660 205 q 690 351 685 309 m 64 342 l 66 357 q 83 454 71 401 q 114 559 94 507 q 164 655 134 612 q 237 724 194 699 q 337 747 279 750 q 396 734 369 746 q 444 702 423 722 q 474 653 464 681 q 485 593 485 626 l 412 136 q 389 75 406 102 q 348 26 372 47 q 293 -5 323 6 q 229 -16 262 -16 q 126 23 162 -14 q 75 117 90 60 q 60 235 60 174 q 64 342 59 295 m 142 357 l 141 342 q 134 263 137 311 q 139 168 132 215 q 170 89 146 121 q 245 57 195 56 q 291 63 269 56 q 332 84 313 71 q 366 117 351 97 l 450 608 q 428 647 442 632 q 393 669 414 662 q 349 677 373 677 q 254 646 292 680 q 194 561 216 613 q 159 454 172 509 q 142 357 147 399 m 264 -282 l 495 1042 l 569 1042 l 339 -282 l 264 -282 z "},"ц":{"ha":676,"x_min":32,"x_max":621,"o":"m 32 0 l 160 734 l 235 734 l 119 71 l 431 71 l 545 734 l 621 734 l 494 0 l 32 0 m 570 71 l 513 -218 l 444 -218 l 482 0 l 410 0 l 422 71 l 570 71 z "},"ч":{"ha":631,"x_min":93,"x_max":587,"o":"m 587 734 l 458 0 l 384 0 l 511 734 l 587 734 m 502 399 l 496 330 q 430 299 465 312 q 360 279 396 286 q 288 272 324 271 q 161 311 204 273 q 105 412 118 349 q 100 547 93 474 l 130 734 l 205 734 l 176 547 q 174 451 170 497 q 204 374 178 404 q 292 343 231 344 q 364 351 328 343 q 435 372 400 359 q 502 399 469 385 z "},"ш":{"ha":928,"x_min":32,"x_max":892,"o":"m 160 734 l 235 734 l 119 71 l 374 71 l 490 734 l 566 734 l 449 71 l 702 71 l 817 734 l 892 734 l 765 0 l 32 0 l 160 734 z "},"щ":{"ha":940,"x_min":28,"x_max":889,"o":"m 849 71 l 792 -218 l 724 -218 l 762 0 l 689 0 l 702 71 l 849 71 m 156 734 l 231 734 l 116 71 l 371 71 l 486 734 l 562 734 l 446 71 l 699 71 l 814 734 l 889 734 l 762 0 l 28 0 l 156 734 z "},"ъ":{"ha":737,"x_min":76,"x_max":656,"o":"m 336 734 l 324 663 l 76 663 l 89 734 l 336 734 m 279 469 l 466 467 q 574 434 531 465 q 636 353 616 404 q 651 241 656 303 q 627 144 647 189 q 573 67 606 100 q 494 17 539 35 q 397 0 450 -1 l 149 0 l 277 734 l 351 734 l 236 71 l 399 69 q 488 93 450 71 q 548 154 526 115 q 576 240 570 192 q 571 315 581 280 q 535 372 561 350 q 465 397 509 395 l 267 397 l 279 469 z "},"ы":{"ha":888,"x_min":34,"x_max":828,"o":"m 164 469 l 351 467 q 459 434 416 465 q 522 353 502 404 q 536 241 541 303 q 512 144 532 189 q 458 67 492 100 q 380 17 425 35 q 281 0 335 -1 l 34 0 l 162 734 l 236 734 l 122 71 l 285 69 q 372 93 334 71 q 433 153 410 115 q 461 241 456 191 q 455 315 465 280 q 419 372 446 350 q 349 397 393 395 l 152 397 l 164 469 m 828 734 l 701 0 l 625 0 l 753 734 l 828 734 z "},"ь":{"ha":633,"x_min":34,"x_max":541,"o":"m 164 469 l 351 467 q 459 434 416 465 q 522 353 502 404 q 536 241 541 303 q 512 144 532 189 q 458 67 492 100 q 380 17 425 35 q 281 0 335 -1 l 34 0 l 162 734 l 236 734 l 122 71 l 285 69 q 372 93 334 71 q 433 153 410 115 q 461 241 456 191 q 455 315 465 280 q 419 372 446 350 q 349 397 393 395 l 152 397 l 164 469 z "},"э":{"ha":632,"x_min":42,"x_max":557,"o":"m 343 677 q 255 655 292 680 q 195 591 218 631 q 161 505 171 551 l 91 505 q 135 626 100 570 q 223 716 169 682 q 348 748 278 751 q 461 710 418 746 q 526 619 505 674 q 552 501 547 564 q 551 384 557 438 l 547 354 q 518 227 540 292 q 458 106 496 162 q 365 17 420 51 q 239 -14 311 -16 q 122 27 166 -12 q 60 126 79 66 q 47 249 42 186 l 120 250 q 126 162 116 206 q 163 89 136 119 q 244 56 191 58 q 341 82 300 54 q 409 158 382 111 q 453 257 437 205 q 474 354 469 309 l 478 382 q 481 471 481 421 q 468 567 480 520 q 427 645 456 614 q 343 677 397 676 m 517 406 l 505 336 l 207 336 l 220 406 l 517 406 z "},"ю":{"ha":947,"x_min":35,"x_max":880,"o":"m 404 401 l 390 330 l 101 330 l 114 401 l 404 401 m 236 734 l 109 0 l 35 0 l 162 734 l 236 734 m 334 351 l 336 373 q 368 504 345 437 q 432 627 392 570 q 528 717 471 684 q 661 749 585 750 q 777 710 732 745 q 845 619 822 675 q 874 501 868 564 q 873 380 880 438 l 871 358 q 840 228 863 294 q 776 106 816 161 q 680 17 736 50 q 548 -14 623 -16 q 433 23 477 -12 q 364 113 388 58 q 334 231 340 168 q 334 351 328 294 m 412 373 l 410 351 q 407 261 405 311 q 422 166 408 212 q 467 89 436 120 q 553 56 498 58 q 654 83 611 55 q 727 158 698 112 q 773 258 756 205 q 797 358 791 311 l 800 379 q 802 469 804 419 q 786 566 800 519 q 741 644 772 613 q 655 677 709 675 q 554 651 597 680 q 481 575 511 622 q 435 474 452 528 q 412 373 418 420 z "},"я":{"ha":643,"x_min":-14,"x_max":596,"o":"m 213 338 l 300 337 l 73 0 l -14 0 l 213 338 m 351 735 l 596 734 l 469 0 l 393 0 l 509 664 l 349 665 q 265 645 302 665 q 205 590 229 625 q 177 508 182 555 q 181 442 172 474 q 211 390 189 410 q 271 368 233 370 l 484 366 l 471 295 l 269 296 q 192 315 224 298 q 137 362 159 333 q 107 429 116 391 q 101 509 98 467 q 125 603 105 562 q 180 673 146 644 q 257 719 214 703 q 351 735 301 734 z "},"ђ":{"ha":648,"x_min":26,"x_max":568,"o":"m 460 295 l 534 295 l 475 -59 q 445 -173 468 -118 q 380 -263 422 -228 q 270 -298 337 -299 q 233 -294 251 -298 q 197 -283 216 -290 l 213 -216 q 243 -225 228 -222 q 274 -229 258 -229 q 344 -202 317 -229 q 383 -135 370 -174 q 401 -60 396 -95 l 460 295 m 282 1042 l 102 0 l 26 0 l 208 1042 l 282 1042 m 157 412 l 130 429 q 160 539 140 482 q 215 644 181 595 q 297 721 249 692 q 409 748 345 749 q 498 722 465 747 q 547 657 531 696 q 565 571 562 618 q 563 479 568 524 l 483 0 l 408 0 l 488 480 q 489 567 492 522 q 464 644 486 612 q 386 677 441 676 q 297 653 336 678 q 230 587 258 628 q 184 500 201 547 q 157 412 166 454 m 428 908 l 415 838 l 73 838 l 85 908 l 428 908 z "},"є":{"ha":632,"x_min":58,"x_max":577,"o":"m 409 403 l 397 332 l 81 332 l 94 403 l 409 403 m 272 56 q 361 79 323 55 q 424 142 399 103 q 459 227 448 181 l 530 227 q 483 107 518 163 q 392 17 448 51 q 267 -14 337 -16 q 152 23 195 -12 q 88 114 109 58 q 63 232 67 169 q 64 351 58 294 l 67 380 q 97 508 75 443 q 156 628 119 573 q 248 717 193 684 q 378 747 303 751 q 494 707 450 745 q 558 610 538 669 q 574 486 577 551 l 503 486 q 493 573 505 530 q 453 646 482 616 q 372 677 424 675 q 273 651 314 680 q 205 577 232 623 q 163 479 178 532 q 141 380 148 427 l 138 351 q 133 262 133 312 q 145 166 134 212 q 186 90 157 120 q 272 56 216 59 z "},"љ":{"ha":992,"x_min":-35,"x_max":911,"o":"m 236 734 l 312 734 l 237 390 q 220 296 229 348 q 196 191 212 243 q 156 95 181 138 q 92 25 131 51 q -5 0 52 -1 l -35 0 l -26 73 l -5 74 q 67 101 39 77 q 114 165 96 126 q 143 249 133 204 q 160 337 153 294 q 172 410 166 379 l 236 734 m 549 734 l 536 663 l 241 663 l 254 734 l 549 734 m 533 441 l 719 441 q 825 411 781 438 q 890 336 869 383 q 907 227 911 290 q 883 133 903 175 q 828 61 862 92 q 750 15 795 31 q 654 0 705 -1 l 408 0 l 534 734 l 610 734 l 494 71 l 657 69 q 743 91 705 71 q 804 146 780 111 q 833 229 827 182 q 825 301 837 270 q 786 350 813 332 q 718 370 759 368 l 520 371 l 533 441 z "},"њ":{"ha":1001,"x_min":33,"x_max":923,"o":"m 513 444 l 500 373 l 152 373 l 165 444 l 513 444 m 235 734 l 106 0 l 33 0 l 160 734 l 235 734 m 543 441 l 730 439 q 836 411 792 438 q 901 337 880 384 q 918 227 923 290 q 894 133 914 175 q 840 61 873 91 q 761 15 806 31 q 666 0 717 -1 l 418 0 l 545 734 l 621 734 l 506 71 l 667 69 q 754 91 716 71 q 815 146 791 111 q 843 229 838 182 q 836 300 847 269 q 797 350 824 332 q 729 370 770 368 l 531 371 l 543 441 z "},"ћ":{"ha":665,"x_min":26,"x_max":568,"o":"m 282 1042 l 102 0 l 26 0 l 208 1042 l 282 1042 m 157 412 l 130 429 q 161 539 140 482 q 215 644 182 595 q 297 721 249 692 q 409 748 345 749 q 498 722 465 747 q 547 657 532 696 q 565 571 562 617 q 563 479 568 524 l 483 0 l 408 0 l 488 480 q 489 567 492 522 q 463 644 486 612 q 386 677 440 675 q 297 653 336 678 q 230 587 258 628 q 184 500 201 547 q 157 412 166 454 m 435 916 l 422 845 l 80 845 l 93 916 l 435 916 z "},"џ":{"ha":666,"x_min":32,"x_max":621,"o":"m 240 71 l 315 71 l 260 -239 l 185 -239 l 240 71 m 160 734 l 235 734 l 119 71 l 431 71 l 545 734 l 621 734 l 494 0 l 32 0 l 160 734 z "},"Ѡ":{"ha":1029,"x_min":81,"x_max":1026,"o":"m 577 987 l 642 987 l 521 281 q 495 174 513 227 q 447 78 477 121 q 370 8 416 34 q 262 -15 325 -17 q 166 15 203 -13 q 110 86 129 43 q 85 180 90 130 q 86 280 81 231 l 207 987 l 283 987 l 163 279 q 161 212 160 249 q 173 141 163 175 q 205 83 182 106 q 268 58 228 60 q 368 91 329 56 q 428 178 406 125 q 456 279 449 230 l 577 987 m 949 987 l 1026 987 l 905 281 q 865 139 895 208 q 780 26 835 70 q 640 -15 724 -18 q 546 15 581 -13 q 492 87 510 43 q 470 182 473 132 q 471 280 466 233 l 591 987 l 656 987 l 536 279 q 534 211 532 248 q 546 139 535 174 q 582 82 557 104 q 646 58 606 60 q 744 91 706 56 q 802 179 781 126 q 829 279 823 231 l 949 987 z "},"ѡ":{"ha":948,"x_min":68,"x_max":899,"o":"m 488 734 l 551 734 l 471 258 q 448 161 465 210 q 404 71 431 112 q 334 6 376 31 q 235 -16 292 -18 q 146 12 180 -14 q 95 79 112 38 q 73 166 77 119 q 74 258 68 214 l 154 734 l 229 734 l 149 258 q 146 197 146 231 q 155 132 146 163 q 184 79 163 100 q 241 56 204 58 q 330 86 295 54 q 384 166 365 118 q 408 258 402 214 l 488 734 m 824 734 l 899 734 l 819 258 q 782 129 810 193 q 704 23 754 64 q 576 -16 654 -18 q 490 13 522 -14 q 440 81 457 40 q 420 168 423 121 q 421 258 417 215 l 500 734 l 564 734 l 484 258 q 482 196 481 230 q 493 130 484 161 q 523 79 502 99 q 583 56 545 58 q 651 73 623 54 q 699 123 680 92 q 729 190 718 155 q 744 258 739 226 l 824 734 z "},"ѣ":{"ha":633,"x_min":33,"x_max":542,"o":"m 166 481 l 352 479 q 461 446 418 477 q 523 362 504 414 q 537 248 542 311 q 498 121 532 177 q 409 32 465 64 q 280 0 353 -1 l 33 0 l 216 1050 l 291 1050 l 121 71 l 284 69 q 373 95 335 71 q 433 157 411 118 q 462 247 456 197 q 457 323 467 287 q 422 383 448 359 q 351 410 396 407 l 153 410 l 166 481 m 427 805 l 415 734 l 52 734 l 65 805 l 427 805 z "},"Ѥ":{"ha":1038,"x_min":56,"x_max":991,"o":"m 736 552 l 723 481 l 179 481 l 192 552 l 736 552 m 849 309 l 922 309 q 861 147 904 221 q 749 28 819 73 q 580 -13 679 -16 q 443 34 494 -10 q 368 146 392 78 q 340 291 344 214 q 345 433 336 367 l 363 555 q 402 710 375 631 q 476 856 430 789 q 588 964 522 924 q 745 1002 655 1004 q 891 953 837 1000 q 968 833 945 907 q 989 679 991 760 l 912 679 q 900 796 913 739 q 849 890 886 853 q 740 930 811 928 q 615 897 667 932 q 527 805 562 862 q 471 682 492 747 q 441 557 450 616 l 422 433 q 415 346 417 394 q 419 247 413 297 q 444 156 426 197 q 497 88 463 115 q 585 59 531 62 q 715 90 664 56 q 799 182 767 124 q 849 309 830 241 m 304 987 l 132 0 l 56 0 l 227 987 l 304 987 z "},"ѥ":{"ha":869,"x_min":33,"x_max":813,"o":"m 641 409 l 628 338 l 135 338 l 147 409 l 641 409 m 508 56 q 596 79 558 55 q 659 142 634 103 q 694 227 684 181 l 766 227 q 719 107 754 163 q 628 17 683 51 q 503 -14 573 -16 q 388 23 431 -12 q 323 114 345 58 q 298 232 302 169 q 300 351 294 294 l 303 380 q 332 508 311 443 q 392 628 354 573 q 484 717 429 684 q 613 747 539 751 q 730 707 685 745 q 794 610 774 669 q 810 486 813 551 l 738 486 q 729 573 741 530 q 689 646 718 616 q 608 677 660 675 q 509 651 549 680 q 441 577 468 623 q 398 479 414 532 q 376 380 383 427 l 374 351 q 369 262 369 312 q 380 166 369 212 q 422 90 392 120 q 508 56 452 59 m 235 734 l 107 0 l 33 0 l 161 734 l 235 734 z "},"Ѧ":{"ha":707,"x_min":-39,"x_max":621,"o":"m 454 879 l 44 0 l -39 0 l 427 988 l 483 988 l 454 879 m 543 0 l 440 891 l 448 987 l 500 987 l 621 0 l 543 0 m 556 395 l 543 321 l 151 321 l 165 395 l 556 395 m 393 370 l 327 0 l 251 0 l 315 370 l 393 370 z "},"ѧ":{"ha":625,"x_min":-47,"x_max":517,"o":"m 313 546 l 35 0 l -47 0 l 330 734 l 392 734 l 313 546 m 444 0 l 351 553 l 338 734 l 395 734 l 517 0 l 444 0 m 452 304 l 440 234 l 118 234 l 130 304 l 452 304 m 326 284 l 276 0 l 201 0 l 251 284 l 326 284 z "},"Ѩ":{"ha":1021,"x_min":65,"x_max":913,"o":"m 473 395 l 460 321 l 160 321 l 173 395 l 473 395 m 746 879 l 336 0 l 253 0 l 720 988 l 775 988 l 746 879 m 836 0 l 733 891 l 741 987 l 793 987 l 913 0 l 836 0 m 848 395 l 835 321 l 444 321 l 457 395 l 848 395 m 684 370 l 619 0 l 543 0 l 608 370 l 684 370 m 314 987 l 142 0 l 65 0 l 237 987 l 314 987 z "},"ѩ":{"ha":879,"x_min":52,"x_max":764,"o":"m 397 304 l 385 234 l 124 234 l 137 304 l 397 304 m 558 544 l 281 0 l 200 0 l 577 734 l 639 734 l 558 544 m 690 0 l 597 551 l 585 734 l 642 734 l 764 0 l 690 0 m 700 304 l 688 234 l 364 234 l 377 304 l 700 304 m 572 284 l 522 0 l 448 0 l 497 284 l 572 284 m 255 734 l 126 0 l 52 0 l 180 734 l 255 734 z "},"Ѫ":{"ha":957,"x_min":28,"x_max":902,"o":"m 106 0 l 28 0 l 70 256 q 117 404 81 342 q 215 498 153 466 q 366 530 277 530 l 624 528 q 755 491 707 526 q 821 396 804 456 q 830 257 839 336 l 788 0 l 711 0 l 753 258 q 752 357 760 313 q 714 428 744 401 q 621 456 684 454 l 362 458 q 211 407 262 458 q 148 258 161 355 l 106 0 m 822 987 l 809 915 l 330 915 l 342 987 l 822 987 m 481 503 l 809 988 l 902 987 l 524 444 l 470 444 l 481 503 m 348 988 l 513 496 l 504 444 l 454 444 l 267 987 l 348 988 m 537 512 l 448 0 l 370 0 l 460 512 l 537 512 z "},"ѫ":{"ha":832,"x_min":29,"x_max":736,"o":"m 104 0 l 29 0 l 49 131 q 93 276 60 214 q 185 372 126 338 q 332 404 244 406 l 489 403 q 616 365 571 401 q 676 267 661 328 q 683 132 691 206 l 663 0 l 587 0 l 608 132 q 609 229 614 184 q 575 302 603 274 q 487 332 547 330 l 329 334 q 221 310 262 335 q 156 240 179 286 q 125 132 134 194 l 104 0 m 681 734 l 668 663 l 270 663 l 281 734 l 681 734 m 399 376 l 646 734 l 736 734 l 440 319 l 391 319 l 399 376 m 298 734 l 429 369 l 420 319 l 372 318 l 221 734 l 298 734 m 454 393 l 385 0 l 309 0 l 378 393 l 454 393 z "},"Ѭ":{"ha":1260,"x_min":55,"x_max":1204,"o":"m 704 530 l 692 460 l 191 460 l 203 530 l 704 530 m 303 987 l 132 0 l 55 0 l 227 987 l 303 987 m 408 0 l 330 0 l 372 257 q 420 405 385 343 q 517 498 456 466 q 668 530 578 530 l 926 528 q 1058 491 1009 526 q 1124 396 1106 456 q 1133 257 1141 336 l 1091 0 l 1014 0 l 1056 258 q 1055 357 1063 313 q 1016 428 1047 401 q 924 456 985 454 l 665 458 q 514 407 564 458 q 450 258 463 355 l 408 0 m 1125 987 l 1112 915 l 633 915 l 646 987 l 1125 987 m 784 503 l 1111 988 l 1204 987 l 827 444 l 771 444 l 784 503 m 651 988 l 815 496 l 807 444 l 756 444 l 569 987 l 651 988 m 839 512 l 750 0 l 673 0 l 762 512 l 839 512 z "},"ѭ":{"ha":1086,"x_min":34,"x_max":990,"o":"m 642 404 l 629 333 l 125 333 l 138 404 l 642 404 m 237 734 l 109 0 l 34 0 l 161 734 l 237 734 m 358 0 l 283 0 l 303 132 q 348 276 315 214 q 439 371 380 338 q 586 404 498 405 l 743 403 q 869 364 825 400 q 929 267 914 328 q 937 132 945 206 l 916 0 l 842 0 l 862 132 q 862 229 868 184 q 829 302 857 274 q 741 332 801 330 l 583 334 q 475 310 517 335 q 410 240 433 286 q 378 132 387 194 l 358 0 m 935 734 l 922 663 l 524 663 l 536 734 l 935 734 m 653 376 l 901 734 l 990 734 l 694 319 l 644 319 l 653 376 m 552 734 l 683 369 l 674 319 l 626 318 l 475 734 l 552 734 m 707 393 l 638 0 l 564 0 l 632 393 l 707 393 z "},"Ѯ":{"ha":610,"x_min":-16,"x_max":639,"o":"m 197 987 l 367 986 q 466 966 422 985 q 540 914 510 947 q 583 834 570 880 q 593 732 597 789 q 560 626 588 673 q 488 547 532 579 q 392 499 445 515 q 281 483 338 483 l 199 484 l 209 541 l 279 541 q 394 563 343 541 q 477 627 445 584 q 517 736 509 671 q 506 829 522 789 q 455 891 490 869 q 366 916 420 914 l 184 917 l 197 987 m 206 526 l 277 524 q 384 507 336 523 q 465 459 431 491 q 513 382 498 428 q 524 275 528 336 q 492 158 518 210 q 422 69 465 106 q 324 13 380 32 q 206 -7 269 -7 l 169 -6 q 93 -29 125 -7 q 56 -97 62 -51 q 62 -147 54 -124 q 89 -188 71 -170 q 129 -218 106 -205 l 96 -277 q 38 -232 62 -260 q -1 -169 13 -204 q -13 -96 -16 -134 q 15 -6 -10 -42 q 82 47 41 29 q 174 64 124 64 l 208 64 q 297 78 256 64 q 371 120 338 92 q 423 185 403 147 q 449 272 444 224 q 446 355 454 319 q 415 416 437 391 q 358 455 393 441 q 277 469 323 468 l 196 470 l 206 526 m 389 1297 l 456 1168 l 572 1297 l 639 1297 l 638 1288 l 479 1112 l 427 1112 l 322 1290 l 323 1298 l 389 1297 z "},"ѯ":{"ha":574,"x_min":-25,"x_max":538,"o":"m 146 734 l 302 732 q 384 720 345 732 q 452 684 423 707 q 497 626 481 661 q 510 543 513 591 q 481 454 507 491 q 415 395 455 418 q 329 360 376 372 q 237 349 281 349 l 155 350 l 165 407 l 235 408 q 325 420 281 408 q 399 464 369 433 q 434 546 429 494 q 428 600 437 578 q 398 635 418 621 q 353 655 378 648 q 300 662 328 661 l 132 663 l 146 734 m 163 392 l 233 391 q 319 381 277 390 q 395 351 361 372 q 448 297 429 331 q 463 212 467 262 q 435 116 460 157 q 372 47 411 75 q 284 7 332 20 q 184 -7 235 -7 l 159 -6 q 83 -29 115 -7 q 46 -97 51 -51 q 52 -148 43 -125 q 78 -188 61 -170 q 119 -218 96 -205 l 85 -277 q 27 -232 53 -260 q -12 -169 2 -204 q -23 -96 -25 -134 q 5 -7 -21 -42 q 72 46 31 28 q 164 64 114 64 l 187 64 q 256 73 222 64 q 318 98 290 81 q 366 143 347 115 q 389 209 385 171 q 381 271 393 247 q 346 310 369 296 q 293 330 323 323 q 232 336 264 336 l 152 337 l 163 392 m 286 1073 l 354 944 l 471 1073 l 538 1073 l 537 1065 l 378 888 l 326 888 l 220 1066 l 222 1074 l 286 1073 z "},"Ѳ":{"ha":789,"x_min":76,"x_max":739,"o":"m 487 1001 q 605 969 557 999 q 682 891 653 940 q 724 784 711 843 q 738 663 737 725 q 732 546 739 601 l 715 442 q 676 285 704 366 q 602 136 649 205 q 488 25 555 66 q 329 -14 420 -16 q 210 18 258 -12 q 134 96 162 47 q 92 204 106 145 q 77 325 79 263 q 83 442 76 387 l 100 546 q 139 703 111 622 q 214 852 167 783 q 328 963 260 922 q 487 1001 395 1004 m 482 927 q 354 894 408 930 q 264 800 300 858 q 207 674 228 741 q 177 547 186 608 q 175 536 176 542 q 174 526 174 531 l 652 526 q 654 538 653 532 q 655 549 654 544 q 663 664 663 600 q 647 787 662 728 q 592 885 631 846 q 482 927 553 924 m 333 60 q 463 94 409 58 q 553 188 517 130 q 609 313 588 246 q 640 441 631 380 q 640 448 640 445 q 641 455 640 452 l 163 455 q 162 448 163 452 q 161 441 161 444 q 154 326 154 390 q 170 202 155 262 q 224 103 185 142 q 333 60 264 64 z "},"ѳ":{"ha":667,"x_min":48,"x_max":600,"o":"m 380 749 q 497 710 452 746 q 565 620 542 675 q 594 501 588 564 q 593 380 600 437 l 591 358 q 559 227 583 294 q 496 105 536 161 q 399 17 456 50 q 268 -14 342 -16 q 152 23 197 -12 q 83 114 107 58 q 54 231 60 169 q 54 352 48 294 l 56 373 q 88 504 64 437 q 151 627 111 570 q 248 716 191 683 q 380 749 304 750 m 375 677 q 281 655 322 680 q 212 589 241 630 q 164 498 182 547 q 136 404 145 450 l 521 404 q 521 491 525 444 q 502 579 517 538 q 456 648 487 621 q 375 677 426 675 m 273 56 q 369 80 328 55 q 438 146 410 104 q 486 237 467 188 q 512 333 504 286 l 127 333 q 127 245 124 292 q 145 156 131 199 q 191 86 160 113 q 273 56 222 58 z "},"Ѵ":{"ha":727,"x_min":130,"x_max":797,"o":"m 311 176 l 582 818 q 624 906 600 863 q 684 977 648 949 q 776 1003 721 1004 l 797 1002 l 788 927 l 781 928 q 721 909 745 928 q 682 861 696 890 q 654 802 667 831 l 302 0 l 237 0 l 311 176 m 210 987 l 279 177 l 290 0 l 231 0 l 130 987 l 210 987 z "},"ѵ":{"ha":586,"x_min":96,"x_max":634,"o":"m 257 184 l 431 609 q 462 674 444 641 q 509 729 481 707 q 576 750 536 751 q 606 745 592 749 q 634 734 620 741 l 618 667 q 603 674 610 671 q 587 677 596 676 q 549 664 565 677 q 523 631 534 651 q 505 595 513 612 l 237 0 l 181 0 l 257 184 m 170 734 l 220 182 l 229 0 l 179 0 l 96 734 l 170 734 z "},"Ѻ":{"ha":790,"x_min":76,"x_max":739,"o":"m 550 1080 l 508 845 l 433 845 l 475 1080 l 550 1080 m 387 143 l 345 -96 l 270 -96 l 312 143 l 387 143 m 732 546 l 715 442 q 676 285 704 366 q 603 135 648 203 q 489 25 557 66 q 329 -14 420 -16 q 210 18 258 -12 q 134 96 162 47 q 92 204 105 145 q 77 325 79 263 q 83 442 76 387 l 99 546 q 139 703 111 622 q 214 852 167 783 q 328 962 260 920 q 487 1001 396 1004 q 605 969 557 999 q 682 891 653 940 q 724 784 711 843 q 738 663 737 725 q 732 546 739 601 m 640 442 l 655 549 q 663 640 661 590 q 657 740 664 690 q 630 831 650 789 q 574 899 610 873 q 482 927 538 925 q 354 894 408 930 q 264 800 300 859 q 207 675 229 742 q 177 547 186 608 l 161 441 q 154 350 155 400 q 159 250 152 300 q 186 158 167 200 q 241 90 206 116 q 333 61 277 64 q 463 94 410 58 q 552 188 517 130 q 609 314 588 247 q 640 442 631 380 z "},"ѻ":{"ha":659,"x_min":47,"x_max":600,"o":"m 439 821 l 399 592 l 324 592 l 365 821 l 439 821 m 322 140 l 281 -89 l 207 -89 l 248 140 l 322 140 m 54 352 l 56 373 q 88 504 64 437 q 152 627 111 570 q 249 716 192 683 q 380 749 305 750 q 497 710 452 745 q 565 619 542 675 q 594 501 588 564 q 593 380 600 438 l 591 358 q 560 228 584 294 q 496 106 536 161 q 400 17 457 50 q 268 -14 342 -16 q 152 23 197 -12 q 84 114 107 58 q 54 231 60 169 q 54 352 47 294 m 132 373 l 129 351 q 127 261 125 311 q 142 165 128 212 q 188 89 157 119 q 273 56 218 58 q 375 83 332 55 q 447 158 418 112 q 493 258 475 204 q 517 358 511 311 l 519 379 q 522 470 524 419 q 506 567 520 520 q 461 644 492 613 q 375 677 429 675 q 274 651 317 680 q 201 575 231 622 q 155 474 172 528 q 132 373 138 420 z "},"Ѽ":{"ha":1024,"x_min":82,"x_max":974,"o":"m 874 1143 l 894 1143 l 888 1083 l 869 1084 q 804 1101 833 1085 q 746 1138 774 1118 q 691 1175 719 1159 q 630 1191 663 1191 q 564 1160 587 1191 q 534 1092 541 1130 l 533 1080 l 477 1080 l 479 1101 q 524 1208 487 1162 q 628 1252 560 1253 q 693 1236 663 1253 q 750 1198 723 1219 q 807 1161 778 1177 q 874 1143 837 1145 m 585 903 l 557 937 q 593 981 579 959 q 614 1033 607 1004 l 625 1099 l 690 1099 l 680 1030 q 661 979 675 1002 q 628 936 648 955 q 585 903 608 918 m 423 988 l 414 916 q 314 877 352 913 q 256 787 276 840 q 228 680 237 733 l 166 291 q 163 222 163 261 q 172 146 163 183 q 203 84 181 109 q 269 58 226 59 q 368 90 329 55 q 428 177 408 125 q 456 279 449 230 l 509 597 l 574 597 l 521 280 q 495 174 513 227 q 447 77 477 121 q 370 8 416 33 q 262 -15 324 -18 q 164 16 201 -13 q 109 92 127 45 q 86 191 91 138 q 88 292 82 243 l 151 680 q 192 829 161 760 q 279 943 222 899 q 423 988 335 987 m 791 913 l 797 987 q 893 955 857 984 q 948 880 930 925 q 970 782 966 834 q 968 680 974 729 l 905 292 q 880 183 898 238 q 831 82 862 128 q 754 9 800 37 q 642 -15 707 -18 q 547 15 584 -12 q 492 86 511 42 q 469 181 473 130 q 469 280 464 232 l 522 597 l 587 597 l 534 279 q 532 209 530 247 q 546 137 534 171 q 582 81 557 104 q 650 57 607 58 q 727 77 695 55 q 780 136 759 100 q 812 214 801 173 q 828 291 824 256 l 891 681 q 895 751 895 713 q 887 825 896 789 q 856 885 879 861 q 791 913 833 909 z "},"ѽ":{"ha":924,"x_min":63,"x_max":844,"o":"m 789 922 l 808 922 l 804 862 l 785 863 q 719 880 749 863 q 662 917 689 896 q 606 953 634 937 q 545 968 577 968 q 478 938 502 968 q 448 870 455 907 l 448 858 l 392 858 l 394 878 q 438 986 401 941 q 543 1030 475 1031 q 608 1014 578 1030 q 665 977 637 998 q 723 939 693 956 q 789 922 752 922 m 495 673 l 467 708 q 503 752 488 729 q 522 804 517 774 l 534 869 l 600 869 l 589 800 q 571 749 585 772 q 538 707 557 726 q 495 673 518 688 m 345 744 l 336 674 q 246 637 280 671 q 195 554 212 603 q 171 458 178 505 l 144 271 q 141 209 141 244 q 149 139 141 173 q 176 81 156 104 q 234 55 197 57 q 304 73 275 54 q 354 122 334 91 q 385 189 374 153 q 401 258 397 224 l 427 424 l 490 424 l 464 258 q 441 160 457 210 q 397 71 425 111 q 327 7 368 31 q 228 -15 285 -17 q 137 15 171 -12 q 86 86 103 42 q 66 178 70 130 q 68 271 63 227 l 95 458 q 132 595 104 530 q 212 701 160 661 q 345 744 264 742 m 680 671 l 684 743 q 772 712 739 739 q 822 642 806 684 q 841 550 838 599 q 840 458 844 502 l 813 271 q 790 171 806 222 q 746 77 774 120 q 675 8 718 34 q 574 -15 633 -18 q 485 13 519 -13 q 434 79 452 38 q 413 166 416 119 q 414 258 409 214 l 439 424 l 502 424 l 477 258 q 475 194 473 229 q 487 129 477 159 q 519 77 497 98 q 581 56 542 56 q 650 75 621 54 q 696 130 678 96 q 724 201 715 164 q 739 271 734 239 l 765 458 q 769 522 768 487 q 763 589 770 556 q 736 645 756 622 q 680 671 717 667 z "},"Ѿ":{"ha":1029,"x_min":81,"x_max":1026,"o":"m 610 1151 l 437 1151 l 444 1206 l 868 1206 l 859 1151 l 676 1151 l 663 1073 l 593 1073 l 610 1151 m 577 987 l 642 987 l 521 281 q 495 174 513 227 q 447 78 477 121 q 370 8 416 34 q 262 -15 325 -17 q 166 15 203 -13 q 110 86 129 42 q 86 180 91 130 q 86 280 81 231 l 207 987 l 283 987 l 163 279 q 161 212 160 249 q 173 141 163 175 q 205 83 182 106 q 268 58 227 60 q 368 91 329 56 q 428 178 406 125 q 456 279 449 230 l 577 987 m 949 987 l 1026 987 l 905 281 q 865 139 895 208 q 780 26 835 70 q 640 -15 724 -18 q 546 15 581 -13 q 492 87 510 43 q 470 182 473 132 q 471 280 466 233 l 591 987 l 656 987 l 536 279 q 534 211 532 248 q 546 139 535 174 q 582 82 557 105 q 646 58 606 60 q 744 92 706 56 q 802 179 781 127 q 829 279 823 231 l 949 987 z "},"ѿ":{"ha":948,"x_min":68,"x_max":899,"o":"m 526 932 l 353 932 l 361 987 l 785 987 l 776 932 l 592 932 l 576 844 l 508 844 l 526 932 m 488 734 l 551 734 l 471 259 q 448 161 465 210 q 404 71 431 112 q 334 6 376 31 q 234 -16 292 -18 q 146 12 180 -14 q 95 79 112 38 q 73 166 78 119 q 73 258 68 214 l 154 734 l 229 734 l 149 258 q 146 198 146 231 q 155 132 146 164 q 184 79 163 100 q 241 56 205 58 q 330 86 295 54 q 384 166 365 118 q 408 258 402 214 l 488 734 m 824 734 l 899 734 l 819 258 q 782 129 810 193 q 704 23 754 64 q 576 -16 653 -18 q 490 13 522 -13 q 440 80 457 39 q 420 168 424 121 q 421 258 416 215 l 500 734 l 564 734 l 484 258 q 482 196 481 230 q 493 131 484 161 q 524 79 502 100 q 583 56 545 58 q 651 73 623 54 q 699 123 680 92 q 729 190 718 154 q 744 258 739 226 l 824 734 z "},"Ҁ":{"ha":746,"x_min":83,"x_max":730,"o":"m 325 60 l 319 -14 q 206 20 252 -11 q 134 101 161 52 q 96 210 108 151 q 84 329 85 269 q 91 441 83 389 l 108 554 q 147 706 119 627 q 219 853 174 785 q 330 963 264 922 q 484 1002 396 1005 q 631 954 576 1000 q 708 834 686 907 q 723 679 730 762 l 646 679 q 638 796 650 739 q 588 890 625 852 q 480 930 551 927 q 357 896 409 932 q 271 801 306 859 q 216 677 237 743 q 186 555 195 611 l 169 440 q 161 353 163 401 q 164 254 159 304 q 188 162 170 205 q 239 91 205 119 q 325 60 272 62 m 374 58 l 320 -248 l 243 -248 l 297 58 l 374 58 z "},"ҁ":{"ha":621,"x_min":60,"x_max":574,"o":"m 271 58 l 263 -14 q 152 26 194 -9 q 90 117 110 62 q 64 234 69 172 q 66 351 60 296 l 68 380 q 98 507 77 441 q 158 627 120 572 q 251 717 196 683 q 378 747 306 751 q 494 707 450 745 q 556 609 538 669 q 569 485 574 549 l 498 485 q 492 572 502 528 q 453 646 481 616 q 373 677 425 675 q 276 651 317 680 q 208 576 235 623 q 165 477 180 530 q 144 380 150 425 l 140 351 q 135 262 135 311 q 147 168 135 214 q 188 92 159 123 q 271 58 217 61 m 315 57 l 262 -249 l 186 -249 l 240 57 l 315 57 z "},"҂":{"ha":720,"x_min":48,"x_max":709,"o":"m 486 559 l 316 291 l 456 174 l 416 113 l 274 227 l 132 0 l 48 0 l 222 273 l 81 389 l 121 450 l 263 335 l 433 604 l 292 720 l 333 783 l 475 667 l 627 910 l 709 910 l 525 622 l 667 506 l 625 445 l 486 559 z "},"҃":{"ha":0,"x_min":-399,"x_max":-7,"o":"m -30 908 l -313 908 l -329 824 l -399 825 l -373 962 l -88 962 l -76 1036 l -7 1036 l -30 908 z "},"҄":{"ha":0,"x_min":-399,"x_max":9,"o":"m -392 947 l -376 947 q -304 964 -337 947 q -241 1003 -272 981 q -179 1040 -211 1024 q -109 1055 -146 1055 q -18 1009 -45 1055 q 4 905 9 963 l 1 884 l -54 884 l -52 897 q -60 961 -49 930 q -112 993 -71 992 q -178 979 -146 994 q -241 942 -210 963 q -306 905 -273 921 q -378 888 -340 888 l -399 888 l -392 947 z "},"҅":{"ha":0,"x_min":-243,"x_max":-142,"o":"m -179 899 l -243 1023 l -227 1107 l -145 1107 l -163 1008 l -142 929 l -179 899 z "},"҆":{"ha":0,"x_min":-229,"x_max":-82,"o":"m -97 1017 l -197 899 l -229 932 l -180 1017 l -164 1107 l -82 1107 l -97 1017 z "},"҈":{"ha":0,"x_min":-1002,"x_max":279,"o":"m -344 861 l -419 860 q -372 955 -412 920 q -271 988 -332 989 q -177 952 -212 987 q -143 859 -142 917 l -216 859 q -226 908 -216 887 q -270 928 -237 928 q -319 909 -302 928 q -344 861 -336 889 m 13 673 l -63 672 q -15 766 -55 731 q 85 800 24 801 q 180 764 144 799 q 214 671 216 730 l 139 671 q 130 720 140 699 q 86 741 120 741 q 38 720 55 741 q 13 673 20 700 m 76 332 l 2 330 q 49 424 9 390 q 150 458 89 458 q 244 422 209 457 q 277 330 279 388 l 203 330 q 194 379 204 358 q 151 399 184 399 q 101 379 118 399 q 76 332 84 359 m -115 -20 l -189 -22 q -141 73 -181 38 q -41 106 -102 107 q 53 71 18 105 q 87 -22 88 37 l 12 -22 q 3 27 14 6 q -39 47 -7 47 q -89 27 -72 47 q -115 -20 -106 7 m -526 -213 l -602 -214 q -554 -119 -594 -153 q -454 -85 -514 -85 q -359 -122 -395 -87 q -326 -215 -324 -157 l -400 -215 q -409 -166 -399 -186 q -452 -145 -419 -145 q -502 -165 -484 -145 q -526 -213 -519 -185 m -753 673 l -829 672 q -781 767 -821 732 q -680 800 -741 801 q -586 764 -621 799 q -552 671 -551 729 l -625 671 q -635 720 -625 699 q -679 741 -646 741 q -728 721 -711 741 q -753 673 -745 701 m -928 332 l -1002 330 q -955 424 -995 390 q -854 458 -916 458 q -761 423 -795 457 q -728 330 -726 389 l -802 330 q -810 379 -800 358 q -854 399 -821 399 q -903 379 -886 399 q -928 332 -920 359 m -880 -20 l -954 -22 q -907 73 -947 38 q -806 106 -867 107 q -712 71 -747 105 q -679 -22 -677 37 l -753 -22 q -762 27 -752 6 q -806 47 -772 47 q -854 27 -838 47 q -880 -20 -871 7 z "},"҉":{"ha":0,"x_min":-991,"x_max":229,"o":"m -479 -41 l -388 -39 l -380 -52 l -498 -280 l -566 -280 l -479 -41 m -281 764 l -373 763 l -380 773 l -263 1002 l -195 1002 l -281 764 m -1 334 l 12 429 l 20 435 l 229 350 l 217 287 l -1 334 m -761 388 l -773 293 l -781 286 l -991 372 l -980 435 l -761 388 m -44 613 l -102 680 l -100 691 l 127 795 l 168 745 l -44 613 m -723 81 l -665 15 l -668 3 l -895 -102 l -935 -50 l -723 81 m -583 648 l -656 583 l -667 585 l -730 810 l -682 854 l -583 648 m -186 43 l -113 109 l -100 108 l -38 -117 l -87 -162 l -186 43 z "},"Ҋ":{"ha":848,"x_min":45,"x_max":815,"o":"m 149 156 l 736 988 l 815 987 l 644 0 l 566 0 l 711 833 l 124 0 l 45 0 l 217 987 l 294 987 l 149 156 m 705 1230 l 770 1231 q 737 1136 765 1175 q 666 1075 709 1096 q 566 1055 622 1054 q 438 1104 486 1057 q 393 1231 389 1151 l 462 1231 q 486 1146 459 1177 q 568 1114 512 1116 q 660 1145 625 1114 q 705 1230 694 1177 m 745 98 l 730 3 q 685 -119 718 -64 q 601 -218 652 -175 l 556 -180 q 597 -125 579 -154 q 628 -65 616 -96 q 648 0 641 -35 l 665 98 l 745 98 z "},"ҋ":{"ha":690,"x_min":32,"x_max":644,"o":"m 131 142 l 543 734 l 621 734 l 494 0 l 418 0 l 522 592 l 109 0 l 32 0 l 160 734 l 234 734 l 131 142 m 578 997 l 644 998 q 610 903 638 943 q 539 842 583 863 q 439 823 495 821 q 311 871 359 824 q 267 998 262 918 l 335 998 q 359 913 332 944 q 441 882 385 883 q 533 913 498 882 q 578 997 568 944 m 595 98 l 580 3 q 535 -119 568 -64 q 451 -218 503 -175 l 406 -180 q 448 -125 429 -154 q 478 -65 466 -96 q 498 0 491 -35 l 515 98 l 595 98 z "},"ҍ":{"ha":633,"x_min":33,"x_max":542,"o":"m 166 481 l 352 479 q 461 446 418 477 q 523 362 504 414 q 537 248 542 310 q 498 120 532 176 q 409 31 465 63 q 280 0 353 -1 l 33 0 l 226 1110 l 301 1110 l 121 71 l 284 69 q 373 95 335 71 q 433 158 411 118 q 461 247 456 197 q 457 323 467 287 q 422 383 448 359 q 351 410 396 407 l 153 410 l 166 481 m 459 987 l 446 917 l 83 917 l 97 987 l 459 987 z "},"Ҏ":{"ha":743,"x_min":40,"x_max":721,"o":"m 511 636 l 661 377 l 608 331 l 462 593 l 511 636 m 395 401 l 162 401 l 174 475 l 397 473 q 517 502 466 473 q 598 580 568 530 q 636 696 629 630 q 629 801 642 753 q 581 881 616 850 q 483 914 545 911 l 277 915 l 118 0 l 40 0 l 212 987 l 486 987 q 622 945 569 984 q 698 841 675 905 q 713 697 721 776 q 664 541 705 607 q 554 437 623 474 q 395 401 486 400 z "},"ҏ":{"ha":666,"x_min":-22,"x_max":584,"o":"m 378 229 l 506 -16 l 452 -64 l 328 187 l 378 229 m 203 589 l 52 -282 l -22 -282 l 154 734 l 223 734 l 203 589 m 578 378 l 576 363 q 550 240 568 306 q 499 115 532 174 q 415 20 466 56 q 292 -14 364 -16 q 197 13 237 -12 q 133 78 157 38 q 97 168 108 119 q 90 266 87 216 l 117 450 q 150 557 127 503 q 209 654 173 610 q 292 724 244 699 q 401 748 340 750 q 510 708 471 746 q 566 612 549 671 q 583 492 582 554 q 578 378 584 429 m 502 365 l 503 378 q 509 466 508 416 q 499 563 509 515 q 460 643 488 611 q 379 677 432 675 q 299 660 336 678 q 236 610 263 642 q 189 541 208 578 q 161 465 170 503 l 126 248 q 135 179 125 213 q 164 118 144 145 q 214 75 184 92 q 280 56 243 58 q 377 85 338 54 q 443 163 417 115 q 482 266 469 212 q 502 365 496 319 z "},"Ґ":{"ha":647,"x_min":39,"x_max":741,"o":"m 741 1227 l 686 917 l 612 917 l 667 1227 l 741 1227 m 699 987 l 686 915 l 275 915 l 115 0 l 39 0 l 210 987 l 699 987 z "},"ґ":{"ha":524,"x_min":28,"x_max":571,"o":"m 571 967 l 517 663 l 442 663 l 496 967 l 571 967 m 528 734 l 515 663 l 218 663 l 103 0 l 28 0 l 155 734 l 528 734 z "},"Ҕ":{"ha":692,"x_min":43,"x_max":704,"o":"m 704 987 l 691 915 l 280 915 l 121 0 l 43 0 l 215 987 l 704 987 m 191 488 l 203 563 l 325 562 q 462 528 408 560 q 546 441 516 495 q 585 320 576 387 q 586 180 594 252 q 556 46 578 112 q 495 -73 534 -19 q 400 -159 456 -126 q 269 -194 344 -192 l 276 -126 q 377 -95 336 -124 q 446 -21 418 -66 q 489 77 473 24 q 509 181 504 130 q 511 289 515 235 q 487 387 507 342 q 428 458 467 431 q 322 488 388 486 l 191 488 z "},"ҕ":{"ha":591,"x_min":28,"x_max":528,"o":"m 105 351 l 118 425 l 247 424 q 391 379 336 421 q 470 269 446 338 q 484 117 493 200 q 457 14 478 62 q 403 -75 437 -35 q 325 -143 369 -115 q 227 -185 280 -172 l 214 -118 q 312 -68 271 -102 q 377 14 353 -34 q 408 118 401 61 q 402 231 416 178 q 350 315 388 283 q 245 351 311 348 l 105 351 m 528 734 l 515 663 l 218 663 l 103 0 l 28 0 l 155 734 l 528 734 z "},"Җ":{"ha":1077,"x_min":-47,"x_max":1088,"o":"m 359 469 l 149 987 l 237 987 l 405 543 l 544 543 l 521 469 l 359 469 m 403 471 l 55 0 l -47 0 l 366 550 l 403 471 m 656 987 l 484 0 l 408 0 l 579 987 l 656 987 m 1088 987 l 699 469 l 535 469 l 539 543 l 668 543 l 991 988 l 1088 987 m 841 0 l 652 480 l 711 551 l 932 0 l 841 0 m 977 85 l 920 -241 l 846 -241 l 903 85 l 977 85 z "},"җ":{"ha":916,"x_min":-48,"x_max":897,"o":"m 283 338 l 111 734 l 196 734 l 328 414 l 445 414 l 423 338 l 283 338 m 326 342 l 52 0 l -48 0 l 288 411 l 326 342 m 538 734 l 410 0 l 336 0 l 463 734 l 538 734 m 897 734 l 588 338 l 444 338 l 448 414 l 557 414 l 802 734 l 897 734 m 701 0 l 543 351 l 597 411 l 790 0 l 701 0 m 826 85 l 769 -241 l 695 -241 l 752 85 l 826 85 z "},"Қ":{"ha":796,"x_min":45,"x_max":800,"o":"m 294 987 l 123 0 l 45 0 l 217 987 l 294 987 m 800 987 l 353 463 l 172 463 l 176 536 l 313 536 l 697 988 l 800 987 m 557 0 l 304 477 l 358 548 l 646 0 l 557 0 m 676 73 l 619 -254 l 545 -254 l 602 73 l 676 73 z "},"қ":{"ha":673,"x_min":31,"x_max":631,"o":"m 235 734 l 106 0 l 31 0 l 159 734 l 235 734 m 631 734 l 285 336 l 138 336 l 142 410 l 260 410 l 532 734 l 631 734 m 432 0 l 246 351 l 300 410 l 523 0 l 432 0 m 562 85 l 505 -241 l 431 -241 l 488 85 l 562 85 z "},"Ҝ":{"ha":724,"x_min":39,"x_max":773,"o":"m 211 987 l 288 987 l 117 0 l 39 0 l 211 987 m 317 730 l 381 730 l 302 275 l 237 275 l 317 730 m 677 988 l 773 987 l 422 466 l 165 466 l 172 539 l 395 540 l 677 988 m 379 480 l 436 551 l 629 0 l 538 0 l 379 480 z "},"ҝ":{"ha":643,"x_min":31,"x_max":655,"o":"m 159 734 l 235 734 l 106 0 l 31 0 l 159 734 m 276 572 l 338 572 l 269 176 l 206 176 l 276 572 m 557 734 l 655 734 l 370 336 l 138 336 l 142 410 l 345 410 l 557 734 m 330 351 l 386 411 l 549 0 l 457 0 l 330 351 z "},"Ҡ":{"ha":943,"x_min":144,"x_max":1008,"o":"m 456 987 l 444 917 l 144 917 l 157 987 l 456 987 m 503 987 l 331 0 l 254 0 l 425 987 l 503 987 m 1008 987 l 561 463 l 380 463 l 385 536 l 522 536 l 906 988 l 1008 987 m 766 0 l 512 477 l 566 548 l 854 0 l 766 0 z "},"ҡ":{"ha":779,"x_min":86,"x_max":792,"o":"m 358 734 l 345 663 l 86 663 l 99 734 l 358 734 m 396 734 l 269 0 l 193 0 l 321 734 l 396 734 m 792 734 l 448 336 l 301 336 l 305 410 l 422 410 l 694 734 l 792 734 m 594 0 l 408 351 l 463 410 l 686 0 l 594 0 z "},"Ң":{"ha":842,"x_min":42,"x_max":816,"o":"m 677 546 l 664 473 l 184 473 l 197 546 l 677 546 m 291 987 l 119 0 l 42 0 l 214 987 l 291 987 m 816 987 l 644 0 l 566 0 l 739 987 l 816 987 m 724 85 l 667 -241 l 593 -241 l 650 85 l 724 85 z "},"ң":{"ha":683,"x_min":33,"x_max":621,"o":"m 507 407 l 494 336 l 145 336 l 159 407 l 507 407 m 235 734 l 106 0 l 33 0 l 160 734 l 235 734 m 621 734 l 493 0 l 418 0 l 545 734 l 621 734 m 573 85 l 516 -241 l 442 -241 l 499 85 l 573 85 z "},"Ҥ":{"ha":1160,"x_min":41,"x_max":1206,"o":"m 1206 987 l 1192 917 l 798 917 l 764 987 l 1206 987 m 676 546 l 663 473 l 182 473 l 196 546 l 676 546 m 290 987 l 118 0 l 41 0 l 213 987 l 290 987 m 814 987 l 643 0 l 566 0 l 738 987 l 814 987 z "},"ҥ":{"ha":844,"x_min":28,"x_max":848,"o":"m 848 734 l 836 663 l 567 663 l 581 734 l 848 734 m 503 407 l 490 336 l 141 336 l 154 407 l 503 407 m 231 734 l 103 0 l 28 0 l 156 734 l 231 734 m 617 734 l 490 0 l 414 0 l 543 734 l 617 734 z "},"Ҧ":{"ha":1187,"x_min":39,"x_max":1085,"o":"m 808 987 l 637 0 l 559 0 l 718 915 l 277 915 l 117 0 l 39 0 l 212 987 l 808 987 m 682 493 l 695 567 l 817 566 q 953 532 899 564 q 1037 446 1007 500 q 1076 325 1067 392 q 1077 184 1085 257 q 1047 51 1069 117 q 986 -68 1025 -14 q 892 -154 948 -121 q 760 -189 836 -187 l 767 -121 q 869 -91 827 -119 q 938 -17 910 -62 q 980 82 965 28 q 1001 185 996 135 q 1003 294 1007 240 q 979 391 999 347 q 919 463 959 435 q 814 492 879 490 l 682 493 z "},"ҧ":{"ha":994,"x_min":28,"x_max":901,"o":"m 504 351 l 517 425 l 649 424 q 795 380 738 422 q 876 270 852 339 q 892 117 901 201 q 866 14 886 62 q 811 -76 845 -35 q 733 -144 777 -116 q 634 -185 688 -172 l 623 -118 q 719 -68 678 -102 q 784 14 760 -34 q 816 119 808 62 q 808 232 823 180 q 753 316 793 284 q 646 351 713 348 l 504 351 m 557 734 l 543 663 l 201 663 l 214 734 l 557 734 m 231 734 l 103 0 l 28 0 l 156 734 l 231 734 m 617 734 l 490 0 l 414 0 l 543 734 l 617 734 z "},"Ҩ":{"ha":867,"x_min":79,"x_max":844,"o":"m 745 58 l 739 -17 q 564 25 639 -14 q 440 130 488 64 q 373 280 392 195 q 366 461 353 365 l 393 632 q 420 749 401 685 q 471 870 439 812 q 552 963 503 928 q 668 996 600 999 q 771 956 734 995 q 824 860 808 918 q 842 741 840 802 q 838 631 844 680 l 809 452 q 760 281 795 366 q 668 130 725 197 q 533 22 611 62 q 357 -14 455 -17 q 208 35 265 -11 q 122 152 151 80 q 86 304 92 223 q 90 458 79 385 l 112 598 q 144 734 122 664 q 205 865 167 804 q 300 963 243 925 q 435 1003 357 1002 l 426 928 q 326 893 368 926 q 257 809 284 860 q 213 703 229 759 q 190 600 197 647 l 168 458 q 162 336 160 403 q 183 207 165 269 q 245 104 202 144 q 361 60 288 63 q 506 91 443 57 q 616 183 570 125 q 692 311 663 241 q 732 452 720 382 l 760 633 q 766 710 764 663 q 761 806 768 758 q 731 887 754 854 q 662 923 709 921 q 578 895 612 925 q 523 817 545 864 q 489 720 500 769 q 471 633 477 670 l 444 458 q 445 306 432 378 q 496 179 458 234 q 596 92 534 124 q 745 58 659 60 z "},"ҩ":{"ha":701,"x_min":65,"x_max":639,"o":"m 593 66 l 587 -8 q 446 27 507 -4 q 347 112 385 58 q 294 234 309 165 q 289 380 279 303 l 298 452 q 316 544 303 493 q 354 643 330 595 q 415 721 378 690 q 507 748 452 751 q 587 712 559 747 q 627 627 616 677 q 638 525 638 576 q 635 438 639 474 l 625 368 q 590 233 616 302 q 522 108 564 165 q 419 17 479 51 q 281 -15 359 -17 q 164 27 210 -12 q 97 125 119 66 q 70 252 75 185 q 73 375 65 318 l 79 425 q 102 533 86 477 q 148 636 119 588 q 220 716 176 685 q 326 749 264 747 l 316 677 q 246 648 275 674 q 198 582 217 621 q 169 502 180 543 q 155 427 159 460 l 148 374 q 143 281 143 334 q 156 178 144 229 q 200 94 169 127 q 288 58 231 61 q 394 84 349 55 q 473 160 440 113 q 524 262 505 207 q 550 368 543 317 l 559 440 q 565 496 563 458 q 564 575 567 534 q 546 646 560 616 q 499 677 531 675 q 440 654 463 679 q 404 591 417 629 q 384 515 391 553 q 373 453 376 477 l 363 378 q 366 260 356 315 q 404 162 375 205 q 479 94 432 119 q 593 66 527 68 z "},"Ҳ":{"ha":739,"x_min":-22,"x_max":765,"o":"m 231 987 l 385 573 l 669 988 l 765 988 l 422 497 l 614 0 l 528 0 l 368 428 l 73 0 l -22 0 l 332 505 l 144 987 l 231 987 m 640 85 l 583 -241 l 509 -241 l 566 85 l 640 85 z "},"ҳ":{"ha":597,"x_min":-28,"x_max":585,"o":"m 182 734 l 291 441 l 492 734 l 585 734 l 323 370 l 474 0 l 392 0 l 276 307 l 65 0 l -28 0 l 243 378 l 100 734 l 182 734 m 509 85 l 452 -241 l 378 -241 l 435 85 l 509 85 z "},"Ҵ":{"ha":1015,"x_min":121,"x_max":949,"o":"m 661 987 l 648 917 l 121 917 l 134 987 l 661 987 m 871 75 l 811 -238 l 740 -238 l 781 0 l 701 0 l 715 75 l 871 75 m 180 0 l 353 987 l 429 987 l 271 73 l 713 73 l 871 987 l 949 987 l 778 0 l 180 0 z "},"ҵ":{"ha":770,"x_min":73,"x_max":711,"o":"m 478 734 l 466 664 l 73 664 l 86 734 l 478 734 m 121 0 l 249 734 l 324 734 l 209 71 l 519 71 l 635 734 l 711 734 l 583 0 l 121 0 m 659 71 l 602 -218 l 533 -218 l 572 0 l 499 0 l 511 71 l 659 71 z "},"Ҷ":{"ha":796,"x_min":152,"x_max":770,"o":"m 207 987 l 283 987 l 239 712 q 241 600 232 651 q 284 516 250 548 q 387 484 318 485 q 451 486 419 482 q 513 495 482 489 q 575 510 545 502 q 636 528 606 519 l 629 455 q 569 436 599 445 q 508 421 538 427 q 446 412 477 415 q 383 410 414 409 q 239 452 291 411 q 170 561 187 492 q 161 713 152 629 l 207 987 m 693 987 l 770 987 l 599 0 l 522 0 l 693 987 m 678 85 l 621 -241 l 547 -241 l 604 85 l 678 85 z "},"ҷ":{"ha":649,"x_min":93,"x_max":587,"o":"m 587 734 l 458 0 l 384 0 l 511 734 l 587 734 m 502 399 l 496 330 q 430 299 465 312 q 360 279 396 286 q 288 272 324 271 q 161 311 204 273 q 105 412 118 349 q 100 547 93 474 l 130 734 l 205 734 l 176 547 q 174 451 170 497 q 204 374 178 404 q 292 343 231 344 q 364 351 328 343 q 435 372 400 359 q 502 399 469 385 m 538 85 l 481 -241 l 408 -241 l 465 85 l 538 85 z "},"Ҹ":{"ha":780,"x_min":151,"x_max":770,"o":"m 484 712 l 407 243 l 340 243 l 424 712 l 484 712 m 207 987 l 283 987 l 239 712 q 241 600 232 651 q 284 516 250 548 q 387 484 318 485 q 451 486 419 482 q 513 495 482 489 q 575 510 545 502 q 636 528 606 519 l 629 455 q 569 436 599 445 q 508 421 538 427 q 446 412 477 415 q 382 410 414 409 q 239 452 291 411 q 169 561 186 492 q 161 713 151 629 l 207 987 m 693 987 l 770 987 l 599 0 l 522 0 l 693 987 z "},"ҹ":{"ha":649,"x_min":113,"x_max":608,"o":"m 391 541 l 330 160 l 262 160 l 331 541 l 391 541 m 608 734 l 480 0 l 405 0 l 532 734 l 608 734 m 523 399 l 516 329 q 451 299 485 312 q 380 279 416 286 q 308 272 345 271 q 182 311 226 273 q 126 412 139 349 q 121 547 113 474 l 151 734 l 226 734 l 196 547 q 195 451 191 498 q 225 374 199 404 q 313 343 252 345 q 386 351 349 343 q 456 372 422 359 q 523 399 490 385 z "},"Һ":{"ha":780,"x_min":31,"x_max":650,"o":"m 595 0 l 517 0 l 563 275 q 561 388 570 336 q 518 472 553 440 q 414 505 484 503 q 351 502 383 505 q 288 493 319 499 q 226 478 257 486 q 164 459 195 469 l 172 532 q 232 552 202 543 q 292 566 262 560 q 354 575 323 572 q 418 578 386 578 q 562 536 509 576 q 632 427 614 496 q 640 274 650 359 l 595 0 m 108 0 l 31 0 l 203 987 l 279 987 l 108 0 z "},"Ҽ":{"ha":885,"x_min":88,"x_max":842,"o":"m 94 731 l 158 732 q 160 648 152 685 q 195 589 169 612 q 272 562 221 566 l 264 496 q 157 531 197 498 q 103 617 118 564 q 94 731 88 670 m 475 -14 q 334 23 391 -13 q 247 119 278 60 q 206 250 215 178 q 208 395 197 322 l 237 584 q 275 727 248 654 q 347 864 302 801 q 455 966 392 928 q 601 1001 518 1004 q 737 956 686 998 q 811 849 788 914 q 838 709 835 783 q 833 568 842 635 l 821 494 l 269 494 l 281 562 l 754 562 l 759 591 q 765 695 766 638 q 749 805 764 753 q 697 891 733 857 q 596 927 661 925 q 481 897 530 929 q 397 812 431 865 q 343 699 363 759 q 314 584 323 638 l 285 395 q 280 280 276 338 q 304 172 283 222 q 367 91 325 122 q 479 59 410 60 q 597 79 542 58 q 703 137 653 101 l 719 73 q 647 22 687 41 q 563 -6 607 3 q 475 -14 519 -14 z "},"ҽ":{"ha":694,"x_min":31,"x_max":634,"o":"m 36 579 l 98 580 q 109 480 92 522 q 191 435 126 439 l 183 370 q 90 402 124 372 q 43 479 56 432 q 36 579 31 526 m 338 -14 q 223 22 267 -12 q 154 111 178 57 q 123 226 130 164 q 123 344 117 288 l 126 374 q 156 500 133 434 q 217 624 178 567 q 311 715 256 680 q 437 748 366 751 q 544 713 504 745 q 605 630 585 681 q 630 521 625 579 q 628 410 634 463 l 622 361 l 168 361 l 179 432 l 555 431 l 557 441 q 559 515 562 475 q 544 592 557 555 q 503 652 530 628 q 433 677 476 675 q 334 650 376 680 q 265 573 292 621 q 221 472 237 526 q 200 374 205 419 l 196 345 q 195 256 192 305 q 213 162 198 207 q 260 88 229 118 q 344 57 292 58 q 445 84 401 54 q 522 156 488 113 l 566 116 q 505 46 540 76 q 428 1 470 17 q 338 -14 387 -15 z "},"Ӄ":{"ha":724,"x_min":39,"x_max":772,"o":"m 288 987 l 117 0 l 39 0 l 211 987 l 288 987 m 772 987 l 327 468 l 167 468 l 172 545 l 299 545 l 674 988 l 772 987 m 237 468 l 251 545 l 374 543 q 510 509 456 542 q 594 423 564 477 q 634 301 625 369 q 635 161 643 233 q 605 28 627 94 q 544 -92 583 -38 q 448 -178 505 -145 q 316 -213 392 -210 l 323 -144 q 424 -113 382 -141 q 493 -39 465 -85 q 535 58 520 6 q 556 161 551 111 q 558 269 562 215 q 534 367 554 323 q 475 438 515 410 q 371 467 435 465 l 237 468 z "},"ӄ":{"ha":627,"x_min":31,"x_max":631,"o":"m 235 734 l 106 0 l 31 0 l 159 734 l 235 734 m 631 734 l 268 336 l 138 336 l 142 410 l 242 410 l 531 734 l 631 734 m 119 336 l 133 410 l 274 410 q 419 369 362 408 q 502 263 477 330 q 519 111 527 196 q 493 9 513 57 q 439 -77 472 -38 q 362 -144 406 -117 q 267 -185 319 -172 l 252 -117 q 346 -70 306 -102 q 412 10 387 -37 q 443 111 437 56 q 435 224 450 175 q 378 303 419 274 q 271 335 338 333 l 119 336 z "},"Ӆ":{"ha":841,"x_min":-33,"x_max":809,"o":"m 747 987 l 734 915 l 344 915 l 357 987 l 747 987 m 809 987 l 637 0 l 560 0 l 732 987 l 809 987 m 330 987 l 408 987 l 308 530 q 285 409 298 478 q 254 267 273 339 q 202 133 235 195 q 120 35 170 72 q -5 0 69 -2 l -33 0 l -24 72 l -3 73 q 94 111 56 75 q 157 202 133 146 q 196 320 182 257 q 218 442 210 383 q 235 541 227 500 l 330 987 m 737 98 l 722 3 q 678 -119 711 -64 q 593 -218 645 -175 l 549 -180 q 590 -125 572 -154 q 621 -65 608 -96 q 640 0 633 -35 l 658 98 l 737 98 z "},"ӆ":{"ha":690,"x_min":-32,"x_max":622,"o":"m 561 734 l 548 663 l 246 663 l 259 734 l 561 734 m 622 734 l 494 0 l 418 0 l 546 734 l 622 734 m 239 734 l 315 734 l 243 389 q 225 295 235 347 q 201 191 216 243 q 160 94 185 138 q 96 24 135 50 q -1 0 57 -2 l -32 0 l -22 73 l -1 74 q 72 102 43 77 q 118 166 100 127 q 147 250 136 205 q 164 337 157 294 q 174 410 170 379 l 239 734 m 595 98 l 580 3 q 535 -119 568 -64 q 451 -218 503 -175 l 406 -180 q 448 -125 429 -154 q 478 -65 466 -96 q 498 0 491 -35 l 515 98 l 595 98 z "},"Ӈ":{"ha":825,"x_min":43,"x_max":812,"o":"m 215 987 l 293 987 l 212 526 l 654 526 l 734 987 l 812 987 l 633 -58 q 602 -173 625 -118 q 536 -264 579 -229 q 425 -298 493 -300 q 390 -294 407 -298 q 357 -283 374 -290 l 374 -213 q 401 -223 387 -219 q 429 -227 414 -227 q 499 -199 473 -227 q 538 -133 525 -172 q 555 -58 551 -94 l 642 453 l 200 453 l 121 0 l 43 0 l 215 987 z "},"ӈ":{"ha":659,"x_min":28,"x_max":617,"o":"m 156 734 l 231 734 l 173 407 l 486 407 l 543 734 l 617 734 l 482 -60 q 451 -174 474 -119 q 386 -264 429 -229 q 275 -298 343 -300 q 241 -294 257 -298 q 209 -283 224 -290 l 224 -216 q 252 -224 238 -220 q 279 -228 265 -228 q 350 -202 323 -229 q 389 -135 376 -174 q 408 -60 403 -95 l 473 336 l 162 336 l 102 0 l 28 0 l 156 734 z "},"Ӊ":{"ha":850,"x_min":42,"x_max":816,"o":"m 677 546 l 664 473 l 184 473 l 197 546 l 677 546 m 291 987 l 119 0 l 42 0 l 214 987 l 291 987 m 816 987 l 644 0 l 566 0 l 739 987 l 816 987 m 745 98 l 730 3 q 686 -119 719 -64 q 602 -218 653 -175 l 557 -180 q 598 -125 580 -154 q 629 -65 616 -96 q 648 0 642 -35 l 666 98 l 745 98 z "},"ӊ":{"ha":689,"x_min":33,"x_max":621,"o":"m 507 407 l 494 336 l 145 336 l 159 407 l 507 407 m 235 734 l 106 0 l 33 0 l 160 734 l 235 734 m 621 734 l 493 0 l 418 0 l 545 734 l 621 734 m 594 98 l 579 3 q 535 -119 568 -64 q 450 -218 502 -175 l 406 -180 q 447 -125 429 -154 q 478 -65 465 -96 q 497 0 490 -35 l 515 98 l 594 98 z "},"Ӎ":{"ha":1024,"x_min":42,"x_max":996,"o":"m 239 987 l 313 987 l 453 122 l 892 988 l 972 988 l 465 0 l 405 0 l 239 987 m 214 987 l 281 987 l 193 427 l 119 0 l 42 0 l 214 987 m 927 987 l 996 987 l 824 0 l 747 0 l 822 433 l 927 987 m 920 98 l 905 3 q 861 -119 894 -64 q 777 -218 828 -175 l 732 -180 q 773 -125 755 -154 q 804 -65 791 -96 q 823 0 817 -35 l 841 98 l 920 98 z "},"ӎ":{"ha":880,"x_min":35,"x_max":811,"o":"m 379 116 l 717 734 l 795 734 l 389 0 l 336 0 l 186 734 l 256 734 l 379 116 m 236 734 l 109 0 l 35 0 l 162 734 l 236 734 m 608 0 l 736 734 l 811 734 l 684 0 l 608 0 m 785 98 l 770 3 q 725 -119 758 -64 q 641 -218 692 -175 l 596 -180 q 637 -125 619 -154 q 668 -65 656 -96 q 688 0 681 -35 l 705 98 l 785 98 z "},"Ә":{"ha":817,"x_min":71,"x_max":771,"o":"m 483 1000 q 635 957 576 999 q 725 848 694 916 q 764 702 756 781 q 761 545 771 622 l 747 457 q 705 297 735 380 q 626 143 675 214 q 507 28 577 72 q 347 -14 437 -16 q 201 28 258 -11 q 115 130 144 66 q 79 268 86 193 q 81 418 71 344 l 95 503 l 708 503 l 695 432 l 162 432 l 155 395 q 152 281 148 340 q 177 173 156 222 q 240 93 198 124 q 352 60 283 61 q 483 96 427 58 q 577 195 539 134 q 638 326 615 256 q 670 456 661 395 l 684 546 q 690 671 692 606 q 667 795 688 737 q 602 889 647 852 q 480 927 557 926 q 356 906 414 928 q 243 848 298 884 l 227 913 q 303 964 261 945 q 391 992 346 983 q 483 1000 437 1001 z "},"Ӡ":{"ha":679,"x_min":47,"x_max":675,"o":"m 191 987 l 675 987 l 666 918 l 326 527 l 275 527 l 280 572 l 573 915 l 180 915 l 191 987 m 280 569 l 349 570 q 485 527 435 568 q 554 419 535 486 q 567 275 574 353 q 538 160 562 213 q 475 66 514 106 q 384 4 436 26 q 267 -16 331 -18 q 164 11 207 -14 q 95 76 121 35 q 58 169 68 117 q 52 274 47 220 l 130 274 q 137 175 125 224 q 182 93 149 126 q 274 59 216 60 q 383 86 336 56 q 457 164 429 115 q 490 272 484 213 q 487 381 496 330 q 444 466 477 433 q 343 501 410 499 l 268 502 l 280 569 z "},"ӡ":{"ha":679,"x_min":4,"x_max":629,"o":"m 148 734 l 629 734 l 620 667 l 285 273 l 230 273 l 236 318 l 524 663 l 137 663 l 148 734 m 236 314 l 295 313 q 433 271 381 311 q 507 166 486 231 q 522 20 529 101 q 493 -93 516 -40 q 430 -186 469 -146 q 339 -248 391 -227 q 222 -268 286 -270 q 120 -242 163 -267 q 51 -176 77 -217 q 15 -85 25 -136 q 9 20 4 -35 l 84 20 q 91 -79 79 -30 q 137 -162 103 -129 q 230 -197 170 -195 q 339 -170 292 -199 q 414 -91 387 -140 q 448 18 441 -42 q 442 128 454 77 q 395 212 431 180 q 292 246 359 244 l 223 247 l 236 314 z "},"Ӻ":{"ha":681,"x_min":-75,"x_max":726,"o":"m 726 987 l 713 915 l 302 915 l 143 0 l 65 0 l 237 987 l 726 987 m 401 582 l 389 511 l 46 511 l 60 582 l 401 582 m 147 92 l 221 92 l 197 -59 q 167 -173 189 -117 q 102 -264 144 -229 q -9 -298 60 -300 q -42 -294 -26 -298 q -75 -283 -58 -290 l -59 -213 q -31 -221 -45 -218 q -3 -225 -17 -224 q 66 -199 40 -226 q 105 -134 92 -173 q 122 -60 118 -95 l 147 92 z "},"ӻ":{"ha":536,"x_min":-81,"x_max":558,"o":"m 558 734 l 545 663 l 248 663 l 134 0 l 59 0 l 186 734 l 558 734 m 382 452 l 370 380 l 26 380 l 40 452 l 382 452 m 140 92 l 214 92 l 191 -59 q 160 -173 182 -117 q 95 -264 138 -229 q -16 -298 53 -300 q -49 -294 -33 -298 q -81 -283 -65 -290 l -66 -213 q -38 -221 -52 -218 q -10 -225 -24 -224 q 59 -199 33 -226 q 98 -134 85 -173 q 115 -60 111 -95 l 140 92 z "},"Ӽ":{"ha":746,"x_min":-22,"x_max":765,"o":"m 231 987 l 385 573 l 669 988 l 765 988 l 422 497 l 614 0 l 528 0 l 368 428 l 73 0 l -22 0 l 332 505 l 144 987 l 231 987 m 574 92 l 648 92 l 625 -59 q 594 -173 616 -117 q 529 -264 572 -229 q 418 -298 487 -300 q 385 -294 401 -298 q 353 -283 369 -290 l 368 -213 q 396 -221 382 -218 q 424 -225 410 -224 q 493 -199 467 -226 q 532 -134 519 -173 q 549 -60 545 -95 l 574 92 z "},"ӽ":{"ha":605,"x_min":-28,"x_max":585,"o":"m 182 734 l 291 441 l 492 734 l 585 734 l 323 370 l 474 0 l 392 0 l 276 307 l 65 0 l -28 0 l 243 378 l 100 734 l 182 734 m 443 92 l 517 92 l 493 -59 q 463 -173 485 -117 q 398 -264 440 -229 q 287 -298 355 -300 q 253 -294 269 -298 q 221 -283 237 -290 l 237 -213 q 264 -221 250 -218 q 292 -225 279 -224 q 362 -199 336 -226 q 401 -134 388 -173 q 418 -60 414 -95 l 443 92 z "},"Ԁ":{"ha":686,"x_min":27,"x_max":700,"o":"m 348 576 l 576 574 l 564 501 l 345 503 q 231 474 281 502 q 152 396 182 446 q 114 285 121 347 q 120 184 107 231 q 168 107 133 138 q 261 74 202 77 l 463 73 l 622 987 l 700 987 l 528 0 l 259 1 q 125 42 178 5 q 50 142 73 80 q 35 283 27 205 q 66 401 41 347 q 132 495 91 456 q 227 554 172 534 q 348 576 282 575 z "},"Ԃ":{"ha":919,"x_min":28,"x_max":863,"o":"m 349 576 l 578 574 l 565 501 l 345 503 q 232 474 281 502 q 152 397 182 446 q 114 285 122 348 q 120 184 108 231 q 168 106 133 137 q 262 74 203 76 l 464 73 l 623 987 l 701 987 l 529 0 l 260 1 q 126 42 178 5 q 52 143 75 80 q 36 283 28 205 q 67 401 42 347 q 132 494 92 455 q 228 554 173 533 q 349 576 283 575 m 598 0 l 507 0 l 520 71 l 602 71 q 696 103 659 72 q 753 182 732 134 q 782 279 774 229 q 788 336 786 308 q 791 394 791 365 q 790 452 791 423 q 784 511 788 481 l 854 510 q 861 433 859 471 q 863 356 863 395 q 857 279 862 317 q 816 144 847 208 q 731 39 785 79 q 598 0 677 -1 z "},"ԃ":{"ha":999,"x_min":58,"x_max":910,"o":"m 64 341 l 65 356 q 91 483 73 414 q 142 613 109 551 q 227 712 175 674 q 352 749 278 750 q 431 727 397 746 q 486 678 464 709 q 521 609 509 647 q 538 529 534 570 q 541 450 543 488 l 515 273 q 484 169 505 220 q 428 75 462 117 q 347 8 393 33 q 241 -15 300 -17 q 135 23 173 -14 q 79 115 96 60 q 60 231 62 170 q 64 341 58 291 m 142 357 l 140 342 q 135 258 136 306 q 143 165 134 210 q 180 90 153 119 q 260 57 208 60 q 360 84 315 55 q 435 159 405 113 q 477 254 465 205 l 511 465 q 505 536 513 500 q 478 604 496 573 q 430 655 459 635 q 361 675 401 674 q 263 646 303 677 q 199 563 223 614 q 161 457 174 513 q 142 357 148 401 m 453 234 l 593 1058 l 667 1058 l 528 233 q 527 162 525 202 q 546 90 528 121 q 606 57 563 58 q 702 85 663 54 q 766 164 741 115 q 805 266 791 213 q 826 363 820 319 q 839 497 836 430 q 836 632 842 564 l 906 633 q 909 498 910 565 q 899 363 909 431 q 870 235 890 301 q 815 112 850 169 q 727 19 781 54 q 600 -14 674 -16 q 498 25 531 -14 q 456 121 465 64 q 453 234 448 178 z "},"Ԅ":{"ha":920,"x_min":129,"x_max":833,"o":"m 275 456 l 161 456 l 175 530 l 262 529 q 377 553 328 529 q 455 623 427 576 q 492 735 484 669 q 488 810 496 778 q 459 866 479 843 q 407 901 439 888 q 333 914 376 913 l 129 915 l 142 987 l 336 987 q 440 968 394 985 q 516 919 486 951 q 561 840 547 886 q 570 734 575 793 q 553 654 566 689 q 519 591 541 618 q 470 542 498 564 q 409 505 442 521 q 335 475 375 488 q 331 473 333 475 q 326 471 328 472 q 321 469 323 470 q 298 461 311 465 q 275 456 286 458 m 381 206 l 381 208 l 386 260 q 384 351 391 308 q 349 423 376 394 q 268 456 322 452 l 283 503 q 375 483 338 502 q 433 431 412 464 q 461 354 454 398 q 464 260 469 311 l 458 206 q 460 144 456 178 q 481 85 464 111 q 536 58 498 60 q 626 87 589 55 q 688 168 663 119 q 726 270 713 217 q 747 363 740 323 q 760 497 758 429 q 756 633 762 565 l 829 633 q 833 498 833 566 q 823 362 833 431 q 794 238 814 304 q 739 114 774 172 q 652 20 704 56 q 528 -15 600 -16 q 432 19 464 -14 q 389 102 399 52 q 381 206 378 152 z "},"ԅ":{"ha":755,"x_min":72,"x_max":689,"o":"m 208 323 l 72 323 l 84 393 l 192 391 q 271 408 235 393 q 332 452 308 422 q 360 527 356 481 q 351 598 365 568 q 307 646 336 629 q 237 665 278 663 l 87 665 l 96 734 l 239 733 q 346 707 300 731 q 417 638 393 683 q 436 530 441 593 q 416 455 433 482 q 375 413 400 429 q 320 382 350 397 q 260 345 291 368 q 256 339 258 343 q 253 332 255 336 q 249 327 252 328 q 229 323 243 323 q 208 323 216 323 m 366 142 l 368 148 q 374 84 366 112 q 427 54 383 56 q 505 74 473 52 q 558 132 537 96 q 592 211 580 169 q 609 288 604 252 q 616 395 617 342 q 604 502 615 448 l 675 500 q 686 395 682 448 q 682 289 689 342 q 656 181 675 235 q 607 82 638 127 q 530 9 576 37 q 422 -17 484 -18 q 360 -4 385 -16 q 319 30 334 8 q 297 81 303 52 q 294 145 292 110 l 300 201 q 291 267 302 241 q 253 306 279 293 q 189 322 227 319 l 205 373 q 301 353 261 372 q 359 296 340 334 q 373 200 378 258 l 366 142 z "},"Ԇ":{"ha":630,"x_min":127,"x_max":550,"o":"m 256 446 l 127 446 l 140 517 l 227 515 q 345 539 293 515 q 429 608 396 563 q 469 720 461 654 q 460 821 475 777 q 410 889 446 864 q 315 916 374 914 l 153 917 l 166 987 l 316 987 q 450 950 397 984 q 527 858 503 917 q 543 719 550 798 q 526 642 539 676 q 492 581 513 608 q 444 533 471 553 q 383 496 416 512 q 312 467 350 479 q 306 464 309 465 q 300 461 303 463 q 294 458 298 459 q 282 454 288 456 q 269 450 276 452 q 256 446 262 448 m 245 446 l 258 496 q 381 464 334 494 q 448 379 429 433 q 459 252 468 326 l 446 159 q 441 110 443 134 q 444 62 439 85 q 461 17 448 38 l 458 -1 l 387 -1 q 370 51 374 23 q 368 106 366 78 q 372 160 369 134 l 385 251 q 379 347 391 304 q 335 416 368 389 q 245 446 302 442 m 510 106 l 494 12 q 455 -108 484 -52 q 378 -208 426 -163 l 337 -170 q 373 -115 357 -143 q 401 -56 390 -87 q 420 9 413 -24 l 436 106 l 510 106 z "},"ԇ":{"ha":594,"x_min":106,"x_max":495,"o":"m 262 317 l 106 317 l 119 387 l 237 387 q 323 401 284 387 q 387 446 361 416 q 416 528 412 477 q 408 602 421 572 q 366 647 395 631 q 294 663 337 662 l 120 664 l 133 734 l 295 733 q 380 718 342 732 q 444 679 418 704 q 483 616 470 653 q 492 530 495 578 q 473 454 488 484 q 433 406 458 425 q 377 372 408 387 q 311 340 346 357 q 303 333 307 337 q 295 326 300 329 q 285 322 290 324 q 274 319 279 321 q 262 317 268 318 m 244 316 l 260 366 q 358 343 318 364 q 416 283 397 323 q 429 183 435 243 l 420 116 q 416 81 418 98 q 417 47 415 64 q 428 14 420 30 l 427 0 l 351 0 q 342 38 344 18 q 342 78 340 58 q 347 117 343 98 l 355 184 q 348 253 359 225 q 311 297 337 281 q 244 316 284 313 m 481 111 l 467 16 q 427 -104 456 -48 q 349 -205 397 -160 l 309 -166 q 346 -110 329 -139 q 374 -51 362 -81 q 393 14 386 -20 l 410 111 l 481 111 z "},"Ԉ":{"ha":1121,"x_min":-19,"x_max":1053,"o":"m 343 987 l 422 987 l 321 531 q 298 408 310 477 q 267 267 286 338 q 216 135 248 195 q 134 37 184 74 q 9 0 83 -1 l -19 0 l -10 72 l 11 73 q 108 111 68 75 q 171 202 147 146 q 209 320 195 257 q 232 443 223 384 q 248 541 240 501 l 343 987 m 739 987 l 726 915 l 355 915 l 368 987 l 739 987 m 594 235 l 722 987 l 798 987 l 671 235 q 669 182 669 211 q 675 124 669 153 q 699 78 682 96 q 749 58 717 59 q 844 86 805 56 q 908 165 883 117 q 946 267 932 214 q 966 363 960 320 q 979 497 976 430 q 976 633 982 564 l 1048 633 q 1052 498 1053 565 q 1041 362 1050 431 q 1013 236 1033 302 q 957 111 992 169 q 868 17 922 53 q 740 -16 814 -18 q 638 25 671 -13 q 596 121 604 64 q 594 235 587 178 z "},"ԉ":{"ha":938,"x_min":-26,"x_max":868,"o":"m 245 734 l 321 734 l 248 389 q 231 296 240 348 q 206 191 221 243 q 165 94 191 138 q 100 24 140 50 q 4 0 61 -2 l -26 0 l -17 73 l 4 74 q 77 101 48 77 q 123 165 105 126 q 152 249 141 205 q 169 336 163 294 q 180 410 174 379 l 245 734 m 549 734 l 536 663 l 254 663 l 267 734 l 549 734 m 448 234 l 532 734 l 606 734 l 524 233 q 521 182 522 211 q 527 124 520 153 q 550 77 533 96 q 597 56 566 58 q 680 80 646 54 q 735 149 713 106 q 769 236 757 191 q 787 319 781 281 q 797 447 795 383 q 793 574 799 511 l 862 574 q 867 447 867 510 q 859 319 868 383 q 833 206 852 265 q 784 96 815 147 q 704 14 752 45 q 589 -16 656 -18 q 508 9 538 -14 q 464 70 478 33 q 446 150 449 106 q 448 234 444 193 z "},"Ԋ":{"ha":1134,"x_min":44,"x_max":1034,"o":"m 196 525 l 639 525 l 626 452 l 182 452 l 196 525 m 216 987 l 294 987 l 122 0 l 44 0 l 216 987 m 703 987 l 779 987 l 652 233 q 651 162 649 203 q 670 90 653 121 q 730 58 687 59 q 826 86 787 56 q 889 165 864 117 q 927 267 913 214 q 947 363 941 320 q 960 497 958 429 q 957 632 963 564 l 1029 633 q 1033 498 1034 565 q 1023 363 1032 431 q 994 235 1014 302 q 938 111 973 168 q 849 18 903 53 q 722 -16 796 -18 q 621 25 654 -14 q 578 121 587 64 q 575 235 570 178 l 703 987 z "},"ԋ":{"ha":962,"x_min":24,"x_max":874,"o":"m 494 402 l 482 332 l 136 332 l 149 402 l 494 402 m 228 734 l 100 0 l 24 0 l 152 734 l 228 734 m 454 234 l 538 734 l 612 734 l 530 233 q 527 182 527 211 q 532 124 526 153 q 555 76 538 96 q 604 56 572 57 q 686 80 653 54 q 742 148 720 106 q 775 236 764 191 q 792 319 787 281 q 803 447 802 383 q 798 574 805 510 l 868 574 q 873 447 873 510 q 865 319 874 384 q 840 205 857 264 q 790 96 822 146 q 710 15 758 45 q 596 -16 663 -16 q 515 8 545 -15 q 471 69 485 32 q 453 150 456 106 q 454 234 450 193 z "},"Ԍ":{"ha":726,"x_min":77,"x_max":679,"o":"m 334 -15 q 200 28 253 -12 q 120 131 148 68 q 85 266 92 194 q 87 405 77 338 l 115 583 q 156 731 127 656 q 231 867 184 805 q 343 966 277 929 q 494 1003 408 1004 q 591 990 544 1002 q 679 949 637 978 l 647 883 q 572 918 612 906 q 490 931 532 930 q 370 900 421 932 q 282 816 318 868 q 224 703 245 764 q 193 584 202 642 l 165 404 q 160 297 157 356 q 181 184 163 238 q 236 95 199 130 q 340 58 274 60 q 455 90 408 56 q 530 177 502 123 q 567 292 558 231 q 579 413 577 352 q 578 534 582 473 l 652 534 q 653 413 654 473 q 643 292 652 353 q 592 140 631 211 q 488 26 553 69 q 334 -15 423 -18 z "},"ԍ":{"ha":606,"x_min":62,"x_max":530,"o":"m 286 56 q 365 75 332 55 q 417 129 398 94 q 444 208 436 164 q 450 286 448 246 q 451 365 452 325 l 520 365 q 520 286 521 326 q 515 208 520 246 q 477 92 508 143 q 396 12 446 41 q 278 -15 346 -17 q 164 23 208 -13 q 97 114 119 59 q 68 232 74 169 q 68 351 62 294 l 71 380 q 101 507 79 441 q 161 627 123 572 q 253 715 199 682 q 379 749 308 749 q 459 739 420 748 q 530 704 498 730 l 503 639 q 443 669 475 659 q 376 679 410 679 q 279 651 319 680 q 211 576 238 622 q 168 478 184 530 q 146 380 152 426 l 142 351 q 139 262 137 312 q 155 166 141 212 q 200 88 169 119 q 286 56 231 57 z "},"Ԏ":{"ha":827,"x_min":119,"x_max":770,"o":"m 770 987 l 758 915 l 119 915 l 132 987 l 770 987 m 284 235 l 412 987 l 490 987 l 362 235 q 359 181 359 211 q 366 124 359 152 q 390 78 372 96 q 440 58 407 60 q 534 86 496 56 q 598 165 573 117 q 636 267 623 214 q 656 363 650 320 q 669 497 667 429 q 667 632 672 564 l 739 633 q 742 498 743 565 q 732 363 741 431 q 703 236 723 302 q 647 111 682 169 q 559 18 612 53 q 431 -16 506 -18 q 330 25 363 -14 q 288 121 297 64 q 284 235 279 178 z "},"ԏ":{"ha":749,"x_min":94,"x_max":656,"o":"m 610 734 l 597 665 l 94 665 l 107 734 l 610 734 m 235 234 l 318 734 l 393 734 l 310 233 q 309 161 307 202 q 328 89 311 121 q 389 56 345 58 q 470 78 437 54 q 524 139 503 101 q 558 220 546 177 q 576 300 571 263 q 585 418 585 359 q 578 536 585 477 l 648 536 q 654 418 652 477 q 648 300 656 359 q 622 190 641 245 q 572 87 604 134 q 494 12 541 40 q 382 -16 447 -16 q 299 8 330 -14 q 253 68 269 31 q 235 149 238 105 q 235 234 231 192 z "},"Ԑ":{"ha":777,"x_min":64,"x_max":760,"o":"m 417 526 l 526 526 l 517 467 l 419 468 q 321 457 368 468 q 237 421 274 446 q 177 357 200 396 q 147 261 153 317 q 156 174 142 212 q 197 111 169 136 q 263 72 224 85 q 348 58 302 58 q 470 84 416 57 q 561 160 524 111 q 609 273 597 210 l 684 275 q 647 154 675 208 q 572 62 618 100 q 469 4 527 24 q 344 -14 410 -16 q 229 7 281 -12 q 139 61 177 26 q 82 148 101 96 q 68 264 64 199 q 105 385 75 335 q 184 465 136 434 q 293 511 233 496 q 417 526 353 526 m 519 481 l 420 481 q 319 499 367 483 q 234 545 271 515 q 178 620 197 575 q 163 722 158 665 q 197 844 168 791 q 272 932 227 897 q 377 986 318 968 q 503 1002 437 1003 q 640 964 581 1000 q 729 868 699 928 q 753 728 760 807 l 677 728 q 661 830 682 785 q 598 901 640 875 q 498 929 557 928 q 377 908 433 931 q 284 839 321 885 q 240 725 248 793 q 245 645 234 679 q 282 588 257 610 q 343 554 307 566 q 422 541 379 543 l 531 541 l 519 481 z "},"Ԓ":{"ha":842,"x_min":-33,"x_max":809,"o":"m 747 987 l 734 915 l 344 915 l 357 987 l 747 987 m 809 987 l 637 0 l 560 0 l 732 987 l 809 987 m 330 987 l 408 987 l 308 530 q 285 409 298 478 q 254 267 273 339 q 202 133 235 195 q 120 35 170 72 q -5 0 69 -2 l -33 0 l -24 72 l -3 73 q 94 111 56 75 q 157 202 133 146 q 196 320 182 257 q 218 442 210 383 q 235 541 227 500 l 330 987 m 651 92 l 725 92 l 701 -59 q 671 -173 693 -117 q 606 -264 648 -229 q 495 -298 564 -300 q 461 -294 477 -298 q 429 -283 446 -290 l 445 -213 q 473 -221 458 -218 q 500 -225 487 -224 q 570 -199 544 -226 q 609 -134 596 -173 q 626 -60 622 -95 l 651 92 z "},"ԓ":{"ha":692,"x_min":-32,"x_max":622,"o":"m 561 734 l 548 663 l 246 663 l 259 734 l 561 734 m 622 734 l 494 0 l 418 0 l 546 734 l 622 734 m 239 734 l 315 734 l 243 389 q 225 295 235 347 q 201 191 216 243 q 160 94 185 138 q 96 24 135 50 q -1 0 57 -2 l -32 0 l -22 73 l -1 74 q 72 102 43 77 q 118 166 100 127 q 147 250 136 205 q 164 337 157 294 q 174 410 170 379 l 239 734 m 508 92 l 582 92 l 558 -59 q 528 -173 550 -117 q 463 -264 505 -229 q 352 -298 420 -300 q 318 -294 334 -298 q 286 -283 302 -290 l 302 -213 q 330 -221 315 -218 q 357 -225 344 -224 q 427 -199 401 -226 q 466 -134 453 -173 q 483 -60 479 -95 l 508 92 z "}," ":{"ha":610,"x_min":0,"x_max":0,"o":""}," ":{"ha":1187,"x_min":0,"x_max":0,"o":""}," ":{"ha":610,"x_min":0,"x_max":0,"o":""}," ":{"ha":1187,"x_min":0,"x_max":0,"o":""}," ":{"ha":418,"x_min":0,"x_max":0,"o":""}," ":{"ha":321,"x_min":0,"x_max":0,"o":""}," ":{"ha":225,"x_min":0,"x_max":0,"o":""}," ":{"ha":669,"x_min":0,"x_max":0,"o":""}," ":{"ha":342,"x_min":0,"x_max":0,"o":""}," ":{"ha":264,"x_min":0,"x_max":0,"o":""}," ":{"ha":149,"x_min":0,"x_max":0,"o":""},"​":{"ha":0,"x_min":0,"x_max":0,"o":""},"‐":{"ha":351,"x_min":37,"x_max":317,"o":"m 317 471 l 304 400 l 37 400 l 50 471 l 317 471 z "},"‑":{"ha":351,"x_min":37,"x_max":317,"o":"m 317 471 l 304 400 l 37 400 l 50 471 l 317 471 z "},"–":{"ha":771,"x_min":115,"x_max":686,"o":"m 686 536 l 671 465 l 115 465 l 130 536 l 686 536 z "},"—":{"ha":908,"x_min":108,"x_max":869,"o":"m 869 536 l 849 465 l 108 465 l 128 536 l 869 536 z "},"‗":{"ha":540,"x_min":-77,"x_max":456,"o":"m 427 -165 l 414 -236 l -77 -236 l -64 -165 l 427 -165 m 456 0 l 444 -71 l -49 -71 l -35 0 l 456 0 z "},"‘":{"ha":233,"x_min":127,"x_max":298,"o":"m 127 760 l 140 835 q 162 917 146 878 q 201 991 178 956 q 256 1056 224 1025 l 298 1017 q 246 932 267 977 q 216 838 225 888 l 203 760 l 127 760 z "},"’":{"ha":233,"x_min":111,"x_max":282,"o":"m 282 1042 l 269 964 q 247 882 262 921 q 208 808 231 842 q 153 743 184 773 l 111 781 q 163 867 142 823 q 193 962 184 911 l 208 1042 l 282 1042 z "},"‚":{"ha":229,"x_min":-56,"x_max":115,"o":"m 115 139 l 103 62 q 82 -21 97 18 q 43 -95 66 -60 q -12 -160 19 -130 l -56 -121 q -4 -36 -25 -80 q 26 59 17 8 l 40 139 l 115 139 z "},"‛":{"ha":233,"x_min":154,"x_max":254,"o":"m 172 1042 l 246 1042 l 232 961 q 230 868 225 913 q 254 780 234 823 l 208 745 q 173 812 185 776 q 157 887 161 848 q 159 963 154 925 l 172 1042 z "},"“":{"ha":384,"x_min":130,"x_max":445,"o":"m 130 760 l 142 835 q 164 917 149 878 q 203 991 180 956 q 258 1056 227 1025 l 300 1017 q 248 932 269 977 q 218 838 227 888 l 205 760 l 130 760 m 275 760 l 287 835 q 309 917 294 878 q 348 991 325 956 q 404 1056 372 1025 l 445 1017 q 393 932 414 977 q 363 838 372 888 l 350 760 l 275 760 z "},"”":{"ha":387,"x_min":115,"x_max":427,"o":"m 287 1042 l 274 964 q 252 882 267 921 q 212 808 236 842 q 157 743 189 773 l 115 781 q 168 867 146 823 q 198 962 189 911 l 213 1042 l 287 1042 m 428 1042 l 415 964 q 393 882 408 921 q 353 808 377 842 q 298 743 330 773 l 256 781 q 309 867 288 823 q 339 962 330 911 l 354 1042 l 428 1042 z "},"„":{"ha":366,"x_min":-57,"x_max":254,"o":"m 118 161 l 103 61 q 81 -23 96 18 q 43 -99 66 -63 q -13 -166 19 -136 l -57 -127 q -4 -39 -26 -85 q 26 59 17 7 l 45 161 l 118 161 m 254 161 l 239 61 q 218 -22 233 18 q 181 -99 203 -62 q 127 -166 158 -136 l 79 -126 q 132 -39 111 -84 q 161 59 153 7 l 180 161 l 254 161 z "},"†":{"ha":650,"x_min":90,"x_max":650,"o":"m 454 987 l 299 0 l 225 0 l 380 987 l 454 987 m 650 734 l 639 662 l 90 662 l 102 734 l 650 734 z "},"‡":{"ha":666,"x_min":-4,"x_max":659,"o":"m 458 987 l 259 -282 l 183 -282 l 382 987 l 458 987 m 659 734 l 648 663 l 100 663 l 111 734 l 659 734 m 555 71 l 544 0 l -4 0 l 7 71 l 555 71 z "},"•":{"ha":436,"x_min":112,"x_max":358,"o":"m 112 483 l 113 506 q 152 597 117 561 q 243 633 186 633 q 328 598 297 633 q 358 513 358 564 l 356 488 q 317 399 353 433 q 226 365 281 364 q 143 398 174 365 q 112 483 113 431 z "},"‥":{"ha":550,"x_min":42,"x_max":389,"o":"m 45 50 q 63 91 45 74 q 103 109 80 108 q 143 92 127 109 q 157 50 159 75 q 138 10 156 26 q 97 -7 121 -6 q 58 9 73 -7 q 45 50 42 26 m 274 50 q 292 91 275 74 q 332 109 309 108 q 373 92 357 109 q 387 50 389 75 q 368 10 385 26 q 326 -7 350 -6 q 287 9 302 -7 q 274 50 271 26 z "},"…":{"ha":764,"x_min":42,"x_max":608,"o":"m 45 50 q 63 91 45 74 q 103 109 80 108 q 143 92 127 109 q 157 50 159 75 q 138 10 156 26 q 97 -7 121 -6 q 58 9 73 -7 q 45 50 42 26 m 274 50 q 292 91 275 74 q 332 109 309 108 q 373 92 357 109 q 387 50 389 75 q 368 10 385 26 q 326 -7 350 -6 q 287 9 302 -7 q 274 50 271 26 m 493 50 q 511 91 494 74 q 551 109 528 108 q 592 92 576 109 q 606 50 608 75 q 587 10 604 26 q 545 -7 569 -6 q 506 9 522 -7 q 493 50 490 26 z "},"‧":{"ha":222,"x_min":65,"x_max":168,"o":"m 67 435 q 82 474 68 456 q 119 492 96 492 q 155 475 142 493 q 165 435 168 457 q 149 398 163 414 q 113 380 135 381 q 78 397 90 380 q 67 435 65 414 z "},"‰":{"ha":1127,"x_min":118,"x_max":1032,"o":"m 121 745 l 127 797 q 153 895 131 846 q 214 974 175 943 q 309 1003 253 1005 q 394 969 363 1001 q 437 890 425 937 q 446 798 449 843 l 441 745 q 414 650 435 698 q 353 571 392 602 q 260 542 315 541 q 174 576 206 544 q 130 654 142 608 q 121 745 118 700 m 186 798 l 181 744 q 184 683 179 715 q 208 626 190 650 q 263 602 226 602 q 325 624 300 602 q 363 680 350 646 q 381 745 376 713 l 386 799 q 383 860 388 827 q 360 918 378 894 q 305 943 342 942 q 242 921 267 944 q 203 863 217 897 q 186 798 190 829 m 441 189 l 446 241 q 474 337 452 290 q 535 417 496 385 q 629 447 573 448 q 712 412 682 445 q 752 333 741 380 q 760 242 763 286 l 754 189 q 729 95 749 143 q 672 15 709 47 q 580 -15 635 -16 q 494 19 526 -13 q 451 97 463 50 q 441 189 439 144 m 507 243 l 502 188 q 506 127 500 160 q 529 70 511 94 q 583 44 547 45 q 647 66 622 43 q 684 124 671 90 q 701 189 697 158 l 707 243 q 704 305 709 272 q 681 362 699 338 q 626 387 663 386 q 563 365 587 388 q 524 309 538 342 q 507 243 511 275 m 709 189 l 714 241 q 740 337 719 289 q 799 417 762 385 q 892 447 837 448 q 977 413 945 445 q 1020 335 1008 381 q 1029 242 1032 288 l 1024 189 q 997 94 1019 142 q 937 14 975 45 q 842 -15 899 -17 q 760 20 790 -13 q 717 99 729 52 q 709 189 705 145 m 768 243 l 763 188 q 765 126 760 159 q 788 69 770 93 q 843 44 806 45 q 906 67 882 43 q 944 124 931 90 q 961 189 958 158 l 966 243 q 964 305 968 272 q 941 362 959 338 q 886 387 923 386 q 822 365 847 388 q 785 309 798 342 q 768 243 772 275 m 719 852 l 197 82 l 151 120 l 677 886 l 719 852 z "},"‹":{"ha":363,"x_min":66,"x_max":342,"o":"m 342 641 l 142 374 l 68 374 l 68 383 l 273 641 l 342 641 m 139 380 l 250 113 l 187 113 l 66 370 l 66 380 l 139 380 z "},"›":{"ha":363,"x_min":12,"x_max":289,"o":"m 12 110 l 211 376 l 286 376 l 285 367 l 81 110 l 12 110 m 109 641 l 168 641 l 289 381 l 288 370 l 213 371 l 109 641 z "},"⁄":{"ha":535,"x_min":-4,"x_max":563,"o":"m 563 852 l 39 83 l -4 120 l 521 887 l 563 852 z "},"⁰":{"ha":443,"x_min":105,"x_max":439,"o":"m 435 766 l 425 673 q 400 567 419 620 q 341 477 380 513 q 239 444 302 441 q 149 483 178 446 q 113 572 120 520 q 109 673 105 624 l 119 766 q 144 873 125 819 q 203 962 164 926 q 305 996 241 997 q 395 956 366 993 q 432 867 425 919 q 435 766 439 814 m 358 666 l 370 775 q 371 839 372 802 q 355 905 370 876 q 301 935 340 933 q 236 909 259 936 q 201 843 212 882 q 186 774 190 805 l 174 666 q 173 601 171 638 q 189 534 174 564 q 244 503 204 505 q 309 530 285 502 q 343 596 332 557 q 358 666 354 634 z "},"⁴":{"ha":443,"x_min":79,"x_max":439,"o":"m 439 640 l 428 578 l 79 578 l 83 624 l 360 987 l 418 987 l 331 861 l 157 640 l 439 640 m 429 987 l 340 452 l 272 452 l 366 987 l 429 987 z "},"⁵":{"ha":443,"x_min":106,"x_max":469,"o":"m 190 707 l 136 723 l 208 987 l 469 987 l 457 924 l 254 924 l 207 772 q 248 789 227 783 q 292 796 269 796 q 368 772 339 797 q 410 710 397 748 q 420 630 422 672 q 397 537 418 579 q 338 469 376 495 q 245 444 300 443 q 171 466 201 446 q 123 521 140 486 q 106 597 106 555 l 170 596 q 188 533 171 559 q 248 506 205 507 q 327 545 300 505 q 357 631 353 584 q 342 706 359 672 q 277 740 324 740 q 231 731 252 741 q 190 707 210 722 z "},"⁶":{"ha":443,"x_min":105,"x_max":422,"o":"m 401 994 l 415 994 l 408 932 l 401 932 q 290 905 336 933 q 217 828 244 877 q 183 718 191 779 l 174 642 q 176 583 171 615 q 198 528 180 551 q 251 505 216 506 q 307 525 284 505 q 342 574 330 545 q 355 633 354 604 q 342 709 359 672 q 279 746 326 746 q 227 732 250 746 q 188 696 204 718 q 163 648 172 673 l 146 673 q 174 739 153 709 q 227 788 195 770 q 296 806 258 806 q 372 780 344 806 q 411 713 399 753 q 420 633 422 673 q 397 542 418 585 q 338 470 376 498 q 249 444 301 443 q 162 476 194 446 q 117 553 130 507 q 110 648 105 600 l 114 694 q 141 809 120 755 q 197 905 162 864 q 283 970 233 947 q 401 994 334 994 z "},"⁷":{"ha":443,"x_min":116,"x_max":479,"o":"m 479 987 l 473 945 l 189 452 l 116 452 l 399 926 l 136 926 l 148 987 l 479 987 z "},"⁸":{"ha":443,"x_min":88,"x_max":446,"o":"m 412 602 q 386 516 410 552 q 323 462 362 481 q 237 444 284 443 q 159 462 193 444 q 107 512 125 479 q 90 591 88 545 q 116 672 91 637 q 180 725 140 706 q 264 742 220 743 q 339 724 304 742 q 393 675 373 707 q 412 602 413 644 m 347 605 q 340 651 350 630 q 311 683 330 671 q 264 695 292 695 q 212 682 235 695 q 173 646 188 669 q 156 595 159 624 q 163 548 154 568 q 193 516 173 528 q 238 504 212 504 q 291 517 268 504 q 330 553 315 530 q 347 605 345 575 m 444 852 q 420 777 442 809 q 361 726 397 744 q 284 709 326 709 q 214 726 245 709 q 163 772 182 743 q 145 842 144 802 q 169 922 147 887 q 226 976 190 957 q 307 996 262 996 q 380 976 349 994 q 429 926 412 958 q 444 852 446 895 m 378 848 q 372 891 380 871 q 347 923 363 911 q 306 935 330 935 q 240 906 266 935 q 210 840 214 878 q 216 798 208 817 q 241 767 224 779 q 282 755 258 755 q 348 783 322 756 q 378 848 374 810 z "},"⁹":{"ha":443,"x_min":121,"x_max":436,"o":"m 143 506 l 151 505 q 257 530 214 505 q 325 600 300 555 q 357 703 351 645 l 368 791 q 367 851 370 818 q 348 909 364 884 q 296 933 332 933 q 239 912 262 933 q 204 859 217 890 q 190 800 192 828 q 193 747 187 774 q 216 701 199 720 q 264 682 232 682 q 317 697 294 682 q 357 736 340 712 q 380 787 373 760 l 399 764 q 372 695 392 727 q 321 643 352 663 q 250 623 291 623 q 174 651 203 625 q 134 717 146 677 q 124 798 121 758 q 148 892 126 847 q 208 967 169 938 q 298 995 246 996 q 388 960 357 994 q 427 876 418 926 q 433 779 436 827 l 428 736 q 401 622 421 675 q 347 529 381 569 q 263 467 313 490 q 149 445 214 445 l 136 446 l 143 506 z "},"⁺":{"ha":473,"x_min":98,"x_max":471,"o":"m 471 711 l 459 648 l 98 648 l 109 711 l 471 711 m 351 913 l 275 446 l 214 446 l 297 913 l 351 913 z "},"⁻":{"ha":430,"x_min":101,"x_max":429,"o":"m 429 729 l 419 667 l 101 667 l 113 729 l 429 729 z "},"⁼":{"ha":429,"x_min":82,"x_max":467,"o":"m 438 644 l 422 555 l 82 555 l 98 644 l 438 644 m 467 806 l 452 718 l 111 718 l 126 806 l 467 806 z "},"⁽":{"ha":300,"x_min":104,"x_max":355,"o":"m 115 673 l 116 684 q 153 843 127 762 q 224 995 179 924 q 337 1113 269 1066 l 355 1059 q 268 952 302 1013 q 214 822 233 890 q 184 686 194 754 l 182 675 q 172 584 176 634 q 170 484 168 534 q 185 387 172 433 q 228 305 199 340 l 198 254 q 140 343 161 292 q 112 453 120 395 q 106 568 104 511 q 115 673 109 625 z "},"⁾":{"ha":300,"x_min":40,"x_max":291,"o":"m 281 692 l 280 681 q 243 522 269 604 q 173 369 218 440 q 60 252 129 297 l 40 304 q 127 412 93 351 q 182 541 161 473 q 212 677 202 609 l 214 689 q 224 779 220 729 q 227 879 229 828 q 212 977 225 930 q 170 1057 199 1023 l 200 1110 q 257 1021 237 1073 q 284 911 277 969 q 289 796 291 853 q 281 692 288 739 z "},"ⁿ":{"ha":503,"x_min":86,"x_max":496,"o":"m 230 863 l 156 441 l 86 441 l 181 986 l 235 986 l 230 863 m 193 732 l 172 730 q 190 816 178 770 q 224 904 202 862 q 280 971 246 945 q 366 996 315 996 q 452 962 423 994 q 489 882 481 930 q 492 786 496 833 l 436 441 l 366 441 l 420 778 q 421 844 424 809 q 401 904 418 879 q 343 930 385 928 q 262 898 292 931 q 217 818 232 865 q 193 732 201 771 z "},"₀":{"ha":443,"x_min":-17,"x_max":317,"o":"m 314 62 l 303 -31 q 278 -137 298 -83 q 220 -226 259 -190 q 117 -260 181 -262 q 28 -220 57 -258 q -9 -131 -1 -183 q -12 -31 -16 -79 l -3 62 q 23 170 3 116 q 81 258 43 223 q 184 292 120 294 q 274 253 245 290 q 311 163 303 216 q 314 62 318 111 m 237 -37 l 248 72 q 250 136 251 99 q 233 201 248 173 q 180 231 218 230 q 114 205 138 233 q 80 140 91 178 q 65 71 68 102 l 52 -37 q 51 -102 50 -65 q 68 -169 53 -140 q 123 -200 83 -198 q 187 -174 163 -201 q 222 -107 211 -146 q 237 -37 233 -69 z "},"₁":{"ha":443,"x_min":38,"x_max":252,"o":"m 252 289 l 163 -247 l 94 -247 l 172 198 l 38 153 l 50 218 l 241 288 l 252 289 z "},"₂":{"ha":443,"x_min":-49,"x_max":317,"o":"m 283 -186 l 271 -247 l -49 -247 l -39 -191 l 150 -1 q 190 42 169 18 q 227 93 211 66 q 245 148 242 119 q 234 211 250 184 q 180 237 219 237 q 104 204 130 238 q 69 127 79 171 l 4 127 q 33 213 11 174 q 93 275 56 252 q 180 297 130 298 q 255 278 224 297 q 302 225 286 258 q 315 149 317 193 q 291 72 312 107 q 242 5 271 36 q 185 -54 213 -26 l 48 -186 l 283 -186 z "},"₃":{"ha":443,"x_min":-35,"x_max":324,"o":"m 98 54 l 141 54 q 195 66 171 54 q 236 98 220 77 q 254 150 252 119 q 239 212 258 187 q 181 237 220 237 q 114 211 140 237 q 78 149 89 186 l 12 148 q 41 227 19 193 q 99 279 64 260 q 180 297 135 298 q 256 279 224 297 q 307 228 289 261 q 321 151 324 195 q 294 75 319 106 q 231 29 269 45 q 151 13 193 14 l 94 13 l 98 54 m 91 -3 l 96 37 l 146 37 q 220 21 188 36 q 271 -22 253 7 q 288 -96 290 -50 q 262 -180 286 -144 q 199 -236 237 -216 q 112 -254 160 -256 q 32 -233 65 -253 q -18 -178 -1 -213 q -33 -97 -35 -142 l 32 -97 q 51 -165 29 -138 q 116 -193 72 -192 q 191 -165 161 -193 q 225 -94 221 -138 q 218 -43 228 -62 q 187 -14 208 -24 q 138 -3 166 -5 l 91 -3 z "},"₄":{"ha":443,"x_min":-41,"x_max":319,"o":"m 319 -59 l 307 -120 l -41 -120 l -38 -75 l 239 288 l 297 288 l 210 162 l 37 -59 l 319 -59 m 308 288 l 219 -247 l 151 -247 l 245 288 l 308 288 z "},"₅":{"ha":443,"x_min":-15,"x_max":348,"o":"m 69 8 l 15 24 l 87 288 l 348 288 l 336 226 l 133 226 l 86 73 q 127 91 106 84 q 171 98 149 98 q 247 74 218 98 q 289 12 276 50 q 300 -68 302 -26 q 276 -161 297 -119 q 217 -230 255 -203 q 125 -254 180 -256 q 50 -233 81 -253 q 2 -178 19 -212 q -15 -101 -14 -143 l 50 -102 q 67 -166 50 -140 q 127 -193 84 -192 q 206 -154 180 -193 q 236 -67 232 -115 q 221 7 239 -26 q 157 41 203 41 q 110 33 131 42 q 69 8 89 24 z "},"₆":{"ha":443,"x_min":-16,"x_max":302,"o":"m 281 296 l 294 296 l 287 234 l 281 234 q 170 207 216 235 q 97 129 123 178 q 62 19 70 80 l 54 -56 q 55 -116 50 -83 q 77 -170 60 -148 q 130 -193 95 -193 q 186 -174 163 -193 q 221 -124 209 -154 q 235 -66 233 -94 q 222 11 238 -26 q 159 47 205 47 q 106 34 130 47 q 67 -3 83 20 q 42 -51 52 -25 l 25 -25 q 53 41 32 10 q 106 90 75 71 q 176 108 137 108 q 251 81 223 107 q 290 15 279 55 q 299 -66 302 -25 q 276 -157 297 -113 q 218 -228 255 -201 q 128 -255 180 -256 q 41 -222 73 -253 q -3 -145 9 -192 q -11 -50 -16 -98 l -7 -5 q 20 111 -1 56 q 77 207 41 165 q 163 272 112 248 q 281 296 214 296 z "},"₇":{"ha":443,"x_min":-5,"x_max":358,"o":"m 358 288 l 353 247 l 68 -247 l -5 -247 l 278 227 l 16 227 l 27 288 l 358 288 z "},"₈":{"ha":443,"x_min":-33,"x_max":325,"o":"m 291 -97 q 265 -182 289 -146 q 202 -237 241 -218 q 116 -255 163 -256 q 38 -237 72 -254 q -14 -186 5 -219 q -31 -108 -33 -153 q -5 -27 -30 -61 q 59 26 20 7 q 143 43 99 45 q 218 26 184 43 q 272 -23 252 8 q 291 -97 292 -54 m 227 -94 q 219 -48 229 -68 q 190 -15 209 -27 q 144 -3 171 -3 q 91 -17 115 -3 q 53 -52 67 -30 q 35 -103 38 -75 q 43 -151 33 -130 q 72 -183 52 -171 q 117 -195 92 -195 q 171 -181 147 -195 q 209 -146 194 -168 q 227 -94 224 -123 m 323 153 q 299 78 321 111 q 241 28 277 45 q 163 11 205 10 q 93 27 125 11 q 42 74 61 44 q 24 143 24 103 q 48 223 26 189 q 105 278 69 258 q 186 297 142 297 q 259 278 228 296 q 308 228 291 260 q 323 153 325 196 m 257 150 q 251 193 259 173 q 226 224 243 212 q 185 236 209 236 q 119 208 145 236 q 90 142 93 180 q 95 99 87 118 q 120 68 103 80 q 161 57 137 57 q 228 85 201 58 q 257 150 254 112 z "},"₉":{"ha":443,"x_min":1,"x_max":315,"o":"m 22 -193 l 31 -194 q 136 -169 93 -193 q 204 -99 179 -144 q 237 5 230 -54 l 248 92 q 247 153 250 119 q 228 210 243 186 q 175 235 212 235 q 119 213 141 235 q 84 161 96 192 q 69 101 71 130 q 73 48 66 76 q 95 2 79 21 q 143 -17 111 -17 q 197 -2 174 -17 q 236 38 220 14 q 260 89 252 62 l 279 65 q 251 -4 271 28 q 201 -56 231 -36 q 130 -75 170 -75 q 54 -48 82 -74 q 13 19 25 -22 q 3 100 1 59 q 27 194 5 149 q 87 269 48 239 q 178 296 125 298 q 267 261 237 295 q 306 178 297 227 q 312 80 315 128 l 307 38 q 280 -77 300 -24 q 226 -169 260 -130 q 143 -231 192 -209 q 28 -254 94 -254 l 15 -253 l 22 -193 z "},"₊":{"ha":480,"x_min":-18,"x_max":355,"o":"m 355 41 l 344 -23 l -18 -23 l -6 41 l 355 41 m 235 243 l 160 -224 l 99 -224 l 182 243 l 235 243 z "},"₋":{"ha":437,"x_min":-14,"x_max":313,"o":"m 314 58 l 304 -4 l -14 -4 l -3 58 l 314 58 z "},"₌":{"ha":436,"x_min":-34,"x_max":351,"o":"m 323 -26 l 307 -115 l -33 -115 l -18 -26 l 323 -26 m 352 136 l 336 47 l -5 47 l 11 136 l 352 136 z "},"₍":{"ha":300,"x_min":-5,"x_max":239,"o":"m 3 29 l 4 39 q 40 190 15 113 q 110 333 66 267 q 220 441 154 399 l 239 388 q 154 290 187 346 q 101 170 120 234 q 72 43 81 106 l 70 31 q 60 -87 63 -22 q 69 -213 57 -151 q 119 -319 81 -274 l 90 -369 q 32 -285 52 -334 q 3 -181 12 -236 q -4 -72 -5 -126 q 3 29 -3 -18 z "},"₎":{"ha":300,"x_min":-66,"x_max":178,"o":"m 171 58 l 170 47 q 134 -107 159 -28 q 64 -253 109 -186 q -47 -364 20 -321 l -66 -313 q 19 -210 -14 -267 q 73 -87 53 -152 q 102 44 92 -22 l 104 56 q 113 169 111 106 q 103 289 116 231 q 52 389 91 348 l 81 439 q 140 360 119 407 q 170 261 161 314 q 178 155 178 208 q 171 58 177 102 z "},"₤":{"ha":675,"x_min":-5,"x_max":669,"o":"m 552 0 l -5 0 l 9 73 l 565 73 l 552 0 m 285 704 l 222 252 q 196 140 215 195 q 134 45 178 85 l 62 73 q 109 118 92 86 q 133 185 125 149 q 145 251 141 222 l 208 705 q 250 846 218 777 q 339 960 282 916 q 479 1002 395 1004 q 595 960 553 999 q 653 862 637 922 q 663 738 669 802 l 586 738 q 583 825 591 782 q 548 898 574 869 q 468 929 521 928 q 370 895 408 931 q 312 806 332 859 q 285 704 291 753 m 464 562 l 452 499 l 81 499 l 92 562 l 464 562 m 434 386 l 422 323 l 50 323 l 62 386 l 434 386 z "},"₦":{"ha":902,"x_min":21,"x_max":908,"o":"m 908 621 l 895 551 l 56 551 l 68 621 l 908 621 m 873 418 l 861 347 l 21 347 l 33 418 l 873 418 m 853 987 l 682 0 l 607 0 l 302 843 l 155 0 l 77 0 l 250 987 l 323 987 l 631 144 l 777 987 l 853 987 z "},"₧":{"ha":953,"x_min":42,"x_max":905,"o":"m 311 396 l 161 397 l 174 467 l 315 467 q 432 498 384 467 q 506 580 479 528 q 541 696 533 632 q 537 800 547 751 q 496 881 528 849 q 401 916 464 913 l 277 917 l 117 0 l 42 0 l 214 987 l 403 987 q 536 943 487 984 q 603 838 585 903 q 614 697 622 773 q 569 543 606 611 q 467 435 532 475 q 311 396 402 395 m 905 734 l 893 666 l 587 666 l 599 734 l 905 734 m 741 922 l 817 922 l 690 178 q 689 129 688 156 q 700 82 689 102 q 741 62 711 62 q 767 63 754 61 q 794 66 781 65 l 789 -3 q 756 -10 773 -7 q 722 -12 739 -12 q 646 20 669 -12 q 618 94 623 51 q 616 179 613 138 l 741 922 z "},"₨":{"ha":1219,"x_min":41,"x_max":1160,"o":"m 212 987 l 470 987 q 607 947 553 984 q 685 846 661 909 q 701 702 708 782 q 665 576 694 631 q 586 482 635 521 q 471 422 537 444 l 444 410 l 163 411 l 175 484 l 397 483 q 508 513 460 484 q 587 592 557 543 q 623 703 616 642 q 615 807 629 760 q 565 883 602 854 q 468 914 529 912 l 277 915 l 118 0 l 41 0 l 212 987 m 534 0 l 406 441 l 483 442 l 617 9 l 616 0 l 534 0 m 1025 186 q 1010 254 1031 226 q 958 302 990 282 q 897 338 926 323 q 832 375 864 356 q 775 418 801 394 q 736 473 750 441 q 725 547 722 504 q 748 630 728 593 q 800 694 768 668 q 874 735 833 721 q 961 747 915 749 q 1069 719 1024 746 q 1138 644 1115 692 q 1156 533 1160 595 l 1082 533 q 1070 606 1084 574 q 1027 657 1057 638 q 957 676 998 675 q 883 662 917 677 q 826 618 848 647 q 799 549 803 590 q 806 499 795 521 q 836 461 816 477 q 878 432 855 445 q 922 408 901 419 q 1010 356 968 384 q 1078 290 1053 329 q 1100 191 1103 250 q 1076 103 1097 142 q 1021 38 1055 64 q 944 -1 987 12 q 853 -14 901 -14 q 741 14 790 -12 q 666 89 692 41 q 644 201 640 136 l 720 201 q 733 123 718 155 q 780 75 749 92 q 858 57 812 58 q 934 71 897 57 q 996 115 971 85 q 1025 186 1021 144 z "},"₩":{"ha":882,"x_min":24,"x_max":927,"o":"m 894 655 l 881 584 l 62 584 l 75 655 l 894 655 m 855 435 l 843 365 l 24 365 l 37 435 l 855 435 m 176 0 l 267 283 l 505 988 l 565 988 l 474 703 l 235 0 l 176 0 m 233 987 l 229 288 l 214 0 l 160 0 l 157 987 l 233 987 m 526 0 l 612 290 l 846 988 l 927 988 l 582 0 l 526 0 m 579 987 l 574 283 l 564 0 l 506 0 l 513 712 l 523 987 l 579 987 z "},"₪":{"ha":891,"x_min":26,"x_max":852,"o":"m 153 734 l 429 732 q 518 704 486 730 q 565 636 551 677 q 580 547 578 595 q 576 454 581 499 l 541 235 l 467 235 l 501 455 q 506 522 505 486 q 500 588 507 557 q 472 640 493 619 q 410 662 451 661 l 216 663 l 101 0 l 26 0 l 153 734 m 539 0 l 250 0 l 337 500 l 412 500 l 338 71 l 522 70 q 622 98 585 68 q 676 176 658 127 q 701 279 694 224 l 777 734 l 852 734 l 776 280 q 754 176 769 227 q 713 85 740 125 q 644 22 686 45 q 539 0 602 -1 z "},"€":{"ha":655,"x_min":56,"x_max":689,"o":"m 401 60 q 464 66 433 60 q 526 82 495 72 l 526 6 q 461 -8 494 -3 q 397 -13 429 -13 q 268 23 318 -12 q 191 114 217 58 q 158 238 165 171 q 161 372 152 305 l 199 615 q 236 758 210 688 q 306 883 262 827 q 412 971 349 939 q 557 1003 474 1003 q 624 996 591 1002 q 689 979 656 989 l 673 905 q 615 923 645 916 q 555 930 585 930 q 439 905 488 932 q 357 832 390 878 q 305 730 324 787 q 277 616 286 674 l 239 370 q 234 269 232 322 q 251 169 236 216 q 302 92 267 122 q 401 60 338 61 m 506 616 l 494 553 l 85 553 l 97 616 l 506 616 m 476 444 l 465 381 l 56 381 l 67 444 l 476 444 z "},"₱":{"ha":813,"x_min":59,"x_max":857,"o":"m 857 822 l 844 751 l 91 751 l 104 822 l 857 822 m 825 637 l 811 566 l 59 566 l 72 637 l 825 637 m 425 401 l 192 401 l 205 475 l 428 473 q 547 502 496 473 q 629 581 597 531 q 667 697 660 631 q 660 802 673 753 q 611 881 647 850 q 513 914 575 911 l 307 915 l 148 0 l 71 0 l 242 987 l 515 987 q 653 945 600 984 q 728 841 706 905 q 743 697 751 776 q 694 540 734 607 q 585 437 653 473 q 425 401 516 400 z "},"₹":{"ha":585,"x_min":82,"x_max":649,"o":"m 604 732 l 571 658 l 82 658 l 115 732 l 604 732 m 301 0 l 82 417 l 92 479 l 185 478 q 297 508 249 479 q 375 586 346 537 q 412 696 405 635 q 405 802 418 753 q 355 881 391 851 q 257 914 319 911 l 134 915 l 167 988 l 259 987 q 399 945 345 984 q 475 841 453 906 q 490 695 497 777 q 443 543 481 608 q 339 443 404 479 q 186 404 274 407 l 388 9 l 387 0 l 301 0 m 649 988 l 616 915 l 186 915 l 218 988 l 649 988 z "},"₺":{"ha":616,"x_min":33,"x_max":569,"o":"m 335 987 l 163 0 l 86 0 l 258 987 l 335 987 m 492 525 l 569 525 l 556 450 q 516 291 545 372 q 442 141 488 210 q 328 32 395 73 q 167 -8 260 -9 q 127 -5 146 -7 q 87 0 107 -3 l 168 66 q 300 103 246 68 q 391 194 355 138 q 448 316 427 250 q 481 448 469 382 l 492 525 m 446 844 l 430 758 l 66 585 l 83 671 l 446 844 m 412 652 l 397 566 l 33 395 l 49 480 l 412 652 z "},"₼":{"ha":770,"x_min":-1,"x_max":662,"o":"m 631 0 l 555 0 l 580 146 q 587 238 585 188 q 581 337 589 288 q 554 429 574 387 q 498 497 534 471 q 406 525 463 523 q 277 492 331 528 q 187 398 223 456 q 129 273 151 340 q 100 145 108 205 l 75 0 l -1 0 l 23 144 q 63 301 35 220 q 137 450 91 382 q 251 560 184 518 q 410 599 319 602 q 528 568 480 597 q 605 489 576 538 q 647 381 633 440 q 661 260 660 322 q 654 144 662 199 l 631 0 m 479 734 l 351 0 l 277 0 l 405 734 l 479 734 z "},"₽":{"ha":757,"x_min":0,"x_max":753,"o":"m 428 401 l 31 401 l 44 475 l 431 473 q 551 502 500 473 q 632 582 601 530 q 669 699 663 633 q 663 802 675 754 q 614 881 650 850 q 517 914 578 911 l 311 915 l 151 0 l 74 0 l 246 987 l 519 987 q 655 945 602 984 q 731 842 709 906 q 747 699 753 778 q 697 542 738 609 q 588 437 656 475 q 428 401 519 400 m 403 301 l 390 229 l 0 229 l 14 301 l 403 301 z "},"℅":{"ha":859,"x_min":136,"x_max":767,"o":"m 374 701 l 432 701 q 406 622 426 659 q 352 563 386 585 q 271 542 317 541 q 189 577 218 544 q 148 656 159 610 q 139 745 136 703 l 144 798 q 171 893 149 844 q 230 973 192 941 q 322 1003 267 1004 q 398 979 368 1002 q 442 920 428 956 q 453 841 456 883 l 394 841 q 380 911 397 880 q 319 943 364 943 q 258 920 282 944 q 221 862 234 896 q 204 798 208 828 l 199 745 q 201 686 197 720 q 221 628 205 653 q 273 602 237 602 q 340 633 316 602 q 374 701 365 664 m 439 189 l 444 241 q 471 338 449 291 q 532 416 493 385 q 627 446 571 448 q 711 413 680 445 q 755 334 743 380 q 764 242 767 288 l 759 189 q 732 94 754 142 q 672 14 710 45 q 578 -15 633 -17 q 492 19 523 -13 q 449 97 460 50 q 439 189 437 144 m 505 242 l 500 187 q 504 126 498 159 q 527 69 509 94 q 581 45 545 45 q 644 67 619 43 q 682 124 669 90 q 699 189 695 157 l 704 243 q 701 305 706 272 q 679 362 696 338 q 623 387 661 387 q 560 365 585 388 q 522 309 535 342 q 505 242 509 275 m 725 852 l 203 82 l 158 120 l 684 886 l 725 852 z "},"ℓ":{"ha":555,"x_min":47,"x_max":548,"o":"m 345 60 l 339 -14 q 244 19 279 -11 q 193 95 210 49 q 175 193 177 140 q 179 292 173 245 l 260 792 q 275 872 264 827 q 306 959 286 918 q 357 1026 325 1000 q 437 1050 389 1053 q 499 1027 476 1048 q 533 971 522 1005 q 546 901 544 937 q 546 836 548 865 l 543 812 q 506 660 534 734 q 434 520 479 586 q 331 404 390 454 q 200 323 272 353 q 47 292 128 294 l 57 370 q 214 411 142 372 q 338 513 285 450 q 425 654 392 577 q 467 810 458 731 l 470 836 q 473 871 471 849 q 472 918 474 894 q 459 959 469 942 q 429 977 450 977 q 382 958 399 979 q 354 905 364 937 q 340 842 345 874 q 334 792 336 810 l 253 292 q 247 221 249 260 q 252 147 245 182 q 280 88 258 112 q 345 60 302 64 z "},"№":{"ha":1182,"x_min":39,"x_max":1164,"o":"m 1080 361 l 1068 293 l 733 293 l 745 361 l 1080 361 m 788 696 l 796 767 q 828 878 803 824 q 897 967 852 932 q 1006 1000 941 1002 q 1103 962 1068 997 q 1151 873 1138 926 q 1159 768 1164 821 l 1151 696 q 1119 585 1144 638 q 1050 497 1095 531 q 941 465 1006 463 q 844 502 879 467 q 797 590 810 538 q 788 696 783 642 m 864 768 l 857 694 q 860 622 854 660 q 885 558 865 585 q 949 530 905 532 q 1021 555 994 529 q 1064 619 1049 581 q 1083 695 1079 658 l 1091 768 q 1089 840 1094 802 q 1063 905 1084 878 q 1000 933 1043 932 q 927 908 956 934 q 883 844 898 883 q 864 768 868 806 m 736 987 l 564 0 l 486 0 l 260 843 l 113 0 l 39 0 l 210 987 l 288 987 l 515 145 l 662 987 l 736 987 z "},"™":{"ha":727,"x_min":165,"x_max":713,"o":"m 607 623 l 653 893 l 526 624 l 498 623 l 463 906 l 414 623 l 371 623 l 433 987 l 486 987 l 521 701 l 657 988 l 713 987 l 650 623 l 607 623 m 388 987 l 382 941 l 294 941 l 241 623 l 197 623 l 250 941 l 165 941 l 171 987 l 388 987 z "},"℮":{"ha":854,"x_min":84,"x_max":771,"o":"m 638 134 l 634 63 q 512 7 576 28 q 378 -12 447 -14 q 248 21 304 -12 q 154 107 191 54 q 100 227 116 161 q 91 361 84 292 q 134 503 99 433 q 224 629 169 573 q 349 718 279 685 q 494 747 418 750 q 623 713 570 745 q 710 629 677 682 q 758 511 744 576 q 766 380 771 447 q 764 365 765 372 q 762 349 763 357 l 255 349 l 216 125 q 290 73 248 92 q 378 53 331 54 q 513 74 449 50 q 638 134 578 98 m 494 684 q 390 661 439 685 q 300 602 342 636 l 266 413 l 620 413 l 654 608 q 582 663 623 642 q 494 684 541 683 z "}}}
